<?xml version="1.0" standalone="no"?>
<!DOCTYPE svg PUBLIC "-//W3C//DTD SVG 1.1//EN" "http://www.w3.org/Graphics/SVG/1.1/DTD/svg11.dtd" >
<svg xmlns="http://www.w3.org/2000/svg" xmlns:xlink="http://www.w3.org/1999/xlink" version="1.1">
<metadata></metadata>
<defs>
<font id="informaprolight" horiz-adv-x="570" >
<font-face units-per-em="1000" ascent="800" descent="-200" />
<missing-glyph horiz-adv-x="308" />
<glyph horiz-adv-x="466" d="M154 506v-191h250v-56h-250v-205h262v-54h-325v562h321v-56h-258zM228 639l-33 30l124 105l50 -43z" />
<glyph unicode="&#x10f;" horiz-adv-x="538" d="M464 0h-58v86c-35 -50 -92 -96 -176 -96c-118 0 -181 93 -181 226c0 158 93 274 254 274c33 0 74 -5 103 -14v257h58v-733zM406 211v197c-33 18 -80 28 -120 28c-109 0 -174 -86 -174 -206c0 -105 44 -186 125 -186c96 0 169 95 169 167zM638 764l-54 -205l-45 11l36 206 z" />
<glyph unicode="&#x12d;" horiz-adv-x="207" d="M-37 706h51c8 -58 40 -86 90 -86c45 0 82 27 90 86h48c-8 -100 -74 -141 -143 -141c-72 0 -130 46 -136 141zM132 480v-480h-58v480h58z" />
<glyph horiz-adv-x="542" d="M285 0h-51l-213 562h71l173 -458l190 458h66z" />
<glyph horiz-adv-x="571" d="M479 0l-82 198h-224l-85 -198h-67l243 562h50l236 -562h-71zM286 469l-91 -215h180zM106 484l-49 3l64 178l70 -11z" />
<glyph horiz-adv-x="507" d="M101 10l10 55c27 -12 64 -22 104 -22c96 0 139 83 154 172c1 15 4 34 9 51c-31 -43 -82 -69 -145 -69c-105 0 -171 72 -171 179c0 116 82 194 194 194c131 0 184 -108 184 -225c0 -184 -54 -353 -236 -353c-40 0 -78 7 -103 18zM125 387c0 -76 45 -138 118 -138 c76 0 131 57 131 127c0 76 -44 141 -131 141c-66 0 -118 -53 -118 -130z" />
<glyph unicode="&#xae;" horiz-adv-x="675" d="M616 541c0 -161 -117 -282 -279 -282c-159 0 -281 109 -281 279c0 161 119 282 281 282c166 0 279 -124 279 -279zM563 538c0 130 -94 227 -226 227c-143 0 -227 -107 -227 -224c0 -143 106 -228 227 -228c129 0 226 90 226 225zM467 385h-60l-27 81 c-12 35 -25 50 -69 50h-24v-131h-59v306c28 5 61 9 94 9c69 0 126 -19 126 -78c0 -39 -33 -69 -68 -77c33 -5 44 -25 54 -59zM287 649v-85h29c37 0 69 19 69 48c0 28 -25 40 -64 40c-14 0 -24 -2 -34 -3z" />
<glyph horiz-adv-x="440" d="M154 506v-200h234v-54h-234v-252h-63v562h309v-56h-246z" />
<glyph unicode="&#x2087;" horiz-adv-x="320" d="M218 334h-183v44h246v-21l-127 -357h-56z" />
<glyph unicode="&#x2077;" horiz-adv-x="326" d="M218 676h-183v44h246v-21l-127 -357h-56z" />
<glyph horiz-adv-x="501" d="M459 0h-66l-47 149c-27 80 -55 106 -143 106h-49v-255h-63v556c51 8 98 13 149 13c108 0 186 -46 186 -138c0 -73 -56 -132 -112 -144c48 -10 66 -38 86 -101zM154 506v-197h65c76 0 140 47 140 113c0 60 -48 91 -128 91c-32 0 -57 -4 -77 -7zM139 771l94 -63l98 63 l29 -36l-130 -95l-121 94z" />
<glyph unicode="&#x16d;" horiz-adv-x="523" d="M70 178v302h58v-286c0 -107 30 -150 106 -150c93 0 156 89 156 211v225h58v-480h-58v87c-27 -57 -90 -97 -166 -97c-102 0 -154 52 -154 188zM124 706h51c8 -58 40 -86 90 -86c45 0 82 27 90 86h48c-8 -100 -74 -141 -143 -141c-72 0 -130 46 -136 141z" />
<glyph horiz-adv-x="592" d="M442 0l-293 452v-452h-58v562h62l291 -449v449h58v-562h-60zM281 639l-33 30l124 105l50 -43z" />
<glyph d="M149 459v-214c23 7 59 10 96 10c164 0 244 -82 244 -192c0 -134 -106 -218 -256 -218c-73 0 -137 11 -166 28l13 59c29 -18 87 -34 166 -34c106 0 180 62 180 152c0 99 -80 152 -197 152c-38 0 -71 -7 -107 -16l-31 8v316h352v-51h-294z" />
<glyph unicode="&#x129;" horiz-adv-x="207" d="M2 587l-49 12c17 65 46 94 92 94c54 0 97 -58 128 -58c14 0 22 25 30 57l49 -10c-20 -73 -40 -104 -86 -104c-57 0 -90 59 -128 59c-9 0 -26 -20 -36 -50zM132 480v-480h-58v480h58z" />
<glyph unicode="&#x390;" horiz-adv-x="341" d="M312 61l8 -45c-23 -17 -58 -26 -88 -26c-87 0 -121 64 -121 162v328h58v-314c0 -79 23 -122 71 -122c22 0 50 8 72 17zM158 550l-49 3l64 178l70 -11zM43 589c-24 0 -44 15 -44 44c0 27 18 43 44 43c31 0 43 -21 43 -43c0 -26 -17 -44 -43 -44zM299 589 c-24 0 -44 15 -44 44c0 27 18 43 44 43c31 0 42 -21 42 -43c0 -26 -16 -44 -42 -44z" />
<glyph unicode="&#x13d;" horiz-adv-x="546" d="M483 0h-376v720h64v-662h312v-58zM468 780l-82 -240h-50l55 240h77z" />
<glyph unicode="&#x2080;" horiz-adv-x="397" d="M55 182c0 98 28 201 147 201c107 0 140 -94 140 -193c0 -90 -30 -195 -146 -195c-104 0 -141 89 -141 187zM114 190c0 -71 21 -149 88 -149s82 79 82 141c0 71 -18 155 -88 155s-82 -78 -82 -147z" />
<glyph unicode="&#x3b9;" horiz-adv-x="307" d="M278 61l8 -45c-23 -17 -58 -26 -88 -26c-87 0 -121 64 -121 162v328h58v-314c0 -79 23 -122 71 -122c22 0 50 8 72 17z" />
<glyph d="M106 -146l9 58c34 -14 79 -25 125 -25c125 0 180 104 196 214c2 18 5 41 12 62l-2 1c-6 -10 -19 -26 -35 -41c-38 -30 -92 -45 -150 -45c-126 0 -205 84 -205 207c0 137 101 227 234 227c157 0 219 -129 219 -258c0 -220 -63 -421 -282 -421c-46 0 -92 8 -121 21z M119 298c0 -93 59 -168 152 -168c97 0 171 70 171 155c0 93 -56 173 -169 173c-84 0 -154 -64 -154 -160z" />
<glyph horiz-adv-x="604" d="M36 261v55h85v237c51 12 107 16 152 16c168 0 273 -114 273 -276c0 -170 -102 -301 -284 -301c-43 0 -108 5 -141 16v253h-85zM184 504v-188h150v-55h-150v-204c19 -5 56 -9 89 -9c122 0 206 94 206 230c0 126 -69 235 -217 235c-26 0 -58 -5 -78 -9z" />
<glyph unicode="&#x3a7;" horiz-adv-x="625" d="M529 0l-220 335l-215 -335h-72l252 387l-219 333h74l186 -284l184 284h71l-220 -336l253 -384h-74z" />
<glyph unicode="&#x16a;" horiz-adv-x="672" d="M335 -10c-154 0 -231 80 -231 250v480h64v-458c0 -149 52 -213 179 -213c95 0 182 57 182 198v473h58v-459c0 -196 -108 -271 -252 -271zM211 841v51h263v-51h-263z" />
<glyph unicode="&#x3b6;" horiz-adv-x="380" d="M263 -220h-67c45 39 104 116 104 167c0 113 -245 -9 -245 288c0 126 83 328 211 433h-198v52h274v-47c-143 -112 -224 -281 -224 -422c0 -267 245 -129 245 -287c0 -73 -62 -148 -100 -184z" />
<glyph unicode="&#x17b;" horiz-adv-x="556" d="M146 58h360v-58h-457v14l348 648h-333v58h425v-18zM320 859c0 -26 -17 -44 -44 -44c-24 0 -46 16 -46 44s20 46 46 46c31 0 44 -22 44 -46z" />
<glyph unicode="&#xfb;" horiz-adv-x="523" d="M70 178v302h58v-286c0 -107 30 -150 106 -150c93 0 156 89 156 211v225h58v-480h-58v87c-27 -57 -90 -97 -166 -97c-102 0 -154 52 -154 188zM373 559l-113 88l-115 -88l-31 38l149 129l142 -127z" />
<glyph unicode="&#xeb;" horiz-adv-x="493" d="M405 86l19 -49c-33 -25 -105 -47 -162 -47c-134 0 -213 86 -213 247c0 136 74 253 220 253c106 0 173 -77 173 -194c0 -27 -4 -48 -7 -61h-323c2 -116 51 -191 160 -191c48 0 90 14 133 42zM118 287h261c3 88 -45 149 -121 149c-91 0 -136 -82 -140 -149zM226 633 c0 -26 -17 -44 -43 -44c-24 0 -44 15 -44 44c0 27 18 43 44 43c31 0 43 -21 43 -43zM399 633c0 -26 -16 -44 -42 -44c-24 0 -44 15 -44 44c0 27 18 43 44 43c31 0 42 -21 42 -43z" />
<glyph horiz-adv-x="608" d="M458 0l-309 452v-452h-58v562h62l307 -449v449h57v-544c0 -128 -25 -198 -144 -198c-26 0 -56 9 -80 19l9 54c28 -11 58 -16 84 -16c53 0 73 48 74 123h-2z" />
<glyph unicode="&#x11b;" horiz-adv-x="493" d="M405 86l19 -49c-33 -25 -105 -47 -162 -47c-134 0 -213 86 -213 247c0 136 74 253 220 253c106 0 173 -77 173 -194c0 -27 -4 -48 -7 -61h-323c2 -116 51 -191 160 -191c48 0 90 14 133 42zM118 287h261c3 88 -45 149 -121 149c-91 0 -136 -82 -140 -149zM146 725 l113 -89l116 89l31 -39l-149 -128l-142 127z" />
<glyph unicode="&#x2074;" horiz-adv-x="392" d="M284 342h-55v112h-183l-6 50l181 216h63v-222h65v-44h-65v-112zM91 498h138v161z" />
<glyph unicode="&#x2202;" horiz-adv-x="535" d="M413 434c-17 132 -117 229 -281 257l17 38c259 -33 346 -199 346 -467c0 -138 -87 -272 -235 -272c-117 0 -211 81 -211 240c0 141 85 253 228 253c50 0 102 -20 136 -49zM277 44c93 0 155 106 155 202c0 26 -3 59 -5 84c-29 59 -90 99 -167 99c-94 0 -147 -87 -147 -186 c0 -141 65 -199 164 -199z" />
<glyph horiz-adv-x="555" d="M360 -73l24 -28c-14 -20 -42 -41 -77 -41c-32 0 -67 20 -67 64c0 28 13 52 27 69c-105 2 -180 52 -180 175v396h62v-377c0 -98 58 -138 133 -138c106 0 146 60 146 169v346h54v-376c0 -102 -50 -163 -138 -186c-30 -7 -45 -50 -45 -72c0 -13 7 -22 20 -22 c18 0 32 10 41 21z" />
<glyph unicode="&#xfb04;" horiz-adv-x="769" d="M384 480v68c0 107 41 182 167 182c18 0 43 -5 61 -12l-12 -52c-19 5 -49 10 -74 10c-69 0 -84 -44 -84 -116v-80h129v-52h-129v-428h-58v428h-208v-428h-58v428h-94v52h94v60c0 106 34 179 151 179c16 0 40 -3 57 -11l-7 -52c-17 5 -45 10 -66 10c-63 0 -77 -43 -77 -116 v-70h208zM694 733v-733h-58v733h58z" />
<glyph horiz-adv-x="574" d="M501 311v-282c-56 -24 -99 -37 -150 -37c-212 0 -290 130 -290 285c0 167 126 292 296 292c52 0 88 -7 128 -24l-13 -57c-36 15 -75 25 -123 25c-122 0 -220 -96 -220 -225c0 -152 82 -240 230 -240c32 0 61 7 79 17v190h-116v56h179zM427 640l-95 64l-98 -64l-28 38 l128 93l123 -93z" />
<glyph horiz-adv-x="480" d="M271 508v-508h-62v508h-181v54h424v-54h-181z" />
<glyph horiz-adv-x="574" d="M501 311v-282c-56 -24 -99 -37 -150 -37c-212 0 -290 130 -290 285c0 167 126 292 296 292c52 0 88 -7 128 -24l-13 -57c-36 15 -75 25 -123 25c-122 0 -220 -96 -220 -225c0 -152 82 -240 230 -240c32 0 61 7 79 17v190h-116v56h179zM206 765h50c6 -38 31 -63 69 -63 c37 0 63 24 69 63h50c-7 -75 -61 -116 -123 -116c-63 0 -110 44 -115 116z" />
<glyph unicode="&#xdb;" horiz-adv-x="672" d="M335 -10c-154 0 -231 80 -231 250v480h64v-458c0 -149 52 -213 179 -213c95 0 182 57 182 198v473h58v-459c0 -196 -108 -271 -252 -271zM457 789l-115 79l-118 -79l-31 40l152 113l144 -114z" />
<glyph horiz-adv-x="429" d="M152 0h-63v562h306v-56h-243v-506zM367 729l-138 -86l-35 28l124 99z" />
<glyph horiz-adv-x="364" d="M53 438l-10 54c32 12 74 19 111 19c100 0 159 -42 159 -112c0 -124 -150 -146 -149 -257c0 -5 0 -10 1 -15h-52c-3 9 -3 17 -3 27c0 107 136 140 136 234c0 46 -36 68 -98 68c-35 0 -67 -7 -95 -18zM185 35c0 -23 -21 -42 -44 -42c-24 0 -43 19 -43 42c0 24 19 43 43 43 c23 0 44 -19 44 -43z" />
<glyph horiz-adv-x="465" d="M55 553l6 38h55c26 79 97 134 198 134c35 0 68 -5 95 -14l-11 -51c-18 7 -54 16 -90 16c-64 0 -112 -35 -129 -85h198l-7 -38h-201v-21c0 -4 0 -15 1 -23h195l-7 -38h-180c14 -50 58 -85 123 -85c36 0 69 10 95 26l21 -44c-34 -20 -73 -31 -124 -31 c-103 0 -160 58 -180 134h-70l6 38h57v15c0 10 0 19 1 29h-52z" />
<glyph unicode="&#x3ba;" horiz-adv-x="447" d="M442 0h-81l-229 254v-254h-58v480h58v-201l226 201h79l-238 -213z" />
<glyph unicode="&#x160;" horiz-adv-x="537" d="M57 29l18 60c44 -22 106 -42 162 -42c93 0 176 37 176 135c0 158 -345 172 -345 366c0 116 94 182 223 182c69 0 120 -13 157 -30l-15 -60c-48 21 -105 32 -149 32c-88 0 -150 -35 -150 -111c0 -156 345 -175 345 -365c0 -143 -110 -206 -248 -206c-66 0 -133 18 -174 39 zM182 942l114 -79l118 79l32 -40l-153 -113l-143 114z" />
<glyph unicode="&#xab;" horiz-adv-x="442" d="M123 280l96 -170l-45 -21l-130 191l130 196l46 -23zM295 280l92 -170l-45 -21l-125 191l125 196l45 -23z" />
<glyph d="M100 0v52h198v400l-179 -37l-8 50l221 45h24v-458h174v-52h-430z" />
<glyph horiz-adv-x="575" d="M233 -8c-43 0 -109 5 -142 16v545c42 12 107 16 153 16c168 0 273 -114 273 -276c0 -170 -102 -301 -284 -301zM154 504v-447c20 -5 55 -9 90 -9c121 0 205 94 205 230c0 126 -68 235 -216 235c-26 0 -57 -5 -79 -9z" />
<glyph unicode="&#xf2;" horiz-adv-x="549" d="M499 246c0 -145 -86 -256 -233 -256c-120 0 -217 83 -217 243c0 146 85 257 236 257c134 0 214 -104 214 -244zM436 233c0 122 -59 203 -170 203c-98 0 -154 -89 -154 -190c0 -134 67 -202 173 -202c93 0 151 88 151 189zM322 569l-50 -18l-121 150l63 29z" />
<glyph unicode="&#x172;" horiz-adv-x="672" d="M440 -97l28 -31c-17 -22 -54 -49 -92 -49c-35 0 -80 24 -80 77c0 36 18 66 35 88c-133 1 -227 64 -227 222v510h63v-488c0 -149 82 -183 174 -183c134 0 191 71 191 229v442h55v-487c0 -128 -63 -205 -170 -233c-37 -9 -54 -66 -54 -94c0 -17 8 -30 26 -30 c21 0 39 15 51 27z" />
<glyph d="M466 709l-10 -59c-32 15 -80 27 -125 27c-129 0 -184 -119 -200 -243c-2 -18 -5 -44 -11 -67h1c6 10 19 28 35 44c37 35 95 52 153 52c128 0 208 -92 208 -227c0 -147 -102 -246 -237 -246c-159 0 -222 142 -222 277c0 243 64 464 285 464c47 0 94 -8 123 -22zM454 223 c0 104 -60 186 -155 186c-99 0 -174 -77 -174 -173c0 -102 56 -191 172 -191c86 0 157 71 157 178z" />
<glyph unicode="&#xc7;" horiz-adv-x="640" d="M301 -69l40 64c-170 26 -269 163 -269 349c0 217 142 386 350 386c66 0 111 -8 157 -33l-14 -60c-34 18 -92 34 -152 34c-169 0 -272 -152 -272 -303c0 -176 84 -319 275 -319c51 0 115 20 158 53l25 -50c-41 -36 -109 -63 -208 -62l-21 -34c33 -6 53 -33 53 -63 c0 -48 -35 -79 -103 -79c-10 0 -26 0 -47 8l14 42c8 -2 23 -7 37 -7s34 9 34 31c0 23 -25 36 -57 43z" />
<glyph unicode="&#x2019;" horiz-adv-x="237" d="M204 724l-82 -240h-50l55 240h77z" />
<glyph unicode="&#x2070;" horiz-adv-x="396" d="M55 524c0 98 28 201 147 201c107 0 140 -94 140 -193c0 -90 -30 -195 -146 -195c-104 0 -141 89 -141 187zM114 532c0 -71 21 -149 88 -149s82 79 82 141c0 71 -18 155 -88 155s-82 -78 -82 -147z" />
<glyph horiz-adv-x="618" d="M557 285c0 -150 -88 -293 -251 -293c-179 0 -245 151 -245 285c0 174 106 292 253 292c148 0 243 -119 243 -284zM490 277c0 115 -63 236 -184 236c-120 0 -177 -129 -177 -228c0 -124 59 -237 185 -237c109 0 176 100 176 229zM230 664l-45 11c13 49 37 79 78 79 c43 0 74 -42 98 -42c14 0 20 17 26 38l48 -9c-16 -56 -40 -84 -80 -84c-43 0 -67 44 -98 44c-10 0 -19 -16 -27 -37z" />
<glyph unicode="&#xe1;" horiz-adv-x="486" d="M416 0h-58v37c0 18 1 37 4 52l-2 1c-8 -16 -18 -29 -32 -42c-39 -36 -88 -58 -147 -58c-79 0 -137 45 -137 120c0 138 158 179 314 187v33c0 75 -30 106 -109 106c-52 0 -113 -15 -154 -39l-12 57c48 21 103 36 172 36c112 0 161 -47 161 -136v-354zM357 245 c-116 -2 -250 -33 -250 -120c0 -50 35 -81 86 -81c76 0 164 68 164 170v31zM253 551l-49 18l107 161l64 -29z" />
<glyph unicode="&#x3a0;" horiz-adv-x="701" d="M593 0h-63v662h-359v-662h-64v720h486v-720z" />
<glyph unicode="&#x11f;" horiz-adv-x="525" d="M456 469v-392c0 -218 -80 -307 -241 -307c-44 0 -101 8 -133 25l10 61c34 -21 99 -32 137 -32c131 0 169 95 169 240v35c-34 -59 -97 -90 -167 -90c-112 0 -182 71 -182 201c0 166 97 280 267 280c56 0 92 -7 140 -21zM398 239v176c-13 7 -42 21 -95 21 c-135 0 -191 -98 -191 -211c0 -112 57 -162 131 -162c75 0 155 59 155 176zM145 706h51c8 -58 40 -86 90 -86c45 0 82 27 90 86h48c-8 -100 -74 -141 -143 -141c-72 0 -130 46 -136 141z" />
<glyph horiz-adv-x="479" d="M56 434l-17 49c38 14 102 29 166 29c113 0 182 -47 182 -137c0 -129 -170 -248 -276 -325h307v-50h-372v63c126 92 278 197 278 301c0 70 -60 94 -138 94c-43 0 -92 -9 -130 -24z" />
<glyph unicode="&#x1e84;" horiz-adv-x="932" d="M660 119l195 601h59l-235 -720h-44l-169 539l-173 -539h-47l-228 720h65l192 -601l189 601h11zM411 862c0 -28 -21 -48 -47 -48c-27 0 -48 20 -48 48c0 25 21 46 48 46c26 0 47 -21 47 -46zM616 862c0 -28 -20 -48 -48 -48c-25 0 -46 20 -46 48c0 25 21 46 46 46 c28 0 48 -21 48 -46z" />
<glyph unicode="&#xb2;" horiz-adv-x="349" d="M54 660l-13 44c32 13 70 21 106 21c84 0 133 -36 133 -105c0 -86 -104 -176 -172 -234h190v-44h-253v53c59 47 176 149 176 216c0 34 -22 68 -81 68c-26 0 -58 -7 -86 -19z" />
<glyph unicode="&#x135;" horiz-adv-x="202" d="M3 -168c63 0 71 55 71 119v529h58v-516c0 -124 -25 -194 -137 -194c-19 0 -38 4 -58 10l5 63c18 -6 36 -11 61 -11zM217 559l-113 88l-115 -88l-31 38l149 129l142 -127z" />
<glyph horiz-adv-x="480" d="M271 508v-508h-62v508h-181v54h424v-54h-181zM282 702c0 -26 -18 -43 -42 -43c-23 0 -43 16 -43 43c0 26 18 44 43 44c27 0 42 -19 42 -44z" />
<glyph unicode="&#x164;" horiz-adv-x="590" d="M327 662v-662h-64v662h-234v58h533v-58h-235zM177 942l114 -79l118 79l32 -40l-153 -113l-143 114z" />
<glyph unicode="&#x150;" horiz-adv-x="757" d="M684 366c0 -188 -107 -376 -311 -376c-224 0 -301 199 -301 367c0 208 120 373 311 373c182 0 301 -152 301 -364zM616 356c0 179 -94 315 -243 315c-140 0 -233 -135 -233 -305c0 -142 61 -317 243 -317c155 0 233 153 233 307zM277 789l-33 36l127 121l51 -52zM442 789 l-35 33l154 124l54 -49z" />
<glyph unicode="'" horiz-adv-x="156" d="M100 475h-43l-18 249h78z" />
<glyph unicode="[" horiz-adv-x="304" d="M154 711v-782h113v-57h-171v895h171v-56h-113z" />
<glyph unicode="&#x131;" horiz-adv-x="207" d="M132 480v-480h-58v480h58z" />
<glyph unicode="&#x237;" horiz-adv-x="202" d="M3 -168c63 0 71 55 71 119v529h58v-516c0 -124 -25 -194 -137 -194c-19 0 -38 4 -58 10l5 63c18 -6 36 -11 61 -11z" />
<glyph horiz-adv-x="618" d="M557 285c0 -150 -88 -293 -251 -293c-53 0 -97 14 -132 36l-47 -71l-45 28l52 78c-52 57 -73 138 -73 214c0 174 106 292 253 292c51 0 95 -14 132 -39l48 71l45 -30l-52 -77c45 -51 70 -124 70 -209zM490 277c0 56 -14 112 -43 155c-62 -90 -132 -198 -236 -351 c27 -21 61 -33 103 -33c109 0 176 100 176 229zM129 285c0 -62 14 -120 44 -163l238 354c-28 23 -63 37 -105 37c-120 0 -177 -129 -177 -228z" />
<glyph unicode="," horiz-adv-x="277" d="M197 89l-82 -235h-45l55 235h72z" />
<glyph horiz-adv-x="589" d="M207 2v506h-181v54h244v-233h63c153 0 218 -77 218 -170c0 -91 -63 -167 -233 -167c-29 0 -66 3 -111 10zM330 276h-60v-224c22 -3 45 -4 65 -4c101 0 150 52 150 113c0 65 -50 115 -155 115z" />
<glyph horiz-adv-x="480" d="M271 508v-508h-62v508h-181v54h424v-54h-181zM144 771l94 -63l98 63l29 -36l-130 -95l-121 94z" />
<glyph unicode="&#x2076;" horiz-adv-x="388" d="M311 712l-11 -46c-19 7 -45 12 -76 12c-76 0 -104 -64 -112 -126l1 -1c20 25 53 40 97 40c79 0 127 -51 127 -122c0 -78 -60 -132 -145 -132c-97 0 -137 71 -137 160c0 120 42 228 177 228c32 0 60 -5 79 -13zM278 460c0 48 -27 84 -78 84c-50 0 -86 -35 -86 -75 c0 -48 31 -86 84 -86c47 0 80 33 80 77z" />
<glyph unicode="&#x2085;" horiz-adv-x="349" d="M115 334v-102c12 3 30 5 47 5c93 0 142 -47 142 -111c0 -84 -66 -131 -161 -131c-38 0 -71 6 -97 16l13 47c24 -10 60 -17 94 -17c55 0 93 28 93 76c0 45 -36 73 -95 73c-20 0 -39 -3 -57 -9l-31 9v188h215v-44h-163z" />
<glyph unicode="&#xf1;" horiz-adv-x="524" d="M454 315v-315h-58v291c0 88 -24 145 -112 145c-95 0 -152 -83 -152 -169v-267h-58v480h59v-71c28 47 85 81 161 81c106 0 160 -55 160 -175zM158 587l-49 12c17 65 46 94 92 94c54 0 97 -58 128 -58c14 0 22 25 30 57l49 -10c-20 -73 -40 -104 -86 -104 c-57 0 -90 59 -128 59c-9 0 -26 -20 -36 -50z" />
<glyph unicode="&#x106;" horiz-adv-x="640" d="M575 100l24 -48c-46 -38 -119 -62 -200 -62c-209 0 -327 165 -327 354c0 214 134 386 350 386c58 0 117 -12 157 -33l-16 -59c-34 18 -98 33 -150 33c-174 0 -273 -152 -273 -303c0 -172 91 -319 270 -319c57 0 121 20 165 51zM366 788l-38 30l149 128l57 -44z" />
<glyph horiz-adv-x="245" d="M154 562v-562h-63v562h63zM217 640l-95 64l-98 -64l-28 38l128 93l123 -93z" />
<glyph unicode="&#x3c4;" horiz-adv-x="445" d="M396 61l8 -45c-23 -17 -58 -26 -88 -26c-87 0 -121 64 -121 162v276h-172v52h401v-52h-171v-262c0 -65 13 -122 71 -122c22 0 50 8 72 17z" />
<glyph unicode="&#x176;" horiz-adv-x="584" d="M323 323v-323h-64v322l-233 398h74l195 -331l194 331h69zM402 789l-115 79l-118 -79l-31 40l152 113l144 -114z" />
<glyph horiz-adv-x="459" d="M135 56h280v-56h-370v18l269 487h-258v57h346v-21zM207 639l-33 30l124 105l50 -43z" />
<glyph unicode="." horiz-adv-x="309" d="M204 39c0 -27 -22 -49 -50 -49c-27 0 -49 22 -49 49c0 28 22 50 49 50c28 0 50 -22 50 -50z" />
<glyph horiz-adv-x="520" d="M67 269c0 130 29 300 197 300c145 0 189 -153 189 -288c0 -126 -39 -289 -198 -289c-136 0 -188 134 -188 277zM129 281c0 -112 35 -238 134 -238c103 0 126 128 126 226c0 113 -27 248 -133 248c-108 0 -127 -127 -127 -236z" />
<glyph unicode="&#x3b7;" horiz-adv-x="524" d="M454 -220h-58v511c0 110 -34 145 -112 145c-99 0 -152 -83 -152 -169v-267h-58v480h58v-72c28 47 84 82 160 82c105 0 162 -49 162 -175v-535z" />
<glyph horiz-adv-x="557" d="M421 65v227h63v-264c-52 -24 -96 -36 -145 -36c-202 0 -278 131 -278 285c0 168 121 292 285 292c49 0 84 -7 122 -24l-12 -57c-36 15 -71 25 -119 25c-115 0 -208 -96 -208 -225c0 -151 77 -240 218 -240c30 0 57 8 74 17zM427 640l-95 64l-98 -64l-28 38l128 93 l123 -93z" />
<glyph horiz-adv-x="402" d="M285 511h-251v51h319v-26l-170 -536h-59z" />
<glyph unicode="]" horiz-adv-x="304" d="M150 -71v782h-113v56h171v-895h-171v57h113z" />
<glyph unicode="&#xcf;" horiz-adv-x="278" d="M171 720v-720h-64v720h64zM84 862c0 -28 -21 -48 -47 -48c-27 0 -48 20 -48 48c0 25 21 46 48 46c26 0 47 -21 47 -46zM289 862c0 -28 -20 -48 -48 -48c-25 0 -46 20 -46 48c0 25 21 46 46 46c28 0 48 -21 48 -46z" />
<glyph unicode="&#x136;" horiz-adv-x="606" d="M171 408l301 312h83l-326 -332l361 -388h-90l-329 359v-359h-64v720h64v-312zM322 -67l-65 -163h-45l47 163h63z" />
<glyph unicode="&#x10b;" horiz-adv-x="443" d="M399 80l19 -51c-51 -27 -99 -39 -150 -39c-137 0 -219 89 -219 249c0 146 103 251 237 251c36 0 75 -5 105 -16l-12 -55c-32 12 -67 17 -103 17c-99 0 -164 -82 -164 -192c0 -133 67 -200 172 -200c49 0 100 26 115 36zM307 645c0 -26 -16 -45 -42 -45 c-24 0 -44 16 -44 45c0 26 18 44 44 44c30 0 42 -22 42 -44z" />
<glyph unicode="&#x101;" horiz-adv-x="486" d="M416 0h-58v37c0 18 1 37 4 52l-2 1c-8 -16 -18 -29 -32 -42c-39 -36 -88 -58 -147 -58c-79 0 -137 45 -137 120c0 138 158 179 314 187v33c0 75 -30 106 -109 106c-52 0 -113 -15 -154 -39l-12 57c48 21 103 36 172 36c112 0 161 -47 161 -136v-354zM357 245 c-116 -2 -250 -33 -250 -120c0 -50 35 -81 86 -81c76 0 164 68 164 170v31zM117 606v49h256v-49h-256z" />
<glyph horiz-adv-x="819" d="M437 2v274h-285v-276h-63v562h63v-232h285v232h63v-233h62c153 0 218 -76 218 -169s-63 -168 -232 -168c-31 0 -67 3 -111 10zM559 276h-59v-224c22 -3 44 -4 65 -4c100 0 150 51 150 113c0 66 -51 115 -156 115z" />
<glyph unicode="&#xc9;" horiz-adv-x="564" d="M171 662v-266h323v-58h-323v-280h337v-58h-401v720h396v-58h-332zM297 788l-38 30l149 128l57 -44z" />
<glyph unicode="/" horiz-adv-x="467" d="M71 -150l-51 17l370 971l52 -19z" />
<glyph unicode="&#x2264;" horiz-adv-x="603" d="M480 559l21 -54l-325 -167l328 -166l-21 -52l-403 200v38zM64 1v57h462v-57h-462z" />
<glyph horiz-adv-x="501" d="M91 6v548c43 10 103 15 146 15c106 0 181 -41 181 -130c0 -61 -36 -111 -91 -133l1 -3c75 -13 116 -74 116 -134c0 -72 -42 -177 -227 -177c-60 0 -96 7 -126 14zM154 261v-205c20 -5 44 -6 69 -6c95 0 153 38 153 108c0 71 -62 103 -155 103c-22 0 -37 1 -67 0zM154 506 v-190h35c84 0 167 41 167 112c0 65 -57 85 -134 85c-19 0 -52 -3 -68 -7z" />
<glyph unicode="&#x2122;" horiz-adv-x="816" d="M207 667v-305h-65v305h-123v57h311v-57h-123zM562 460l72 260h92l32 -358h-59l-28 277l-69 -258h-69l-75 258l-26 -277h-60l33 358h81z" />
<glyph horiz-adv-x="577" d="M488 0h-63v506h-273v-506h-63v562h399v-562z" />
<glyph unicode="&#xf5;" horiz-adv-x="549" d="M499 246c0 -145 -86 -256 -233 -256c-120 0 -217 83 -217 243c0 146 85 257 236 257c134 0 214 -104 214 -244zM436 233c0 122 -59 203 -170 203c-98 0 -154 -89 -154 -190c0 -134 67 -202 173 -202c93 0 151 88 151 189zM174 587l-49 12c17 65 46 94 92 94 c54 0 97 -58 128 -58c14 0 22 25 30 57l49 -10c-20 -73 -40 -104 -86 -104c-57 0 -90 59 -128 59c-9 0 -26 -20 -36 -50z" />
<glyph unicode="&#x3c6;" horiz-adv-x="646" d="M351 -220h-58v210c-147 1 -244 85 -244 250c0 151 98 242 244 250v240h58v-240c148 -8 245 -89 245 -250c0 -162 -107 -250 -245 -250v-210zM351 436v-392c107 0 182 57 182 198c0 113 -71 194 -182 194zM293 44v392c-123 0 -181 -87 -181 -194c0 -126 74 -198 181 -198z " />
<glyph horiz-adv-x="255" d="M204 470h-154v42h154v-42z" />
<glyph unicode="&#xbb;" horiz-adv-x="442" d="M319 285l-96 170l45 21l129 -191l-129 -196l-46 22zM147 285l-93 170l46 21l125 -191l-125 -196l-46 22z" />
<glyph horiz-adv-x="503" d="M487 0h-89l-246 275v-275h-63v562h63v-242l148 155c54 59 93 94 150 94c12 0 23 -2 37 -5l-13 -58c-9 4 -17 5 -27 5c-23 0 -50 -13 -93 -60l-144 -149zM402 729l-139 -86l-33 28l123 99z" />
<glyph unicode="&#xc4;" horiz-adv-x="687" d="M596 0l-110 270h-288l-112 -270h-64l308 720h35l300 -720h-69zM344 615l-119 -287h236zM290 862c0 -28 -21 -48 -47 -48c-27 0 -48 20 -48 48c0 25 21 46 48 46c26 0 47 -21 47 -46zM495 862c0 -28 -20 -48 -48 -48c-25 0 -46 20 -46 48c0 25 21 46 46 46 c28 0 48 -21 48 -46z" />
<glyph horiz-adv-x="374" d="M259 -106l10 -54c-32 -12 -74 -19 -111 -19c-100 0 -159 42 -159 112c0 124 150 146 149 257c0 5 0 10 -1 15h52c3 -9 3 -17 3 -27c0 -107 -136 -140 -136 -234c0 -46 36 -68 98 -68c35 0 67 7 95 18zM127 297c0 23 21 42 44 42c24 0 43 -19 43 -42 c0 -24 -19 -43 -43 -43c-23 0 -44 19 -44 43z" />
<glyph horiz-adv-x="244" d="M204 128h-154v42h154v-42z" />
<glyph horiz-adv-x="471" d="M89 2v560h63v-233h63c153 0 218 -77 218 -170c0 -91 -63 -167 -233 -167c-30 0 -66 3 -111 10zM212 276h-60v-224c22 -3 44 -4 65 -4c101 0 150 52 150 113c0 65 -51 115 -155 115z" />
<glyph unicode="&#x2079;" horiz-adv-x="388" d="M77 350l10 47c21 -7 46 -14 77 -14c83 0 94 63 112 127l-1 1c-21 -26 -54 -40 -97 -40c-79 0 -127 49 -127 122c0 78 60 132 145 132c97 0 137 -71 137 -160c0 -120 -42 -228 -177 -228c-32 0 -60 5 -79 13zM110 602c0 -47 29 -85 78 -85c47 0 86 36 86 76 c0 47 -31 86 -87 86c-44 0 -77 -33 -77 -77z" />
<glyph unicode="&#x2030;" horiz-adv-x="1352" d="M64 524c0 91 38 201 177 201c116 0 166 -99 166 -192c0 -105 -61 -196 -174 -196c-101 0 -169 84 -169 187zM130 533c0 -67 29 -146 112 -146c67 0 99 76 99 137c0 80 -33 152 -111 152c-71 0 -100 -72 -100 -143zM538 182c0 91 38 201 177 201c116 0 166 -99 166 -192 c0 -105 -61 -196 -174 -196c-100 0 -169 84 -169 187zM604 191c0 -67 29 -146 112 -146c68 0 99 76 99 137c0 80 -32 152 -111 152c-70 0 -100 -72 -100 -143zM945 182c0 91 38 201 177 201c115 0 165 -99 165 -192c0 -105 -60 -196 -173 -196c-101 0 -169 84 -169 187z M1010 191c0 -67 29 -146 113 -146c67 0 99 76 99 137c0 80 -33 152 -112 152c-70 0 -100 -72 -100 -143zM249 1l393 749l50 -28l-392 -748z" />
<glyph unicode="&#xc0;" horiz-adv-x="687" d="M596 0l-110 270h-288l-112 -270h-64l308 720h35l300 -720h-69zM344 615l-119 -287h236zM391 818l-41 -31l-166 114l58 45z" />
<glyph horiz-adv-x="618" d="M557 285c0 -150 -88 -293 -251 -293c-179 0 -245 151 -245 285c0 174 106 292 253 292c148 0 243 -119 243 -284zM490 277c0 115 -63 236 -184 236c-120 0 -177 -129 -177 -228c0 -124 59 -237 185 -237c109 0 176 100 176 229zM42 484l-49 3l64 178l70 -11z" />
<glyph unicode="&#x3ca;" horiz-adv-x="307" d="M278 61l8 -45c-23 -17 -58 -26 -88 -26c-87 0 -121 64 -121 162v328h58v-314c0 -79 23 -122 71 -122c22 0 50 8 72 17zM63 633c0 -26 -17 -44 -43 -44c-24 0 -44 15 -44 44c0 27 18 43 44 43c31 0 43 -21 43 -43zM236 633c0 -26 -16 -44 -42 -44c-24 0 -44 15 -44 44 c0 27 18 43 44 43c31 0 42 -21 42 -43z" />
<glyph unicode="&#x1e80;" horiz-adv-x="932" d="M660 119l195 601h59l-235 -720h-44l-169 539l-173 -539h-47l-228 720h65l192 -601l189 601h11zM502 818l-41 -31l-166 114l58 45z" />
<glyph horiz-adv-x="445" d="M157 -55l30 47c-45 1 -90 9 -134 27l13 61c35 -17 89 -33 132 -33c64 0 131 28 131 99c0 56 -53 83 -112 113c-75 37 -159 74 -159 160c0 92 70 150 185 150c46 0 87 -7 123 -21l-11 -59c-37 17 -70 24 -118 24c-70 0 -114 -23 -114 -81c0 -54 50 -82 106 -110 c77 -37 167 -72 167 -164c0 -96 -67 -150 -159 -162l-20 -30c29 -5 46 -26 46 -50c0 -41 -31 -65 -85 -65c-12 0 -26 2 -43 7l12 36c9 -2 21 -6 31 -6c12 0 28 7 28 23c0 19 -21 29 -49 34z" />
<glyph unicode="&#x3bd;" horiz-adv-x="477" d="M256 0h-39l-207 480h63l174 -408c69 109 135 267 161 408h59c-38 -154 -99 -314 -211 -480z" />
<glyph horiz-adv-x="571" d="M479 0l-82 198h-224l-85 -198h-67l243 562h50l236 -562h-71zM286 469l-91 -215h180zM206 664l-45 11c13 49 37 79 78 79c43 0 74 -42 98 -42c14 0 20 17 26 38l48 -9c-16 -56 -40 -84 -80 -84c-43 0 -67 44 -98 44c-10 0 -19 -16 -27 -37z" />
<glyph unicode="&#x13c;" horiz-adv-x="207" d="M132 733v-733h-58v733h58zM129 -67l-65 -163h-45l47 163h63z" />
<glyph horiz-adv-x="501" d="M91 6v548c43 10 103 15 146 15c106 0 181 -41 181 -130c0 -61 -36 -111 -91 -133l1 -3c75 -13 116 -74 116 -134c0 -72 -42 -177 -227 -177c-60 0 -96 7 -126 14zM154 261v-205c20 -5 44 -6 69 -6c95 0 153 38 153 108c0 71 -62 103 -155 103c-22 0 -37 1 -67 0zM154 506 v-190h35c84 0 167 41 167 112c0 65 -57 85 -134 85c-19 0 -52 -3 -68 -7zM263 702c0 -26 -18 -43 -42 -43c-23 0 -43 16 -43 43c0 26 18 44 43 44c27 0 42 -19 42 -44z" />
<glyph unicode="_" horiz-adv-x="419" d="M409 -34h-400v58h400v-58z" />
<glyph unicode="&#xcd;" horiz-adv-x="278" d="M171 720v-720h-64v720h64zM129 788l-38 30l149 128l57 -44z" />
<glyph horiz-adv-x="245" d="M154 562v-562h-63v562h63zM-13 484l-49 3l64 178l70 -11z" />
<glyph horiz-adv-x="577" d="M488 0h-166v-115h-65v115h-168v562h63v-508h273v508h63v-562z" />
<glyph unicode="&#x396;" horiz-adv-x="556" d="M146 58h360v-58h-457v14l348 648h-333v58h425v-18z" />
<glyph horiz-adv-x="618" d="M417 255h-214v55h214v-55zM305 -8c-178 0 -244 151 -244 285c0 174 105 292 252 292c149 0 244 -119 244 -284c0 -150 -88 -293 -252 -293zM313 48c109 0 176 100 176 229c0 115 -63 236 -184 236c-119 0 -176 -129 -176 -228c0 -124 58 -237 184 -237z" />
<glyph horiz-adv-x="556" d="M273 -8c-110 0 -186 50 -186 174v396h62v-377c0 -101 56 -137 132 -137c106 0 145 60 145 168v346h56v-376c0 -125 -78 -194 -209 -194zM203 640l-30 31l105 103l47 -45zM344 640l-31 30l127 104l48 -44z" />
<glyph unicode="*" horiz-adv-x="399" d="M238 730l-13 -127l113 53l22 -70l-120 -25l81 -95l-59 -42l-62 112l-64 -113l-58 42l84 94l-123 24l24 73l110 -54l-9 128h74z" />
<glyph horiz-adv-x="477" d="M359 458h-328v52h395v-27l-226 -632h-58z" />
<glyph unicode="&#x45a;" horiz-adv-x="738" d="M434 480v-158h89c118 0 183 -55 183 -152c0 -136 -93 -180 -224 -180c-32 0 -74 5 -106 11v219h-244v-220h-58v480h58v-208h244v208h58zM511 270h-77v-219c15 -4 41 -7 61 -7c78 0 148 19 148 119c0 74 -48 107 -132 107z" />
<glyph unicode="&#x459;" horiz-adv-x="731" d="M369 1v427h-208l-18 -226c-14 -159 -21 -212 -94 -212c-15 0 -28 1 -40 3l6 56c8 -3 18 -5 28 -5c31 0 36 56 42 132l23 304h319v-158h89c118 0 183 -55 183 -152c0 -136 -93 -180 -224 -180c-32 0 -74 5 -106 11zM504 270h-77v-219c15 -4 41 -7 61 -7 c78 0 148 19 148 119c0 74 -48 107 -132 107z" />
<glyph unicode="&#x454;" horiz-adv-x="443" d="M348 215h-236c0 -99 69 -171 170 -171c52 0 86 17 115 34l21 -47c-38 -27 -87 -41 -150 -41c-132 0 -219 92 -219 242s101 258 243 258c36 0 68 -5 98 -16l-12 -55c-23 10 -60 17 -100 17c-98 0 -158 -86 -166 -169h236v-52z" />
<glyph unicode="&#x456;" horiz-adv-x="207" d="M132 480v-480h-58v480h58zM146 625c0 -26 -17 -44 -43 -44c-24 0 -43 16 -43 44c0 26 17 44 43 44c30 0 43 -22 43 -44z" />
<glyph unicode="&#x178;" horiz-adv-x="584" d="M323 323v-323h-64v322l-233 398h74l195 -331l194 331h69zM234 862c0 -28 -21 -48 -47 -48c-27 0 -48 20 -48 48c0 25 21 46 48 46c26 0 47 -21 47 -46zM439 862c0 -28 -20 -48 -48 -48c-25 0 -46 20 -46 48c0 25 21 46 46 46c28 0 48 -21 48 -46z" />
<glyph unicode="&#x2088;" horiz-adv-x="382" d="M55 95c0 51 40 81 85 101c-40 20 -73 44 -73 87c0 60 59 100 134 100c66 0 125 -31 125 -90c0 -47 -38 -73 -81 -92c48 -20 93 -47 93 -98c0 -66 -65 -108 -144 -108c-75 0 -139 37 -139 100zM281 94c0 39 -47 60 -94 80c-41 -17 -75 -38 -75 -71c0 -41 44 -63 89 -63 c44 0 80 18 80 54zM124 292c0 -34 34 -53 75 -70c38 15 70 34 70 64c0 28 -27 52 -75 52c-36 0 -70 -17 -70 -46z" />
<glyph unicode="&#x134;" horiz-adv-x="398" d="M140 49c73 0 96 60 96 173v498h64v-481c0 -156 -31 -249 -177 -249c-33 0 -78 13 -103 27l16 57c30 -13 66 -25 104 -25zM384 789l-115 79l-118 -79l-31 40l152 113l144 -114z" />
<glyph horiz-adv-x="474" d="M154 227v-227h-63v554c41 8 95 15 151 15c124 0 192 -66 192 -155c0 -131 -117 -187 -250 -187h-30zM154 504v-224h43c90 0 169 42 169 120c0 77 -51 113 -132 113c-31 0 -61 -4 -80 -9z" />
<glyph unicode="!" horiz-adv-x="334" d="M147 191l-22 529h84l-21 -529h-41zM218 41c0 -28 -23 -51 -51 -51s-51 23 -51 51s23 51 51 51s51 -23 51 -51z" />
<glyph horiz-adv-x="589" d="M500 0h-63v261h-285v-261h-63v562h63v-246h285v246h63v-562z" />
<glyph unicode="0" horiz-adv-x="612" d="M69 343c0 174 37 387 242 387c181 0 233 -207 233 -373c0 -154 -46 -367 -244 -367c-164 0 -231 174 -231 353zM132 357c0 -146 48 -313 178 -313c137 0 171 170 171 299c0 151 -39 333 -180 333c-145 0 -169 -172 -169 -319z" />
<glyph horiz-adv-x="466" d="M154 506v-191h250v-56h-250v-205h262v-54h-325v562h321v-56h-258zM286 702c0 -26 -18 -43 -42 -43c-23 0 -43 16 -43 43c0 26 18 44 43 44c27 0 42 -19 42 -44z" />
<glyph d="M143 668v-241c24 7 63 12 101 12c167 0 251 -91 251 -211c0 -145 -110 -238 -263 -238c-74 0 -141 11 -171 32l12 60c37 -20 89 -38 173 -38c109 0 186 70 186 170c0 112 -82 171 -205 171c-38 0 -74 -8 -111 -19l-32 9v345h363v-52h-304z" />
<glyph unicode="&#xbf;" horiz-adv-x="550" d="M439 -153l12 -60c-42 -17 -95 -27 -142 -27c-131 0 -203 64 -203 157c0 178 200 217 200 382c0 7 0 16 -2 24h58c2 -13 3 -27 3 -39c1 -157 -188 -206 -188 -354c0 -70 50 -108 139 -108c48 0 88 11 123 25zM279 449c0 28 23 51 51 51s51 -23 51 -51s-23 -51 -51 -51 s-51 23 -51 51z" />
<glyph horiz-adv-x="499" d="M347 309v197c-20 3 -46 7 -77 7c-80 0 -128 -31 -128 -91c0 -66 63 -113 140 -113h65zM410 0h-63v255h-49c-88 0 -118 -25 -143 -106l-47 -149h-66l60 186c19 63 37 91 84 101c-55 12 -111 71 -111 144c0 92 77 138 186 138c50 0 97 -5 149 -13v-556z" />
<glyph unicode="&#x1fc;" horiz-adv-x="938" d="M569 662v-266h298v-58h-298v-280h312v-58h-375v270h-256l-180 -270h-71l494 720h383v-58h-307zM290 328h216v320zM694 788l-38 30l149 128l57 -44z" />
<glyph horiz-adv-x="445" d="M53 19l13 62c35 -18 82 -33 132 -33c65 0 131 27 131 98c0 56 -55 83 -113 112c-75 38 -160 73 -160 161c0 93 70 150 188 150c48 0 89 -8 122 -21l-11 -60c-38 17 -70 25 -118 25c-69 0 -113 -22 -113 -81c0 -58 51 -84 106 -110c66 -31 167 -63 167 -163 c0 -111 -92 -167 -205 -167c-51 0 -96 11 -139 27zM186 639l-33 30l124 105l50 -43z" />
<glyph unicode="&#x107;" horiz-adv-x="443" d="M399 80l19 -51c-51 -27 -99 -39 -150 -39c-137 0 -219 89 -219 249c0 146 103 251 237 251c36 0 75 -5 105 -16l-12 -55c-32 12 -67 17 -103 17c-99 0 -164 -82 -164 -192c0 -133 67 -200 172 -200c49 0 100 26 115 36zM255 551l-49 18l107 161l64 -29z" />
<glyph horiz-adv-x="445" d="M53 19l13 62c35 -18 82 -33 132 -33c65 0 131 27 131 98c0 56 -55 83 -113 112c-75 38 -160 73 -160 161c0 93 70 150 188 150c48 0 89 -8 122 -21l-11 -60c-38 17 -70 25 -118 25c-69 0 -113 -22 -113 -81c0 -58 51 -84 106 -110c66 -31 167 -63 167 -163 c0 -111 -92 -167 -205 -167c-51 0 -96 11 -139 27zM258 702c0 -26 -18 -43 -42 -43c-23 0 -43 16 -43 43c0 26 18 44 43 44c27 0 42 -19 42 -44z" />
<glyph horiz-adv-x="618" d="M557 285c0 -150 -88 -293 -251 -293c-179 0 -245 151 -245 285c0 174 106 292 253 292c148 0 243 -119 243 -284zM490 277c0 115 -63 236 -184 236c-120 0 -177 -129 -177 -228c0 -124 59 -237 185 -237c109 0 176 100 176 229zM289 639l-33 30l124 105l50 -43z" />
<glyph horiz-adv-x="245" d="M154 562v-562h-63v562h63zM67 704c0 -28 -21 -48 -47 -48c-27 0 -48 20 -48 48c0 25 21 46 48 46c26 0 47 -21 47 -46zM272 704c0 -28 -20 -48 -48 -48c-25 0 -46 20 -46 48c0 25 21 46 46 46c28 0 48 -21 48 -46z" />
<glyph unicode="&#x222b;" horiz-adv-x="349" d="M333 649c-18 6 -38 11 -64 11c-60 0 -64 -51 -64 -115v-591c0 -129 -70 -177 -134 -177c-16 0 -35 5 -57 9l6 65c18 -6 44 -11 67 -11c41 0 60 46 60 100v596c0 136 50 186 132 186c19 0 35 -3 56 -9z" />
<glyph horiz-adv-x="571" d="M479 0l-82 198h-224l-85 -198h-67l243 562h50l236 -562h-71zM286 469l-91 -215h180zM381 640l-95 64l-98 -64l-28 38l128 93l123 -93z" />
<glyph unicode="&#x102;" horiz-adv-x="687" d="M596 0l-110 270h-288l-112 -270h-64l308 720h35l300 -720h-69zM344 615l-119 -287h236zM202 933h54c8 -48 41 -76 90 -76c45 0 81 26 87 76h55c-8 -89 -76 -134 -147 -134c-74 0 -132 49 -139 134z" />
<glyph horiz-adv-x="264" d="M84 -109l-41 7c55 112 89 188 89 347c0 149 -20 234 -91 354l41 8c91 -127 117 -252 117 -360c0 -130 -44 -237 -115 -356z" />
<glyph horiz-adv-x="447" d="M55 211l6 38h55c26 79 97 134 198 134c35 0 68 -5 95 -14l-11 -51c-18 7 -54 16 -90 16c-64 0 -112 -35 -129 -85h198l-7 -38h-201v-21c0 -4 0 -15 1 -23h195l-7 -38h-180c14 -50 58 -85 123 -85c36 0 69 10 95 26l21 -44c-34 -20 -73 -31 -124 -31 c-103 0 -160 58 -180 134h-70l6 38h57v15c0 10 0 19 1 29h-52z" />
<glyph unicode="&#x203a;" horiz-adv-x="274" d="M151 285l-97 170l46 21l129 -191l-129 -196l-46 22z" />
<glyph horiz-adv-x="817" d="M436 2v504h-216l-28 -315c-12 -133 -32 -199 -151 -199c-6 0 -13 1 -19 2l9 57c9 -2 14 -3 23 -3c55 0 70 50 76 128l30 386h339v-233h61c154 0 218 -77 218 -156c0 -105 -62 -181 -231 -181c-31 0 -68 3 -111 10zM557 276h-58v-224c21 -3 43 -4 63 -4 c101 0 152 52 152 113c0 65 -52 115 -157 115z" />
<glyph unicode="&#x15c;" horiz-adv-x="537" d="M57 29l18 60c44 -22 106 -42 162 -42c93 0 176 37 176 135c0 158 -345 172 -345 366c0 116 94 182 223 182c69 0 120 -13 157 -30l-15 -60c-48 21 -105 32 -149 32c-88 0 -150 -35 -150 -111c0 -156 345 -175 345 -365c0 -143 -110 -206 -248 -206c-66 0 -133 18 -174 39 zM408 789l-115 79l-118 -79l-31 40l152 113l144 -114z" />
<glyph horiz-adv-x="556" d="M273 -8c-110 0 -186 50 -186 174v396h62v-377c0 -101 56 -137 132 -137c106 0 145 60 145 168v346h56v-376c0 -125 -78 -194 -209 -194zM240 702c0 -24 -19 -43 -43 -43c-23 0 -43 19 -43 43s20 43 43 43c24 0 43 -19 43 -43zM412 702c0 -24 -18 -43 -42 -43 s-42 19 -42 43s18 43 42 43s42 -19 42 -43z" />
<glyph unicode="&#x207a;" horiz-adv-x="394" d="M174 370v110h-120v44h120v111h47v-111h120v-44h-120v-110h-47z" />
<glyph horiz-adv-x="556" d="M273 -8c-110 0 -186 50 -186 174v396h62v-377c0 -101 56 -137 132 -137c106 0 145 60 145 168v346h56v-376c0 -125 -78 -194 -209 -194zM204 700c0 41 32 73 87 73c54 0 83 -27 83 -67c0 -51 -36 -73 -88 -73c-47 0 -82 25 -82 67zM252 706c0 -21 16 -37 38 -37 s34 13 34 32s-15 36 -37 36c-21 0 -35 -12 -35 -31z" />
<glyph horiz-adv-x="453" d="M124 511v-174c19 5 47 9 73 9c132 0 197 -71 197 -165c0 -117 -88 -189 -212 -189c-58 0 -107 9 -133 24l12 56c26 -15 72 -29 132 -29c82 0 139 50 139 127c0 80 -58 124 -149 124c-28 0 -56 -5 -83 -15l-31 10v273h289v-51h-234z" />
<glyph horiz-adv-x="572" d="M537 -115h-65v115h-383v562h63v-508h273v508h63v-508h49v-169z" />
<glyph horiz-adv-x="488" d="M357 0h-64v180h-255l-5 58l252 324h72v-332h93v-50h-93v-180zM89 230h204v264z" />
<glyph unicode="&#x179;" horiz-adv-x="556" d="M146 58h360v-58h-457v14l348 648h-333v58h425v-18zM259 788l-38 30l149 128l57 -44z" />
<glyph horiz-adv-x="571" d="M550 0h-71l-82 198h-226l-84 -198h-66l242 562h51zM374 254l-88 215l-90 -215h178z" />
<glyph unicode="&#x16b;" horiz-adv-x="523" d="M70 178v302h58v-286c0 -107 30 -150 106 -150c93 0 156 89 156 211v225h58v-480h-58v87c-27 -57 -90 -97 -166 -97c-102 0 -154 52 -154 188zM131 606v49h256v-49h-256z" />
<glyph d="M77 638l-18 52c41 20 115 40 189 40c144 0 207 -83 207 -188c0 -165 -211 -372 -332 -490h369v-52h-425v76c163 155 325 321 325 452c0 96 -57 148 -164 148c-52 0 -112 -18 -151 -38z" />
<glyph horiz-adv-x="618" d="M557 285c0 -150 -88 -293 -251 -293c-179 0 -245 151 -245 285c0 174 106 292 253 292c148 0 243 -119 243 -284zM490 277c0 115 -63 236 -184 236c-120 0 -177 -129 -177 -228c0 -124 59 -237 185 -237c109 0 176 100 176 229zM378 669l-37 -30l-139 91l51 44z" />
<glyph unicode="&#x17d;" horiz-adv-x="556" d="M146 58h360v-58h-457v14l348 648h-333v58h425v-18zM159 942l114 -79l118 79l32 -40l-153 -113l-143 114z" />
<glyph horiz-adv-x="556" d="M273 -8c-110 0 -186 50 -186 174v396h62v-377c0 -101 56 -137 132 -137c106 0 145 60 145 168v346h56v-376c0 -125 -78 -194 -209 -194zM276 639l-33 30l124 105l50 -43z" />
<glyph horiz-adv-x="557" d="M421 65v227h63v-264c-52 -24 -96 -36 -145 -36c-202 0 -278 131 -278 285c0 168 121 292 285 292c49 0 84 -7 122 -24l-12 -57c-36 15 -71 25 -119 25c-115 0 -208 -96 -208 -225c0 -151 77 -240 218 -240c30 0 57 8 74 17zM353 -39l-55 -140h-47l33 140h69z" />
<glyph unicode="&#xff;" horiz-adv-x="470" d="M212 8l-202 472h63l169 -395l167 395h59l-202 -480l-98 -230h-56zM190 633c0 -26 -17 -44 -43 -44c-24 0 -44 15 -44 44c0 27 18 43 44 43c31 0 43 -21 43 -43zM363 633c0 -26 -16 -44 -42 -44c-24 0 -44 15 -44 44c0 27 18 43 44 43c31 0 42 -21 42 -43z" />
<glyph unicode="&#x125;" horiz-adv-x="526" d="M456 308v-308h-58v290c0 93 -30 146 -113 146c-92 0 -153 -94 -153 -191v-245h-58v730h58v-334c33 59 95 94 163 94c103 0 161 -56 161 -182zM221 789l-115 79l-118 -79l-31 40l152 113l144 -114z" />
<glyph horiz-adv-x="556" d="M273 -8c-110 0 -186 50 -186 174v396h62v-377c0 -101 56 -137 132 -137c106 0 145 60 145 168v346h56v-376c0 -125 -78 -194 -209 -194z" />
<glyph unicode="&#x14e;" horiz-adv-x="757" d="M684 366c0 -188 -107 -376 -311 -376c-224 0 -301 199 -301 367c0 208 120 373 311 373c182 0 301 -152 301 -364zM616 356c0 179 -94 315 -243 315c-140 0 -233 -135 -233 -305c0 -142 61 -317 243 -317c155 0 233 153 233 307zM233 933h54c8 -48 41 -76 90 -76 c45 0 81 26 87 76h55c-8 -89 -76 -134 -147 -134c-74 0 -132 49 -139 134z" />
<glyph unicode="&#x219;" horiz-adv-x="412" d="M326 413c-27 11 -74 23 -119 23c-55 0 -95 -26 -95 -62c0 -102 257 -91 257 -240c0 -93 -89 -144 -182 -144c-55 0 -103 12 -140 29l15 60c30 -18 86 -35 135 -35c54 0 109 30 109 78c0 111 -257 95 -257 240c0 79 75 128 167 128c52 0 92 -10 123 -24zM225 -67l-65 -163 h-45l47 163h63z" />
<glyph horiz-adv-x="245" d="M154 562v-562h-63v562h63zM42 664l-45 11c13 49 37 79 78 79c43 0 74 -42 98 -42c14 0 20 17 26 38l48 -9c-16 -56 -40 -84 -80 -84c-43 0 -67 44 -98 44c-10 0 -19 -16 -27 -37z" />
<glyph unicode="&#x2211;" horiz-adv-x="566" d="M29 50l276 305l-276 311v54h485v-65h-376l262 -297l-270 -294h416v-64h-517v50z" />
<glyph horiz-adv-x="587" d="M114 -146l9 58c33 -14 80 -25 126 -25c126 0 180 104 197 214c1 18 4 41 11 62l-2 1c-6 -10 -19 -26 -35 -41c-37 -30 -92 -45 -150 -45c-128 0 -206 84 -206 207c0 137 101 227 235 227c144 0 219 -107 219 -258c0 -220 -63 -421 -283 -421c-47 0 -93 8 -121 21z M127 298c0 -93 58 -168 152 -168c99 0 172 70 172 155c0 93 -56 173 -170 173c-84 0 -154 -64 -154 -160z" />
<glyph horiz-adv-x="466" d="M154 506v-191h250v-56h-250v-205h262v-54h-325v562h321v-56h-258z" />
<glyph horiz-adv-x="556" d="M273 -8c-110 0 -186 50 -186 174v396h62v-377c0 -101 56 -137 132 -137c106 0 145 60 145 168v346h56v-376c0 -125 -78 -194 -209 -194zM380 640l-95 64l-98 -64l-28 38l128 93l123 -93z" />
<glyph unicode="&#xec;" horiz-adv-x="207" d="M133 569l-50 -18l-121 150l63 29zM132 480v-480h-58v480h58z" />
<glyph unicode="&#xee;" horiz-adv-x="207" d="M132 480v-480h-58v480h58zM217 559l-113 88l-115 -88l-31 38l149 129l142 -127z" />
<glyph unicode="&#x159;" horiz-adv-x="336" d="M322 419c-16 7 -40 11 -62 11c-88 0 -128 -84 -128 -193v-237h-58v480h58v-73c25 57 85 83 140 83c28 0 44 -3 60 -9zM71 725l113 -89l116 89l31 -39l-149 -128l-142 127z" />
<glyph d="M56 168c0 109 70 171 151 207c-71 42 -131 91 -131 178c0 104 93 177 216 177c102 0 202 -56 202 -165c0 -101 -74 -156 -152 -193c87 -43 171 -96 171 -193c0 -124 -104 -189 -232 -189c-122 0 -225 71 -225 178zM450 166c0 85 -90 131 -180 176 c-83 -35 -151 -82 -151 -156c0 -97 86 -142 173 -142s158 35 158 122zM138 566c0 -79 66 -122 144 -162c78 31 149 74 149 144c0 74 -54 128 -150 128c-69 0 -143 -41 -143 -110z" />
<glyph horiz-adv-x="372" d="M329 187h-275v45h275v-45zM329 73h-275v45h275v-45z" />
<glyph unicode="&#x111;" horiz-adv-x="547" d="M264 583v53h141v97h59v-97h66v-53h-66v-583h-59v71c-31 -42 -85 -81 -175 -81c-108 0 -181 87 -181 226c0 153 89 274 254 274c33 0 73 -5 102 -14v107h-141zM405 211v197c-33 18 -79 28 -119 28c-114 0 -174 -87 -174 -206c0 -105 44 -186 125 -186c82 0 168 81 168 167 z" />
<glyph unicode="&#xe8;" horiz-adv-x="493" d="M405 86l19 -49c-33 -25 -105 -47 -162 -47c-134 0 -213 86 -213 247c0 136 74 253 220 253c106 0 173 -77 173 -194c0 -27 -4 -48 -7 -61h-323c2 -116 51 -191 160 -191c48 0 90 14 133 42zM118 287h261c3 88 -45 149 -121 149c-91 0 -136 -82 -140 -149zM302 569 l-50 -18l-121 150l63 29z" />
<glyph unicode="&#xd1;" horiz-adv-x="714" d="M551 0l-387 611v-611h-57v720h56l385 -605v605h57v-720h-54zM268 821l-50 11c15 58 46 89 90 89c49 0 91 -52 119 -52c14 0 22 19 30 45l53 -9c-20 -65 -47 -93 -90 -93c-52 0 -83 52 -119 52c-11 0 -23 -18 -33 -43z" />
<glyph unicode="&#x2212;" horiz-adv-x="590" d="M526 276h-462v57h462v-57z" />
<glyph unicode="&#x152;" horiz-adv-x="938" d="M558 662v-266h316v-58h-316v-280h330v-58h-407c-29 -7 -61 -10 -102 -10c-224 0 -308 202 -308 367c0 224 143 373 318 373c40 0 72 -4 100 -10h394v-58h-325zM389 49c38 0 74 4 105 12v595c-34 9 -74 15 -115 15c-156 0 -240 -174 -240 -305c0 -164 83 -317 250 -317z " />
<glyph horiz-adv-x="444" d="M126 0h-71l128 230l-173 332h64l145 -270l151 270h66z" />
<glyph unicode="&#xfb03;" horiz-adv-x="764" d="M578 722l-12 -50c-14 2 -29 4 -48 4c-58 0 -76 -41 -76 -116v-80h247v-480h-58v428h-189v-428h-58v428h-208v-428h-58v428h-94v52h94v60c0 106 34 179 151 179c16 0 40 -3 57 -11l-7 -52c-17 5 -45 10 -66 10c-63 0 -77 -43 -77 -116v-70h208v68c0 112 43 182 145 182 c19 0 32 -2 49 -8zM703 625c0 -26 -16 -44 -43 -44c-23 0 -43 16 -43 44c0 27 18 44 43 44c31 0 43 -22 43 -44z" />
<glyph horiz-adv-x="592" d="M442 0l-293 452v-452h-58v562h62l291 -449v449h58v-562h-60z" />
<glyph horiz-adv-x="507" d="M406 552l-12 -56c-27 12 -64 22 -102 22c-97 0 -141 -82 -156 -170c-1 -15 -4 -36 -9 -52l2 -1c5 7 14 20 28 33c29 24 71 36 116 36c106 0 171 -72 171 -178c0 -116 -82 -194 -195 -194c-130 0 -182 109 -182 224c0 185 53 354 235 354c40 0 79 -8 104 -18zM382 174 c0 78 -46 138 -119 138c-76 0 -131 -57 -131 -126c0 -77 43 -142 130 -142c66 0 120 54 120 130z" />
<glyph horiz-adv-x="618" d="M557 285c0 -150 -88 -293 -251 -293c-179 0 -245 151 -245 285c0 174 106 292 253 292c148 0 243 -119 243 -284zM490 277c0 115 -63 236 -184 236c-120 0 -177 -129 -177 -228c0 -124 59 -237 185 -237c109 0 176 100 176 229zM201 680v52h219v-52h-219z" />
<glyph unicode="&#x143;" horiz-adv-x="714" d="M551 0l-387 611v-611h-57v720h56l385 -605v605h57v-720h-54zM361 788l-38 30l149 128l57 -44z" />
<glyph unicode="&#x15a;" horiz-adv-x="537" d="M57 29l18 60c44 -22 106 -42 162 -42c93 0 176 37 176 135c0 158 -345 172 -345 366c0 116 94 182 223 182c69 0 120 -13 157 -30l-15 -60c-48 21 -105 32 -149 32c-88 0 -150 -35 -150 -111c0 -156 345 -175 345 -365c0 -143 -110 -206 -248 -206c-66 0 -133 18 -174 39 zM251 788l-38 30l149 128l57 -44z" />
<glyph d="M411 459h-340v51h408v-27l-235 -632h-58z" />
<glyph unicode="&#xf8;" horiz-adv-x="550" d="M454 543l47 -31c-26 -37 -46 -64 -62 -88c41 -45 62 -110 62 -178c0 -153 -104 -256 -234 -256c-42 0 -83 11 -117 30c-16 -21 -34 -46 -53 -73l-46 29l58 81c-37 41 -60 99 -60 176c0 143 89 257 236 257c42 0 80 -11 111 -30zM434 233c0 53 -9 102 -31 140 c-45 -62 -94 -133 -217 -301c27 -16 61 -25 99 -25c96 0 149 89 149 186zM117 246c0 -56 9 -103 28 -136l215 298c-24 17 -55 25 -93 25c-96 0 -150 -87 -150 -187z" />
<glyph horiz-adv-x="379" d="M321 342h-234l-4 31c19 20 36 47 36 91c0 15 -3 31 -5 49h-63v45h56c-1 12 -2 25 -2 37c0 81 40 130 143 130c27 0 57 -5 74 -11l-10 -47c-18 6 -46 12 -73 12c-60 0 -75 -25 -75 -76c0 -14 1 -29 3 -45h104v-45h-97c2 -14 3 -27 3 -39c0 -35 -10 -67 -26 -88h170v-44z " />
<glyph d="M51 343c0 161 31 387 239 387c179 0 229 -207 229 -373c0 -154 -45 -367 -241 -367c-162 0 -227 174 -227 353zM114 357c0 -146 46 -313 175 -313c135 0 167 170 167 299c0 151 -37 333 -176 333c-142 0 -166 -172 -166 -319z" />
<glyph unicode="&#x394;" horiz-adv-x="699" d="M658 0h-617v45l289 675h47l281 -675v-45zM351 621l-235 -561h464z" />
<glyph unicode="&#x2206;" horiz-adv-x="699" d="M658 0h-617v45l289 675h47l281 -675v-45zM351 621l-235 -561h464z" />
<glyph unicode="&#x39d;" horiz-adv-x="714" d="M551 0l-387 611v-611h-57v720h56l385 -605v605h57v-720h-54z" />
<glyph horiz-adv-x="456" d="M407 0h-358v54h358v-54zM407 506h-358v56h358v-56zM340 253h-224v53h224v-53z" />
<glyph unicode="&#x168;" horiz-adv-x="672" d="M335 -10c-154 0 -231 80 -231 250v480h64v-458c0 -149 52 -213 179 -213c95 0 182 57 182 198v473h58v-459c0 -196 -108 -271 -252 -271zM246 821l-50 11c15 58 46 89 90 89c49 0 91 -52 119 -52c14 0 22 19 30 45l53 -9c-20 -65 -47 -93 -90 -93c-52 0 -83 52 -119 52 c-11 0 -23 -18 -33 -43z" />
<glyph unicode="&#x12a;" horiz-adv-x="278" d="M171 720v-720h-64v720h64zM7 841v51h263v-51h-263z" />
<glyph horiz-adv-x="384" d="M174 28v110h-120v44h120v111h47v-111h120v-44h-120v-110h-47z" />
<glyph unicode="&#x154;" horiz-adv-x="600" d="M551 0h-66l-61 192c-35 112 -72 143 -189 143h-67v-335h-61v713c67 11 120 17 181 17c134 0 223 -59 223 -176c0 -101 -79 -178 -140 -187c56 -13 80 -53 103 -126zM168 661v-270h89c119 0 188 71 188 154c0 82 -63 127 -170 127c-44 0 -79 -6 -107 -11zM270 788l-38 30 l149 128l57 -44z" />
<glyph horiz-adv-x="243" d="M195 -101c-16 -20 -45 -41 -79 -41c-32 0 -67 20 -67 64c0 30 21 61 42 78v562h62v-562c-29 -17 -44 -47 -44 -72c0 -13 7 -22 21 -22c15 0 30 10 40 21z" />
<glyph unicode="&#xe4;" horiz-adv-x="486" d="M416 0h-58v37c0 18 1 37 4 52l-2 1c-8 -16 -18 -29 -32 -42c-39 -36 -88 -58 -147 -58c-79 0 -137 45 -137 120c0 138 158 179 314 187v33c0 75 -30 106 -109 106c-52 0 -113 -15 -154 -39l-12 57c48 21 103 36 172 36c112 0 161 -47 161 -136v-354zM357 245 c-116 -2 -250 -33 -250 -120c0 -50 35 -81 86 -81c76 0 164 68 164 170v31zM206 633c0 -26 -17 -44 -43 -44c-24 0 -44 15 -44 44c0 27 18 43 44 43c31 0 43 -21 43 -43zM379 633c0 -26 -16 -44 -42 -44c-24 0 -44 15 -44 44c0 27 18 43 44 43c31 0 42 -21 42 -43z" />
<glyph unicode="&#x11c;" horiz-adv-x="700" d="M614 395v-361c-37 -23 -107 -44 -180 -44c-266 0 -362 174 -362 367c0 218 163 373 366 373c60 0 108 -10 158 -31l-16 -60c-48 20 -91 32 -152 32c-156 0 -288 -129 -288 -300c0 -177 79 -322 305 -322c42 0 80 8 105 21v267h-150v58h214zM527 789l-115 79l-118 -79 l-31 40l152 113l144 -114z" />
<glyph unicode="&#x2039;" horiz-adv-x="274" d="M123 280l96 -170l-45 -21l-130 191l130 196l46 -23z" />
<glyph unicode="&#x3b2;" horiz-adv-x="545" d="M132 -220h-58v656c0 176 52 294 225 294c100 0 169 -66 169 -153c0 -69 -32 -151 -98 -193c74 -17 128 -79 128 -176c0 -138 -98 -218 -222 -218c-49 0 -91 11 -144 30v-240zM264 349h-63v52h63c90 0 141 86 141 155c0 76 -47 120 -123 120c-121 0 -150 -98 -150 -218 v-377c51 -24 119 -37 157 -37c82 0 146 58 146 147c0 76 -44 158 -171 158z" />
<glyph horiz-adv-x="474" d="M154 0h-63v562h62v-100c29 2 59 5 89 5c124 0 192 -67 192 -155c0 -131 -117 -188 -250 -188h-30v-124zM154 403v-226h43c90 0 169 43 169 122c0 76 -51 112 -132 112c-32 0 -61 -5 -80 -8z" />
<glyph horiz-adv-x="571" d="M550 0h-71l-193 469l-199 -469h-66l242 562h51z" />
<glyph horiz-adv-x="764" d="M560 0h-50l-129 397l-130 -397h-51l-179 562h66l143 -445l144 445h25l140 -445l147 445h57zM426 669l-37 -30l-139 91l51 44z" />
<glyph horiz-adv-x="501" d="M459 0h-66l-47 149c-27 80 -55 106 -143 106h-49v-255h-63v556c51 8 98 13 149 13c108 0 186 -46 186 -138c0 -73 -56 -132 -112 -144c48 -10 66 -38 86 -101zM154 506v-197h65c76 0 140 47 140 113c0 60 -48 91 -128 91c-32 0 -57 -4 -77 -7z" />
<glyph horiz-adv-x="764" d="M560 0h-50l-129 397l-130 -397h-51l-179 562h66l143 -445l144 445h25l140 -445l147 445h57z" />
<glyph unicode="&#xe6;" horiz-adv-x="803" d="M715 86l19 -49c-33 -25 -105 -47 -162 -47c-93 0 -159 43 -191 119c-41 -74 -113 -119 -200 -119c-80 0 -137 49 -137 116c0 142 158 183 314 191v33c0 75 -30 106 -109 106c-52 0 -113 -15 -154 -39l-12 57c48 21 103 36 172 36c87 0 136 -29 153 -83 c37 50 94 83 171 83c106 0 173 -77 173 -194c0 -27 -4 -48 -7 -61h-323c2 -116 51 -191 160 -191c48 0 90 14 133 42zM357 245c-116 -2 -250 -33 -250 -120c0 -50 35 -81 83 -81c91 0 167 80 167 185v16zM428 287h261c3 88 -45 149 -121 149c-91 0 -136 -82 -140 -149z" />
<glyph unicode="&#x2086;" horiz-adv-x="378" d="M311 370l-11 -46c-19 7 -45 12 -76 12c-76 0 -104 -64 -112 -126l1 -1c20 25 53 40 97 40c79 0 127 -51 127 -122c0 -78 -60 -132 -145 -132c-97 0 -137 71 -137 160c0 120 42 228 177 228c32 0 60 -5 79 -13zM278 118c0 48 -27 84 -78 84c-50 0 -86 -35 -86 -75 c0 -48 31 -86 84 -86c47 0 80 33 80 77z" />
<glyph unicode="2" horiz-adv-x="524" d="M57 638l-19 52c51 24 114 40 179 40c140 0 211 -77 211 -188c0 -169 -197 -362 -321 -490h357v-52h-417v76c126 117 318 319 318 452c0 86 -55 148 -160 148c-51 0 -109 -18 -148 -38z" />
<glyph unicode="3" horiz-adv-x="557" d="M190 348h-39v52h54c101 0 185 67 185 154c0 75 -63 122 -161 122c-55 0 -99 -14 -143 -36l-13 53c47 24 102 37 170 37c132 0 210 -74 210 -161c0 -101 -53 -160 -122 -183c79 -20 149 -77 149 -168c0 -138 -100 -228 -249 -228c-70 0 -124 10 -174 30l15 55 c51 -22 113 -31 171 -31c100 0 174 68 174 159c0 94 -77 145 -227 145z" />
<glyph unicode="&#x3c1;" horiz-adv-x="558" d="M126 -220h-58v453c0 151 80 257 227 257c137 0 215 -115 215 -244c0 -134 -79 -256 -238 -256c-58 0 -101 11 -146 33v-243zM126 246v-162c45 -24 103 -40 157 -40c103 0 164 91 164 189c0 115 -50 203 -170 203c-98 0 -151 -89 -151 -190z" />
<glyph horiz-adv-x="574" d="M501 311v-282c-56 -24 -99 -37 -150 -37c-212 0 -290 130 -290 285c0 167 126 292 296 292c52 0 88 -7 128 -24l-13 -57c-36 15 -75 25 -123 25c-122 0 -220 -96 -220 -225c0 -152 82 -240 230 -240c32 0 61 7 79 17v190h-116v56h179z" />
<glyph horiz-adv-x="673" d="M368 0h-63v81c-154 13 -238 93 -238 187v294h63v-278c0 -65 49 -136 175 -146v424h63v-425c131 10 175 81 175 149v276h63v-277c0 -93 -78 -194 -238 -204v-81z" />
<glyph horiz-adv-x="618" d="M557 285c0 -150 -88 -293 -251 -293c-179 0 -245 151 -245 285c0 174 106 292 253 292c148 0 243 -119 243 -284zM490 277c0 115 -63 236 -184 236c-120 0 -177 -129 -177 -228c0 -124 59 -237 185 -237c109 0 176 100 176 229zM405 640l-95 64l-98 -64l-28 38l128 93 l123 -93z" />
<glyph horiz-adv-x="523" d="M464 88l23 -47c-33 -26 -86 -49 -158 -49c-168 0 -268 112 -268 277c0 169 112 300 284 300c52 0 89 -6 125 -24l-12 -57c-29 13 -73 25 -121 25c-131 0 -208 -112 -208 -227c0 -130 64 -238 210 -238c41 0 90 15 125 40z" />
<glyph horiz-adv-x="439" d="M152 0h-63v562h309v-56h-246v-506z" />
<glyph unicode="&#x120;" horiz-adv-x="700" d="M614 395v-361c-37 -23 -107 -44 -180 -44c-266 0 -362 174 -362 367c0 218 163 373 366 373c60 0 108 -10 158 -31l-16 -60c-48 20 -91 32 -152 32c-156 0 -288 -129 -288 -300c0 -177 79 -322 305 -322c42 0 80 8 105 21v267h-150v58h214zM462 859 c0 -26 -17 -44 -44 -44c-24 0 -46 16 -46 44s20 46 46 46c31 0 44 -22 44 -46z" />
<glyph unicode="&#x116;" horiz-adv-x="564" d="M171 662v-266h323v-58h-323v-280h337v-58h-401v720h396v-58h-332zM356 859c0 -26 -17 -44 -44 -44c-24 0 -46 16 -46 44s20 46 46 46c31 0 44 -22 44 -46z" />
<glyph horiz-adv-x="507" d="M154 320l230 242h79l-251 -260l277 -302h-89l-246 275v-275h-63v562h63v-242zM279 -39l-55 -140h-47l33 140h69z" />
<glyph horiz-adv-x="474" d="M154 227v-227h-63v554c41 8 95 15 151 15c124 0 192 -66 192 -155c0 -131 -117 -187 -250 -187h-30zM154 504v-224h43c90 0 169 42 169 120c0 77 -51 113 -132 113c-31 0 -61 -4 -80 -9z" />
<glyph unicode="4" horiz-adv-x="594" d="M431 0h-58v240h-330l-5 64l327 416h66v-428h119v-52h-119v-240zM95 292h278v356z" />
<glyph horiz-adv-x="437" d="M153 54h244v-54h-306v562h62v-508z" />
<glyph unicode="}" horiz-adv-x="360" d="M141 484v151c0 94 -48 103 -82 109l2 41c102 -14 144 -68 144 -176v-123c0 -94 14 -112 78 -152v-28c-74 -45 -78 -66 -78 -152v-123c0 -98 -33 -158 -144 -176l-2 44c67 10 82 49 82 119v138c0 76 13 118 77 164c-59 43 -77 81 -77 164z" />
<glyph horiz-adv-x="637" d="M576 0h-57v191c0 69 -28 109 -102 109c-81 0 -137 -66 -137 -137v-163h-63v508h-191v54h450v-54h-196v-218c29 39 85 61 143 61c98 0 153 -45 153 -145v-206z" />
<glyph horiz-adv-x="640" d="M605 49v-49h-238v58c78 26 148 126 148 227c0 122 -75 228 -199 228c-129 0 -191 -107 -191 -221c0 -91 69 -199 145 -230v-62h-229v49h156c-76 39 -138 150 -138 236c0 178 114 284 264 284c159 0 259 -107 259 -277c0 -85 -51 -188 -136 -243h159z" />
<glyph unicode="&#xcb;" horiz-adv-x="564" d="M171 662v-266h323v-58h-323v-280h337v-58h-401v720h396v-58h-332zM248 862c0 -28 -21 -48 -47 -48c-27 0 -48 20 -48 48c0 25 21 46 48 46c26 0 47 -21 47 -46zM453 862c0 -28 -20 -48 -48 -48c-25 0 -46 20 -46 48c0 25 21 46 46 46c28 0 48 -21 48 -46z" />
<glyph unicode="&#x388;" horiz-adv-x="564" d="M171 662v-266h323v-58h-323v-280h337v-58h-401v720h396v-58h-332zM-9 642l-49 3l64 178l70 -11z" />
<glyph unicode="&#x145;" horiz-adv-x="714" d="M551 0l-387 611v-611h-57v720h56l385 -605v605h57v-720h-54zM361 -67l-65 -163h-45l47 163h63z" />
<glyph horiz-adv-x="759" d="M469 506v-191h230v-56h-230v-205h242v-54h-306v199h-201l-134 -199h-68l388 562h317v-56h-238zM243 254h162v240zM469 639l-33 30l124 105l50 -43z" />
<glyph horiz-adv-x="523" d="M394 259h-273v56h273c-12 103 -88 198 -207 198c-49 0 -93 -12 -121 -25l-13 57c32 12 80 24 149 24c153 0 260 -131 260 -287c0 -178 -99 -290 -268 -290c-72 0 -128 17 -160 42l25 54c35 -25 84 -40 152 -40c110 0 184 88 183 211z" />
<glyph horiz-adv-x="480" d="M271 258v-258h-63v245l-186 317h74l144 -244l150 244h67zM-51 484l-49 3l64 178l70 -11z" />
<glyph unicode="&#xaa;" horiz-adv-x="406" d="M347 348h-60v20c0 19 2 32 1 40l-2 1c-4 -7 -10 -15 -16 -21c-32 -35 -74 -48 -109 -48c-65 0 -112 35 -112 92c0 112 119 144 239 150v22c0 52 -24 72 -79 72c-40 0 -89 -14 -120 -32l-7 59c24 11 73 27 133 27c91 0 132 -36 132 -113v-269zM168 394 c58 0 119 54 119 120v14c-90 -2 -174 -27 -174 -84c0 -34 20 -50 55 -50z" />
<glyph horiz-adv-x="676" d="M590 371v-337c-37 -23 -108 -44 -172 -44c-266 0 -346 174 -346 367c0 218 147 373 350 373c60 0 99 -9 149 -30l-16 -60c-48 20 -82 31 -143 31c-156 0 -272 -129 -272 -300c0 -177 63 -322 289 -322c37 0 72 8 97 21v301h64zM265 933h54c8 -48 41 -76 90 -76 c45 0 81 26 87 76h55c-8 -89 -76 -134 -147 -134c-74 0 -132 49 -139 134z" />
<glyph unicode="&#x39a;" horiz-adv-x="606" d="M171 408l301 312h83l-326 -332l361 -388h-90l-329 359v-359h-64v720h64v-312z" />
<glyph unicode="&#x110;" horiz-adv-x="734" d="M41 341v58h106v312c67 14 131 19 182 19c210 0 339 -152 339 -354c0 -219 -129 -386 -353 -386c-49 0 -133 8 -168 21v330h-106zM210 659v-260h197v-58h-197v-280c27 -8 74 -12 119 -12c160 0 271 126 271 305c0 167 -90 317 -284 317c-35 0 -78 -7 -106 -12z" />
<glyph horiz-adv-x="437" d="M153 54h244v-54h-306v562h62v-508zM265 -39l-55 -140h-47l33 140h69z" />
<glyph unicode="&#x147;" horiz-adv-x="714" d="M551 0l-387 611v-611h-57v720h56l385 -605v605h57v-720h-54zM249 942l114 -79l118 79l32 -40l-153 -113l-143 114z" />
<glyph horiz-adv-x="556" d="M273 -8c-110 0 -186 50 -186 174v396h62v-377c0 -101 56 -137 132 -137c106 0 145 60 145 168v346h56v-376c0 -125 -78 -194 -209 -194zM208 664l-45 11c13 49 37 79 78 79c43 0 74 -42 98 -42c14 0 20 17 26 38l48 -9c-16 -56 -40 -84 -80 -84c-43 0 -67 44 -98 44 c-10 0 -19 -16 -27 -37z" />
<glyph unicode="&#x11a;" horiz-adv-x="564" d="M171 662v-266h323v-58h-323v-280h337v-58h-401v720h396v-58h-332zM194 942l114 -79l118 79l32 -40l-153 -113l-143 114z" />
<glyph unicode="&#x128;" horiz-adv-x="278" d="M171 720v-720h-64v720h64zM43 821l-50 11c15 58 46 89 90 89c49 0 91 -52 119 -52c14 0 22 19 30 45l53 -9c-20 -65 -47 -93 -90 -93c-52 0 -83 52 -119 52c-11 0 -23 -18 -33 -43z" />
<glyph unicode="&#x140;" horiz-adv-x="336" d="M132 733v-733h-58v733h58zM313 394c0 -28 -22 -50 -50 -50c-27 0 -49 22 -49 50c0 27 22 49 49 49c28 0 50 -22 50 -49z" />
<glyph unicode="&#x14d;" horiz-adv-x="549" d="M499 246c0 -145 -86 -256 -233 -256c-120 0 -217 83 -217 243c0 146 85 257 236 257c134 0 214 -104 214 -244zM436 233c0 122 -59 203 -170 203c-98 0 -154 -89 -154 -190c0 -134 67 -202 173 -202c93 0 151 88 151 189zM146 606v49h256v-49h-256z" />
<glyph horiz-adv-x="574" d="M501 311v-282c-56 -24 -99 -37 -150 -37c-212 0 -290 130 -290 285c0 167 126 292 296 292c52 0 88 -7 128 -24l-13 -57c-36 15 -75 25 -123 25c-122 0 -220 -96 -220 -225c0 -152 82 -240 230 -240c32 0 61 7 79 17v190h-116v56h179zM371 702c0 -26 -18 -43 -42 -43 c-23 0 -43 16 -43 43c0 26 18 44 43 44c27 0 42 -19 42 -44z" />
<glyph unicode="&#x3a1;" horiz-adv-x="568" d="M171 295v-295h-64v710c58 11 125 20 185 20c156 0 232 -93 232 -196c0 -170 -135 -239 -314 -239h-39zM171 659v-306h56c132 0 229 52 229 163c0 97 -55 155 -176 155c-45 0 -83 -6 -109 -12z" />
<glyph unicode="&#x2260;" horiz-adv-x="593" d="M545 190h-246l-50 -190h-58l50 190h-177v57h192l39 145h-231v57h246l48 181h57l-48 -181h178v-57h-193l-38 -145h231v-57z" />
<glyph unicode="&#x39c;" horiz-adv-x="910" d="M822 0l-61 -1l-58 623l-223 -583h-46l-239 587l-55 -626h-58l65 720h75l235 -586l228 586h71z" />
<glyph unicode="&#x141;" horiz-adv-x="555" d="M201 58h312v-58h-376v309l-80 -49l-30 45l110 68v347h64v-307l112 69l27 -48l-139 -85v-291z" />
<glyph horiz-adv-x="326" d="M127 378v107c0 75 -38 82 -66 85l7 42c82 -11 119 -53 119 -137v-95c0 -72 11 -89 62 -117v-27c-59 -30 -62 -50 -62 -117v-95c0 -76 -30 -123 -119 -137l-7 42c53 8 66 38 66 93v100c0 59 10 92 62 128c-48 33 -62 63 -62 128z" />
<glyph horiz-adv-x="618" d="M557 285c0 -136 -71 -262 -202 -289c44 -15 107 -80 140 -112l-80 -20l-130 129c-162 11 -224 155 -224 284c0 174 106 292 253 292c148 0 243 -119 243 -284zM490 277c0 115 -63 236 -184 236c-120 0 -177 -129 -177 -228c0 -124 59 -237 185 -237 c109 0 176 100 176 229z" />
<glyph horiz-adv-x="587" d="M154 562v-562h-63v562h63zM367 48c55 0 76 50 76 128v386h62v-374c0 -126 -32 -196 -150 -196c-26 0 -56 8 -80 19l10 54c27 -12 58 -17 82 -17z" />
<glyph unicode="&#x41b;" horiz-adv-x="720" d="M612 0h-64v662h-290l-36 -411c-15 -171 -32 -261 -178 -261c-6 0 -15 1 -21 2l10 61c11 -3 18 -4 28 -4c70 0 87 61 97 173l44 498h410v-720z" />
<glyph unicode="&#x166;" horiz-adv-x="590" d="M327 665v-248h126v-55h-126v-362h-64v362h-139v55h139v248h-234v55h533v-55h-235z" />
<glyph horiz-adv-x="571" d="M479 0l-82 198h-224l-85 -198h-67l243 562h50l236 -562h-71zM286 469l-91 -215h180z" />
<glyph horiz-adv-x="585" d="M444 19c-46 -15 -119 -27 -187 -27c-99 0 -197 39 -197 148c0 76 46 144 132 159c-58 19 -106 58 -106 122c0 85 79 148 196 148c40 0 70 -7 92 -13l-12 -59c-28 11 -61 15 -93 15c-53 0 -120 -23 -120 -81c0 -76 86 -105 170 -105h66v66l59 11v-77h97v-58h-97v-249z M270 47c44 0 82 5 115 16v205h-69c-117 0 -187 -39 -187 -120c0 -68 57 -101 141 -101z" />
<glyph d="M77 0v52h199v614l-182 -36l-8 51l223 44h25v-673h173v-52h-430z" />
<glyph unicode="&#x109;" horiz-adv-x="443" d="M399 80l19 -51c-51 -27 -99 -39 -150 -39c-137 0 -219 89 -219 249c0 146 103 251 237 251c36 0 75 -5 105 -16l-12 -55c-32 12 -67 17 -103 17c-99 0 -164 -82 -164 -192c0 -133 67 -200 172 -200c49 0 100 26 115 36zM382 559l-113 88l-115 -88l-31 38l149 129 l142 -127z" />
<glyph unicode="&#x38a;" horiz-adv-x="278" d="M171 720v-720h-64v720h64zM-9 642l-49 3l64 178l70 -11z" />
<glyph unicode="&#x442;" horiz-adv-x="393" d="M226 0h-58v428h-144v52h345v-52h-143v-428z" />
<glyph unicode="&#x443;" horiz-adv-x="470" d="M146 -230h-61l111 251l-186 459h63l155 -386l171 386h61z" />
<glyph unicode="&#xbd;" horiz-adv-x="768" d="M144 -48l-50 29l468 783l49 -26zM191 342h-57v325l-94 -18l-6 46l142 27h15v-380zM484 318l-13 44c32 13 70 21 106 21c84 0 133 -36 133 -105c0 -86 -104 -176 -172 -234h190v-44h-253v53c59 47 176 149 176 216c0 34 -22 68 -81 68c-26 0 -58 -7 -86 -19z" />
<glyph unicode="&#x445;" horiz-adv-x="453" d="M377 0l-151 210l-153 -210h-69l187 256l-163 224h71l131 -181l128 181h69l-162 -227l184 -253h-72z" />
<glyph unicode="&#x43e;" horiz-adv-x="549" d="M499 246c0 -145 -86 -256 -233 -256c-120 0 -217 83 -217 243c0 146 85 257 236 257c134 0 214 -104 214 -244zM436 233c0 122 -59 203 -170 203c-98 0 -154 -89 -154 -190c0 -134 67 -202 173 -202c93 0 151 88 151 189z" />
<glyph unicode="&#x43f;" horiz-adv-x="503" d="M428 0h-58v428h-238v-428h-58v480h354v-480z" />
<glyph unicode="&#x440;" horiz-adv-x="531" d="M132 -1v-229h-58v710h58v-66c30 46 82 76 162 76c116 0 188 -97 188 -230c0 -168 -107 -270 -260 -270c-37 0 -68 5 -90 9zM132 262v-200c27 -12 65 -18 105 -18c112 0 182 84 182 202c0 111 -56 190 -138 190c-98 0 -149 -86 -149 -174z" />
<glyph unicode="&#x441;" horiz-adv-x="443" d="M399 80l19 -51c-51 -27 -99 -39 -150 -39c-137 0 -219 89 -219 249c0 146 103 251 237 251c36 0 75 -5 105 -16l-12 -55c-32 12 -67 17 -103 17c-99 0 -164 -82 -164 -192c0 -133 67 -200 172 -200c49 0 100 26 115 36z" />
<glyph unicode="&#x446;" horiz-adv-x="496" d="M465 -94h-58v94h-333v480h58v-428h238v428h58v-428h37v-146z" />
<glyph unicode="&#x447;" horiz-adv-x="499" d="M425 0h-58v241c-40 -30 -106 -56 -176 -56c-97 0 -144 41 -144 170v125h58v-111c0 -98 30 -130 98 -130c60 0 128 30 164 69v172h58v-480z" />
<glyph unicode="-" horiz-adv-x="370" d="M310 259h-251v58h251v-58z" />
<glyph horiz-adv-x="459" d="M135 56h280v-56h-370v18l269 487h-258v57h346v-21z" />
<glyph unicode="&#xef;" horiz-adv-x="207" d="M60 633c0 -26 -17 -44 -43 -44c-24 0 -44 15 -44 44c0 27 18 43 44 43c31 0 43 -21 43 -43zM233 633c0 -26 -16 -44 -42 -44c-24 0 -44 15 -44 44c0 27 18 43 44 43c31 0 42 -21 42 -43zM132 480v-480h-58v480h58z" />
<glyph horiz-adv-x="759" d="M469 506v-191h230v-56h-230v-205h242v-54h-306v199h-201l-134 -199h-68l388 562h317v-56h-238zM243 254h162v240z" />
<glyph unicode="&#x3b1;" horiz-adv-x="661" d="M630 60l10 -47c-16 -14 -48 -23 -78 -23c-58 0 -90 45 -102 107c-38 -69 -98 -107 -187 -107c-135 0 -224 83 -224 243c0 143 88 257 236 257c83 0 149 -42 183 -108l21 98h58l-47 -230l7 -66c10 -83 27 -140 68 -140c17 0 37 6 55 16zM436 233c0 115 -50 203 -170 203 c-98 0 -154 -89 -154 -190c0 -143 69 -202 173 -202c88 0 151 78 151 189z" />
<glyph horiz-adv-x="592" d="M442 0l-293 452v-452h-58v562h62l291 -449v449h58v-562h-60zM198 771l94 -63l98 63l29 -36l-130 -95l-121 94z" />
<glyph horiz-adv-x="699" d="M89 2v560h63v-233h63c153 0 218 -77 218 -170c0 -91 -63 -167 -233 -167c-30 0 -66 3 -111 10zM212 276h-60v-224c22 -3 44 -4 65 -4c101 0 150 52 150 113c0 65 -51 115 -155 115zM610 0h-63v562h63v-562z" />
<glyph horiz-adv-x="552" d="M187 161h-38v52h53c90 0 182 47 182 138c0 71 -55 107 -155 107c-47 0 -107 -15 -144 -35l-7 55c44 20 113 34 162 34c117 0 208 -51 208 -148c0 -91 -56 -148 -128 -167c87 -9 154 -78 154 -154c0 -129 -102 -208 -245 -208c-61 0 -130 10 -172 27l15 54 c39 -17 115 -27 168 -27c101 0 171 58 171 140c0 79 -66 132 -224 132z" />
<glyph unicode="&#x127;" horiz-adv-x="526" d="M-2 583v53h76v97h60v-97h130v-53h-130v-174c32 52 93 81 156 81c105 0 166 -56 166 -182v-308h-58v290c0 93 -30 146 -113 146c-92 0 -153 -94 -153 -191v-245h-58v583h-76z" />
<glyph unicode="?" horiz-adv-x="550" d="M111 643l-12 60c42 17 95 27 142 27c131 0 203 -64 203 -157c0 -178 -200 -217 -200 -382c0 -7 0 -16 2 -24h-58c-2 13 -3 27 -3 39c-1 157 188 206 188 354c0 70 -50 108 -139 108c-48 0 -88 -11 -123 -25zM271 41c0 -28 -23 -51 -51 -51s-51 23 -51 51s23 51 51 51 s51 -23 51 -51z" />
<glyph horiz-adv-x="334" d="M114 48c55 0 76 50 76 128v386h62v-374c0 -126 -32 -196 -150 -196c-26 0 -56 8 -80 19l10 54c27 -12 58 -17 82 -17z" />
<glyph horiz-adv-x="596" d="M424 -149h-58v216h-323l-5 62l319 381h67v-391h127v-52h-127v-216zM95 119h271v320z" />
<glyph unicode="&#xb6;" horiz-adv-x="568" d="M485 720v-814h-56v760h-121v-760h-56v469c-75 10 -160 64 -160 171c0 115 79 174 225 174h168z" />
<glyph horiz-adv-x="333" d="M136 -74v69c-36 0 -68 6 -96 16l11 55c25 -12 63 -22 97 -22c45 0 88 17 88 58c0 33 -34 50 -80 67c-55 20 -114 47 -114 110c0 55 39 92 106 101v67h48v-64c30 -1 54 -5 77 -13l-9 -53c-27 11 -52 17 -84 17c-47 0 -76 -13 -76 -46c0 -39 50 -57 87 -71 c57 -21 106 -45 106 -106c0 -63 -48 -102 -114 -113v-72h-47z" />
<glyph unicode="&#x112;" horiz-adv-x="564" d="M171 662v-266h323v-58h-323v-280h337v-58h-401v720h396v-58h-332zM176 841v51h263v-51h-263z" />
<glyph horiz-adv-x="593" d="M23 414v54h68v94h63v-94h286v94h62v-94h68v-54h-68v-414h-62v261h-286v-261h-63v414h-68zM154 316h286v98h-286v-98z" />
<glyph horiz-adv-x="501" d="M459 0h-66l-47 149c-27 80 -55 106 -143 106h-49v-255h-63v556c51 8 98 13 149 13c108 0 186 -46 186 -138c0 -73 -56 -132 -112 -144c48 -10 66 -38 86 -101zM154 506v-197h65c76 0 140 47 140 113c0 60 -48 91 -128 91c-32 0 -57 -4 -77 -7zM213 639l-33 30l124 105 l50 -43z" />
<glyph horiz-adv-x="633" d="M60 250c0 143 107 260 257 260c159 0 257 -115 257 -260c0 -155 -108 -260 -257 -260c-153 0 -257 93 -257 260zM123 250c0 -108 66 -206 194 -206c111 0 194 68 194 206c0 118 -82 206 -194 206c-126 0 -194 -92 -194 -206z" />
<glyph unicode="&#xc6;" horiz-adv-x="938" d="M569 662v-266h298v-58h-298v-280h312v-58h-375v270h-256l-180 -270h-71l494 720h383v-58h-307zM290 328h216v320z" />
<glyph horiz-adv-x="499" d="M89 6v548c42 11 104 15 146 15c110 0 182 -40 182 -130c0 -61 -36 -112 -92 -133v-3c79 -15 116 -74 116 -134c0 -72 -41 -177 -225 -177c-55 0 -99 8 -127 14zM152 261v-205c21 -5 41 -6 70 -6c94 0 153 37 153 108s-60 103 -157 103h-66zM152 316h36 c83 0 166 40 166 112c0 65 -58 85 -134 85c-20 0 -53 -3 -68 -7v-190z" />
<glyph unicode="&#x118;" horiz-adv-x="564" d="M505 -97l28 -31c-18 -22 -55 -49 -93 -49c-35 0 -79 24 -79 77c0 42 24 82 45 100h-299v720h396v-58h-332v-266h323v-58h-323v-280h337v-58h-19c-41 0 -61 -64 -61 -94c0 -17 7 -30 25 -30c21 0 40 15 52 27z" />
<glyph unicode="&#x44d;" horiz-adv-x="443" d="M331 215h-236v52h236c-8 97 -68 169 -166 169c-35 0 -66 -3 -100 -17l-10 52c40 13 73 19 121 19c133 0 218 -101 218 -255c0 -147 -91 -245 -230 -245c-56 0 -107 16 -139 36l21 55c39 -24 80 -37 132 -37c83 0 151 73 153 171z" />
<glyph unicode="&#x44c;" horiz-adv-x="436" d="M132 480v-158h89c118 0 183 -55 183 -152c0 -136 -93 -180 -224 -180c-32 0 -74 5 -106 11v479h58zM209 270h-77v-219c15 -4 41 -7 61 -7c78 0 148 19 148 119c0 74 -48 107 -132 107z" />
<glyph horiz-adv-x="575" d="M233 -8c-43 0 -109 5 -142 16v545c42 12 107 16 153 16c168 0 273 -114 273 -276c0 -170 -102 -301 -284 -301zM154 504v-447c20 -5 55 -9 90 -9c121 0 205 94 205 230c0 126 -68 235 -216 235c-26 0 -57 -5 -79 -9zM154 771l94 -63l98 63l29 -36l-130 -95l-121 94z" />
<glyph unicode="&#x44e;" horiz-adv-x="756" d="M706 246c0 -145 -86 -256 -233 -256c-117 0 -212 78 -217 230h-124v-220h-58v480h58v-208h126c14 126 97 218 234 218c134 0 214 -104 214 -244zM643 233c0 122 -59 203 -170 203c-98 0 -154 -89 -154 -190c0 -134 67 -202 173 -202c93 0 151 88 151 189z" />
<glyph horiz-adv-x="557" d="M421 65v227h63v-264c-52 -24 -96 -36 -145 -36c-202 0 -278 131 -278 285c0 168 121 292 285 292c49 0 84 -7 122 -24l-12 -57c-36 15 -71 25 -119 25c-115 0 -208 -96 -208 -225c0 -151 77 -240 218 -240c30 0 57 8 74 17zM206 765h50c6 -38 31 -63 69 -63 c37 0 63 24 69 63h50c-7 -75 -61 -116 -123 -116c-63 0 -110 44 -115 116z" />
<glyph unicode="&#x448;" horiz-adv-x="655" d="M581 0h-507v480h58v-428h167v428h58v-428h166v428h58v-480z" />
<glyph unicode="&#x44b;" horiz-adv-x="648" d="M574 0h-58v480h58v-480zM132 480v-158h89c118 0 183 -55 183 -152c0 -136 -93 -180 -224 -180c-32 0 -74 5 -106 11v479h58zM209 270h-77v-219c15 -4 41 -7 61 -7c78 0 148 19 148 119c0 74 -48 107 -132 107z" />
<glyph unicode="&#x44a;" horiz-adv-x="530" d="M226 480v-158h89c118 0 183 -55 183 -152c0 -136 -93 -180 -224 -180c-32 0 -74 5 -106 11v427h-144v52h202zM303 270h-77v-219c15 -4 41 -7 61 -7c77 0 148 19 148 119c0 74 -48 107 -132 107z" />
<glyph unicode="&#x39e;" horiz-adv-x="551" d="M495 0h-439v58h439v-58zM495 662h-439v58h439v-58zM415 329h-279v55h279v-55z" />
<glyph horiz-adv-x="445" d="M53 19l13 62c35 -18 82 -33 132 -33c65 0 131 27 131 98c0 56 -55 83 -113 112c-75 38 -160 73 -160 161c0 93 70 150 188 150c48 0 89 -8 122 -21l-11 -60c-38 17 -70 25 -118 25c-69 0 -113 -22 -113 -81c0 -58 51 -84 106 -110c66 -31 167 -63 167 -163 c0 -111 -92 -167 -205 -167c-51 0 -96 11 -139 27z" />
<glyph unicode="&#x1ef3;" horiz-adv-x="470" d="M212 8l-202 472h63l169 -395l167 395h59l-202 -480l-98 -230h-56zM284 569l-50 -18l-121 150l63 29z" />
<glyph unicode="&#x105;" horiz-adv-x="486" d="M416 0c-31 -13 -53 -64 -53 -91c0 -20 7 -33 25 -33c21 0 40 15 52 27l26 -33c-17 -22 -53 -47 -91 -47c-50 0 -75 31 -75 77c0 51 35 91 58 117v20c0 18 1 35 3 50h-1c-10 -14 -15 -24 -29 -38c-34 -34 -87 -59 -150 -59c-80 0 -137 49 -137 116c0 142 158 183 314 191 v33c0 75 -30 106 -109 106c-52 0 -113 -15 -154 -39l-12 57c48 21 103 36 172 36c112 0 161 -47 161 -136v-354zM357 245c-116 -2 -250 -33 -250 -120c0 -50 35 -81 83 -81c70 0 167 70 167 170v31z" />
<glyph unicode="&#x104;" horiz-adv-x="699" d="M701 -97l27 -31c-17 -22 -54 -49 -92 -49c-35 0 -80 24 -80 77c0 39 30 83 48 98l-111 272h-288l-112 -270h-71l308 720h47l300 -720c-38 -9 -53 -63 -53 -94c0 -17 7 -30 25 -30c21 0 40 15 52 27zM351 615l-119 -287h236z" />
<glyph horiz-adv-x="334" d="M22 11l9 54c28 -12 58 -17 83 -17c55 0 76 50 76 128v386h62v-374c0 -126 -31 -196 -150 -196c-26 0 -56 8 -80 19z" />
<glyph horiz-adv-x="524" d="M469 90l24 -49c-33 -26 -91 -49 -165 -49c-166 0 -267 112 -267 277c0 169 114 300 284 300c52 0 89 -6 125 -24l-12 -57c-27 13 -73 25 -120 25c-131 0 -209 -112 -209 -227c0 -130 64 -238 210 -238c42 0 95 17 130 42z" />
<glyph unicode="&#x42e;" horiz-adv-x="1035" d="M171 0h-64v720h64v-328h181c14 201 140 338 309 338c182 0 302 -152 302 -364c0 -188 -107 -376 -312 -376c-213 0 -293 181 -300 344h-180v-334zM661 49c141 0 234 132 234 307c0 148 -85 315 -243 315c-156 0 -233 -174 -233 -305c0 -164 76 -317 242 -317z" />
<glyph unicode="&#x42f;" horiz-adv-x="600" d="M428 391v269c-27 5 -61 11 -104 11c-106 0 -169 -45 -169 -126c0 -89 83 -154 192 -154h81zM492 0h-64v333h-93c-88 0 -125 -30 -161 -141l-60 -192h-67l68 216c23 75 46 130 111 147c-75 14 -139 97 -139 169c0 134 90 198 250 198c46 0 88 -6 155 -17v-713z" />
<glyph horiz-adv-x="515" d="M421 0l-167 249l-164 -249h-69l199 301l-173 261h72l141 -212l140 212h68l-175 -263l201 -299h-73z" />
<glyph unicode="&#x426;" horiz-adv-x="682" d="M646 -142h-64v142h-475v720h64v-662h358v662h64v-662h53v-200z" />
<glyph unicode="&#x427;" horiz-adv-x="642" d="M535 0h-64v346c-58 -26 -128 -37 -167 -37c-132 0 -230 55 -230 200v211h64v-197c0 -119 75 -155 176 -155c38 0 113 14 157 46v306h64v-720z" />
<glyph unicode="&#x428;" horiz-adv-x="907" d="M799 0h-692v720h64v-662h250v662h64v-662h250v662h64v-720z" />
<glyph unicode="&#x429;" horiz-adv-x="888" d="M852 -142h-64v142h-681v720h64v-662h250v662h64v-662h250v662h64v-662h53v-200z" />
<glyph unicode="&#x42a;" horiz-adv-x="722" d="M263 2v660h-234v58h298v-302h79c194 0 272 -98 272 -205c0 -131 -74 -223 -289 -223c-28 0 -69 3 -126 12zM404 360h-77v-306c30 -3 59 -5 87 -5c133 0 196 69 196 153c0 92 -65 158 -206 158z" />
<glyph unicode="&#x42b;" horiz-adv-x="845" d="M107 2v718h64v-303h79c195 0 273 -97 273 -209c0 -126 -75 -218 -289 -218c-29 0 -70 3 -127 12zM248 359h-77v-306c30 -3 59 -5 87 -5c134 0 197 70 197 154c0 92 -66 157 -207 157zM737 0h-64v720h64v-720z" />
<glyph unicode="&#x42c;" horiz-adv-x="567" d="M107 2v718h64v-303h79c195 0 273 -97 273 -209c0 -126 -75 -218 -289 -218c-29 0 -70 3 -127 12zM248 359h-77v-306c30 -3 59 -5 87 -5c134 0 197 70 197 154c0 92 -66 157 -207 157z" />
<glyph unicode="&#x42d;" horiz-adv-x="640" d="M500 338h-353v58h352c-10 147 -113 275 -272 275c-60 0 -118 -16 -152 -34l-14 60c40 17 100 33 191 33c184 0 316 -169 316 -366c0 -237 -123 -374 -333 -374c-92 0 -161 21 -196 50l26 59c44 -33 108 -50 191 -50c149 0 249 120 244 289z" />
<glyph horiz-adv-x="429" d="M152 0h-63v562h306v-56h-243v-506z" />
<glyph horiz-adv-x="313" d="M168 -10v68c-71 8 -123 51 -123 127c0 69 50 118 123 131v62h44v-58c21 -1 42 -4 65 -9l-9 -47c-19 7 -45 11 -69 11c-59 0 -96 -36 -96 -84c0 -59 39 -88 102 -88c29 0 58 10 69 15l16 -40c-24 -11 -51 -18 -78 -21v-67h-44z" />
<glyph unicode="&#x2014;" horiz-adv-x="919" d="M29 239v58h860v-58h-860z" />
<glyph horiz-adv-x="593" d="M440 261h-286v-261h-63v562h63v-246h286v246h62v-562h-62v261z" />
<glyph unicode="&#xea;" horiz-adv-x="493" d="M405 86l19 -49c-33 -25 -105 -47 -162 -47c-134 0 -213 86 -213 247c0 136 74 253 220 253c106 0 173 -77 173 -194c0 -27 -4 -48 -7 -61h-323c2 -116 51 -191 160 -191c48 0 90 14 133 42zM118 287h261c3 88 -45 149 -121 149c-91 0 -136 -82 -140 -149zM372 559 l-113 88l-115 -88l-31 38l149 129l142 -127z" />
<glyph unicode="&#x3a5;" horiz-adv-x="584" d="M323 323v-323h-64v322l-233 398h74l195 -331l194 331h69z" />
<glyph unicode="&#xd8;" horiz-adv-x="757" d="M684 366c0 -188 -107 -376 -311 -376c-69 0 -124 18 -167 48l-59 -88l-46 29l64 98c-67 75 -93 182 -93 280c0 224 136 373 311 373c66 0 124 -19 171 -55l59 90l47 -31l-65 -99c57 -65 89 -159 89 -269zM616 356c0 77 -21 157 -60 219c-79 -121 -171 -265 -313 -479 c38 -29 83 -47 140 -47c141 0 233 132 233 307zM141 366c0 -87 19 -170 61 -231l314 481c-38 34 -86 55 -143 55c-155 0 -232 -174 -232 -305z" />
<glyph unicode="&#x3cd;" horiz-adv-x="539" d="M262 550l-49 3l64 178l70 -11zM364 480h58c45 -76 58 -160 58 -233c0 -149 -74 -257 -216 -257c-128 0 -196 76 -196 262v228h58v-220c0 -160 52 -216 151 -216c93 0 145 73 145 189c0 79 -11 162 -58 247z" />
<glyph horiz-adv-x="741" d="M707 -115h-65v115h-553v562h63v-508h191v508h62v-508h189v508h63v-508h50v-169z" />
<glyph unicode="&#x17e;" horiz-adv-x="410" d="M264 428h-226v52h319l2 -6l-238 -422h256v-52h-351v9zM89 725l113 -89l116 89l31 -39l-149 -128l-142 127z" />
<glyph unicode="&#x103;" horiz-adv-x="486" d="M416 0h-58v37c0 18 1 37 4 52l-2 1c-8 -16 -18 -29 -32 -42c-39 -36 -88 -58 -147 -58c-79 0 -137 45 -137 120c0 138 158 179 314 187v33c0 75 -30 106 -109 106c-52 0 -113 -15 -154 -39l-12 57c48 21 103 36 172 36c112 0 161 -47 161 -136v-354zM357 245 c-116 -2 -250 -33 -250 -120c0 -50 35 -81 86 -81c76 0 164 68 164 170v31zM107 706h51c8 -58 40 -86 90 -86c45 0 82 27 90 86h48c-8 -100 -74 -141 -143 -141c-72 0 -130 46 -136 141z" />
<glyph unicode="&#x218;" horiz-adv-x="537" d="M57 29l18 60c44 -22 106 -42 162 -42c93 0 176 37 176 135c0 158 -345 172 -345 366c0 116 94 182 223 182c69 0 120 -13 157 -30l-15 -60c-48 21 -105 32 -149 32c-88 0 -150 -35 -150 -111c0 -156 345 -175 345 -365c0 -143 -110 -206 -248 -206c-66 0 -133 18 -174 39 zM283 -67l-65 -163h-45l47 163h63z" />
<glyph unicode="&#x12f;" horiz-adv-x="207" d="M188 -133c-17 -22 -54 -44 -92 -44c-44 0 -79 24 -79 77c0 38 27 84 57 112v468h58v-480c-30 -21 -52 -64 -52 -94c0 -20 9 -30 29 -30c21 0 40 15 52 27zM146 625c0 -26 -17 -44 -43 -44c-24 0 -43 16 -43 44c0 26 17 44 43 44c30 0 43 -22 43 -44z" />
<glyph unicode="&#xa9;" horiz-adv-x="866" d="M558 237l15 -51c-46 -21 -88 -30 -137 -30c-110 0 -199 65 -199 197c0 113 88 202 219 202c32 0 72 -6 101 -17l-18 -50c-27 13 -61 16 -94 16c-93 0 -140 -69 -140 -146c0 -103 54 -153 148 -153c44 0 90 24 105 32zM802 359c0 -212 -154 -371 -369 -371 c-202 0 -369 136 -369 366c0 217 159 371 369 371c217 0 369 -158 369 -366zM744 354c0 182 -131 313 -311 313c-198 0 -311 -150 -311 -308c0 -198 145 -313 311 -313c178 0 311 122 311 308z" />
<glyph horiz-adv-x="575" d="M233 -8c-43 0 -109 5 -142 16v545c42 12 107 16 153 16c168 0 273 -114 273 -276c0 -170 -102 -301 -284 -301zM154 504v-447c20 -5 55 -9 90 -9c121 0 205 94 205 230c0 126 -68 235 -216 235c-26 0 -57 -5 -79 -9zM292 702c0 -26 -18 -43 -42 -43c-23 0 -43 16 -43 43 c0 26 18 44 43 44c27 0 42 -19 42 -44z" />
<glyph horiz-adv-x="277" d="M117 153l-17 409h77l-18 -409h-42zM184 37c0 -24 -21 -45 -45 -45c-25 0 -46 21 -46 45s21 45 46 45c24 0 45 -21 45 -45z" />
<glyph unicode="&#x434;" horiz-adv-x="516" d="M485 -94h-58v94h-338v-94h-58v146h14c33 0 49 29 56 124l22 304h324v-428h38v-146zM389 52v376h-212l-18 -235c-7 -94 -15 -126 -36 -141h266z" />
<glyph horiz-adv-x="574" d="M501 311v-282c-56 -24 -99 -37 -150 -37c-212 0 -290 130 -290 285c0 167 126 292 296 292c52 0 88 -7 128 -24l-13 -57c-36 15 -75 25 -123 25c-122 0 -220 -96 -220 -225c0 -152 82 -240 230 -240c32 0 61 7 79 17v190h-116v56h179zM353 -39l-55 -140h-47l33 140h69z " />
<glyph unicode="&#x40e;" horiz-adv-x="547" d="M349 935h52c-8 -86 -74 -131 -145 -131c-75 0 -132 49 -138 131h51c8 -46 43 -74 91 -74c45 0 83 27 89 74zM543 720l-401 -720h-74l171 296l-233 424h74l197 -359l193 359h73z" />
<glyph unicode="&#x40b;" horiz-adv-x="784" d="M714 0h-64v250c0 96 -36 146 -130 146c-106 0 -182 -90 -182 -185v-211h-64v662h-245v58h564v-58h-255v-302c36 56 109 95 185 95c122 0 191 -61 191 -187v-268z" />
<glyph unicode="&#x40c;" horiz-adv-x="606" d="M488 902l-168 -114l-38 30l149 128zM590 0h-90l-329 359v-359h-64v720h64v-312l188 195c74 79 120 127 196 127c10 0 22 -1 37 -4l-16 -61c-12 5 -22 6 -33 6c-39 0 -64 -29 -125 -91l-188 -192z" />
<glyph unicode="&#x431;" horiz-adv-x="552" d="M478 668l-122 -26c-169 -36 -223 -109 -237 -230c52 49 117 78 194 78c116 0 189 -87 189 -228c0 -151 -78 -272 -228 -272c-159 0 -221 112 -221 304c0 226 57 347 249 394l169 38zM116 340v-65c0 -121 37 -231 168 -231c101 0 155 95 155 207c0 88 -34 185 -139 185 c-58 0 -133 -37 -184 -96z" />
<glyph unicode="&#x432;" horiz-adv-x="460" d="M309 262v-2c67 -11 101 -59 101 -117c0 -92 -79 -153 -206 -153c-49 0 -98 4 -130 11v476c42 7 103 13 149 13c101 0 164 -29 164 -113c0 -58 -32 -97 -78 -115zM132 224l1 -172c17 -4 43 -8 81 -8c61 0 133 29 133 89c0 67 -68 91 -164 91h-51zM132 276h63 c60 0 129 35 129 93c0 51 -46 67 -112 67c-28 0 -56 -3 -80 -8v-152z" />
<glyph unicode="&#x430;" horiz-adv-x="486" d="M416 0h-58v37c0 18 1 35 3 50h-1c-38 -54 -91 -97 -179 -97c-80 0 -137 49 -137 116c0 142 158 183 314 191v33c0 75 -30 106 -109 106c-52 0 -113 -15 -154 -39l-12 57c48 21 103 36 172 36c112 0 161 -47 161 -136v-354zM357 245c-116 -2 -250 -33 -250 -120 c0 -50 35 -81 83 -81c81 0 167 77 167 185v16z" />
<glyph unicode="&#x12b;" horiz-adv-x="207" d="M-25 606v49h256v-49h-256zM132 480v-480h-58v480h58z" />
<glyph unicode="&#xfa;" horiz-adv-x="523" d="M70 178v302h58v-286c0 -107 30 -150 106 -150c93 0 156 89 156 211v225h58v-480h-58v87c-27 -57 -90 -97 -166 -97c-102 0 -154 52 -154 188zM268 551l-49 18l107 161l64 -29z" />
<glyph unicode="&#x10c;" horiz-adv-x="640" d="M575 100l24 -48c-46 -38 -119 -62 -200 -62c-209 0 -327 165 -327 354c0 214 134 386 350 386c58 0 117 -12 157 -33l-16 -59c-34 18 -98 33 -150 33c-174 0 -273 -152 -273 -303c0 -172 91 -319 270 -319c57 0 121 20 165 51zM278 942l114 -79l118 79l32 -40l-153 -113 l-143 114z" />
<glyph horiz-adv-x="557" d="M421 65v227h63v-264c-52 -24 -96 -36 -145 -36c-202 0 -278 131 -278 285c0 168 121 292 285 292c49 0 84 -7 122 -24l-12 -57c-36 15 -71 25 -119 25c-115 0 -208 -96 -208 -225c0 -151 77 -240 218 -240c30 0 57 8 74 17z" />
<glyph unicode="&#x3a6;" horiz-adv-x="762" d="M413 -10h-64v117c-178 7 -305 107 -305 241c0 146 120 254 305 265v117h64v-117c199 -13 305 -124 305 -248c0 -164 -147 -251 -305 -260v-115zM349 167v387c-168 -14 -237 -103 -237 -189c0 -112 90 -190 237 -198zM413 554v-388c138 11 237 72 237 182 c0 106 -64 189 -237 206z" />
<glyph unicode="&#x40a;" horiz-adv-x="1004" d="M544 2v361h-373v-363h-64v720h64v-299h373v299h64v-299h86c188 0 266 -94 266 -208c0 -129 -86 -223 -289 -223c-29 0 -71 3 -127 12zM685 363h-77v-309c30 -3 59 -5 87 -5c120 0 197 53 197 155c0 92 -61 159 -207 159z" />
<glyph unicode="&#x409;" horiz-adv-x="1008" d="M549 1v661h-291l-36 -411c-15 -171 -32 -261 -178 -261c-6 0 -15 1 -21 2l10 61c11 -3 18 -4 28 -4c70 0 87 61 97 173l44 498h410v-302h93c181 0 259 -98 259 -196c0 -140 -75 -232 -289 -232c-29 0 -81 3 -126 11zM689 360h-77v-306c30 -3 59 -5 88 -5 c133 0 196 69 196 153c0 92 -66 158 -207 158z" />
<glyph horiz-adv-x="676" d="M590 371v-337c-37 -23 -108 -44 -172 -44c-266 0 -346 174 -346 367c0 218 147 373 350 373c60 0 99 -9 149 -30l-16 -60c-48 20 -82 31 -143 31c-156 0 -272 -129 -272 -300c0 -177 63 -322 289 -322c37 0 72 8 97 21v301h64zM444 -67l-65 -163h-45l47 163h63z" />
<glyph unicode="&#x402;" horiz-adv-x="776" d="M435 -10l13 58c125 -2 216 50 216 150c0 105 -57 162 -215 162h-111v-360h-64v662h-245v58h565v-58h-256v-244h113c223 0 281 -95 281 -212c0 -127 -106 -216 -297 -216z" />
<glyph unicode="&#x2013;" horiz-adv-x="641" d="M63 239v58h515v-58h-515z" />
<glyph unicode="&#x404;" horiz-adv-x="640" d="M574 102l25 -50c-38 -33 -102 -62 -193 -62c-211 0 -334 146 -334 354c0 217 142 386 350 386c66 0 111 -8 157 -33l-14 -60c-34 18 -92 34 -152 34c-159 0 -259 -132 -272 -275h352v-58h-353c10 -162 96 -289 276 -289c51 0 115 20 158 53z" />
<glyph unicode="&#x403;" horiz-adv-x="518" d="M171 0h-64v720h376v-58h-312v-662zM448 902l-167 -114l-39 30l149 128z" />
<glyph unicode="&#x406;" horiz-adv-x="278" d="M171 0h-64v720h64v-720z" />
<glyph unicode="&#x405;" horiz-adv-x="537" d="M57 29l18 62c44 -22 106 -42 163 -42c92 0 174 37 174 134c0 157 -344 169 -344 359c0 115 89 188 224 188c69 0 120 -13 157 -30l-15 -61c-48 21 -105 32 -149 32c-91 0 -149 -37 -149 -114c0 -158 344 -167 344 -360c0 -139 -110 -207 -249 -207c-66 0 -133 18 -174 39 z" />
<glyph unicode="&#x408;" horiz-adv-x="398" d="M140 49c73 0 96 60 96 173v498h64v-481c0 -156 -31 -249 -177 -249c-33 0 -78 13 -103 27l16 57c30 -13 66 -25 104 -25z" />
<glyph unicode="&#x407;" horiz-adv-x="278" d="M171 0h-64v720h64v-720zM85 862c0 -28 -22 -48 -47 -48c-28 0 -48 20 -48 48c0 25 20 46 48 46c25 0 47 -21 47 -46zM290 862c0 -28 -20 -48 -48 -48c-26 0 -46 20 -46 48c0 25 20 46 46 46c28 0 48 -21 48 -46z" />
<glyph unicode="&#x1fd;" horiz-adv-x="811" d="M715 86l19 -49c-33 -25 -105 -47 -162 -47c-93 0 -159 43 -191 119c-41 -74 -113 -119 -200 -119c-80 0 -137 49 -137 116c0 142 158 183 314 191v33c0 75 -30 106 -109 106c-52 0 -113 -15 -154 -39l-12 57c48 21 103 36 172 36c87 0 136 -29 153 -83 c37 50 94 83 171 83c106 0 173 -77 173 -194c0 -27 -4 -48 -7 -61h-323c2 -116 51 -191 160 -191c48 0 90 14 133 42zM357 245c-116 -2 -250 -33 -250 -120c0 -50 35 -81 83 -81c91 0 167 80 167 185v16zM428 287h261c3 88 -45 149 -121 149c-91 0 -136 -82 -140 -149z M451 551l-49 18l107 161l64 -29z" />
<glyph unicode="&#x1e82;" horiz-adv-x="932" d="M660 119l195 601h59l-235 -720h-44l-169 539l-173 -539h-47l-228 720h65l192 -601l189 601h11zM470 788l-38 30l149 128l57 -44z" />
<glyph unicode="&#x221a;" horiz-adv-x="643" d="M620 720l-383 -950h-46l-183 480h75l133 -355l331 825h73z" />
<glyph horiz-adv-x="618" d="M557 285c0 -150 -88 -293 -251 -293c-179 0 -245 151 -245 285c0 174 106 292 253 292c148 0 243 -119 243 -284zM490 277c0 115 -63 236 -184 236c-120 0 -177 -129 -177 -228c0 -124 59 -237 185 -237c109 0 176 100 176 229zM228 640l-30 31l105 103l47 -45zM369 640 l-31 30l127 104l48 -44z" />
<glyph horiz-adv-x="459" d="M135 56h280v-56h-370v18l269 487h-258v57h346v-21zM133 771l94 -63l98 63l29 -36l-130 -95l-121 94z" />
<glyph unicode="&#x10e;" horiz-adv-x="695" d="M276 -10c-49 0 -133 8 -169 21v700c68 14 132 19 183 19c210 0 339 -152 339 -354c0 -219 -129 -386 -353 -386zM171 659v-598c27 -8 74 -12 119 -12c160 0 271 126 271 305c0 167 -90 317 -284 317c-35 0 -78 -6 -106 -12zM176 942l114 -79l118 79l32 -40l-153 -113 l-143 114z" />
<glyph unicode="&#x173;" horiz-adv-x="523" d="M471 -97l27 -36c-17 -22 -54 -44 -92 -44c-44 0 -79 24 -79 77c0 46 31 94 63 117v62c-25 -52 -85 -89 -171 -89c-101 0 -149 52 -149 173v317h58v-303c0 -66 14 -108 53 -125c13 -6 28 -8 47 -8c108 0 162 92 162 211v225h58v-480c-34 0 -58 -73 -58 -94 c0 -20 9 -30 29 -30c21 0 40 15 52 27z" />
<glyph horiz-adv-x="242" d="M152 0h-63v562h63v-562z" />
<glyph unicode="&#xd6;" horiz-adv-x="757" d="M684 366c0 -188 -107 -376 -311 -376c-224 0 -301 199 -301 367c0 208 120 373 311 373c182 0 301 -152 301 -364zM616 356c0 179 -94 315 -243 315c-140 0 -233 -135 -233 -305c0 -142 61 -317 243 -317c155 0 233 153 233 307zM321 862c0 -28 -21 -48 -47 -48 c-27 0 -48 20 -48 48c0 25 21 46 48 46c26 0 47 -21 47 -46zM526 862c0 -28 -20 -48 -48 -48c-25 0 -46 20 -46 48c0 25 21 46 46 46c28 0 48 -21 48 -46z" />
<glyph unicode="V" horiz-adv-x="663" d="M319 101l256 619h66l-304 -720h-49l-266 720h68z" />
<glyph unicode="&#x171;" horiz-adv-x="523" d="M70 178v302h58v-286c0 -107 30 -150 106 -150c93 0 156 89 156 211v225h58v-480h-58v87c-27 -57 -90 -97 -166 -97c-102 0 -154 52 -154 188zM177 551l-52 19l117 159l67 -34zM335 551l-51 19l132 159l67 -34z" />
<glyph unicode="&#x2015;" horiz-adv-x="919" d="M889 239h-860v58h860v-58z" />
<glyph unicode="J" horiz-adv-x="398" d="M140 49c73 0 96 60 96 173v498h64v-481c0 -156 -31 -249 -177 -249c-33 0 -78 13 -103 27l16 57c30 -13 66 -25 104 -25z" />
<glyph unicode="&#x16e;" horiz-adv-x="672" d="M335 -10c-154 0 -231 80 -231 250v480h64v-458c0 -149 52 -213 179 -213c95 0 182 57 182 198v473h58v-459c0 -196 -108 -271 -252 -271zM243 859c0 46 36 86 99 86c66 0 97 -34 97 -77c0 -59 -43 -86 -99 -86s-97 31 -97 77zM294 867c0 -26 21 -47 48 -47 c28 0 45 17 45 40c0 25 -20 45 -47 45s-46 -14 -46 -38z" />
<glyph unicode="&#x3c8;" horiz-adv-x="668" d="M369 -220h-58v211c-164 11 -243 117 -243 284v205h58v-194c0 -141 58 -225 185 -239v683h58v-684c145 6 181 127 181 207c0 100 -18 163 -46 227h62c21 -58 43 -128 43 -214c0 -141 -76 -261 -240 -275v-211z" />
<glyph unicode="&#x3c5;" horiz-adv-x="539" d="M364 480h58c45 -76 58 -160 58 -233c0 -149 -74 -257 -216 -257c-128 0 -196 76 -196 262v228h58v-220c0 -160 52 -216 151 -216c93 0 145 73 145 189c0 79 -11 162 -58 247z" />
<glyph horiz-adv-x="461" d="M414 0h-325v562h321v-56h-258v-191h251v-56h-251v-205h262v-54z" />
<glyph unicode="&#x162;" horiz-adv-x="590" d="M327 662v-662h-64v662h-234v58h533v-58h-235zM320 -67l-65 -163h-45l47 163h63z" />
<glyph unicode="&#x43d;" horiz-adv-x="509" d="M434 0h-58v220h-244v-220h-58v480h58v-208h244v208h58v-480z" />
<glyph unicode="&#x2084;" horiz-adv-x="385" d="M284 0h-55v112h-183l-6 50l181 216h63v-222h65v-44h-65v-112zM91 156h138v161z" />
<glyph horiz-adv-x="572" d="M564 -73l25 -28c-16 -20 -45 -41 -77 -41c-34 0 -69 20 -69 64c0 30 23 63 39 76l-84 201h-226l-84 -199h-66l242 562h51l236 -562c-32 -7 -47 -48 -47 -72c0 -13 6 -22 20 -22c17 0 32 10 40 21zM286 470l-90 -216h179z" />
<glyph unicode="&#x151;" horiz-adv-x="549" d="M499 246c0 -145 -86 -256 -233 -256c-120 0 -217 83 -217 243c0 146 85 257 236 257c134 0 214 -104 214 -244zM436 233c0 122 -59 203 -170 203c-98 0 -154 -89 -154 -190c0 -134 67 -202 173 -202c93 0 151 88 151 189zM232 551l-52 19l117 159l67 -34zM390 551l-51 19 l132 159l67 -34z" />
<glyph unicode="&#x437;" horiz-adv-x="390" d="M25 8l9 55c32 -12 75 -19 123 -19c62 0 120 27 120 87c0 73 -68 91 -156 91h-46v52h59c67 0 125 35 125 97c0 50 -45 67 -103 65c-39 -1 -82 -9 -113 -22l-4 55c34 12 82 21 128 21c85 0 155 -30 155 -110c0 -60 -39 -106 -85 -123c58 -7 103 -55 103 -114 c0 -104 -82 -153 -195 -153c-40 0 -91 6 -120 18z" />
<glyph unicode="&#x436;" horiz-adv-x="648" d="M642 0h-75l-215 237v-237h-56v237l-221 -237h-70l238 260l-108 114c-28 30 -59 63 -87 63c-11 0 -23 -4 -37 -13l-14 46c20 14 36 20 61 20c37 0 65 -24 107 -67l131 -137v194h56v-194l131 133c47 47 81 71 122 71c14 0 32 -5 47 -17l-18 -51c-11 7 -19 15 -40 15 s-52 -30 -80 -60l-110 -114z" />
<glyph unicode="&#x451;" horiz-adv-x="493" d="M223 633c0 -26 -17 -44 -43 -44c-24 0 -44 15 -44 44c0 27 18 43 44 43c31 0 43 -21 43 -43zM396 633c0 -26 -16 -44 -42 -44c-24 0 -44 15 -44 44c0 27 18 43 44 43c31 0 42 -21 42 -43zM405 86l19 -49c-33 -25 -105 -47 -162 -47c-134 0 -213 86 -213 247 c0 136 74 253 220 253c106 0 173 -77 173 -194c0 -27 -4 -48 -7 -61h-323c2 -116 51 -191 160 -191c48 0 90 14 133 42zM118 287h261c3 88 -45 149 -121 149c-91 0 -136 -82 -140 -149z" />
<glyph unicode="&#x435;" horiz-adv-x="493" d="M405 86l19 -49c-33 -25 -105 -47 -162 -47c-134 0 -213 86 -213 247c0 136 74 253 220 253c106 0 173 -77 173 -194c0 -27 -4 -48 -7 -61h-323c2 -116 51 -191 160 -191c48 0 90 14 133 42zM118 287h261c3 88 -45 149 -121 149c-91 0 -136 -82 -140 -149z" />
<glyph unicode="&#x43b;" horiz-adv-x="506" d="M432 0h-58v428h-215l-18 -226c-14 -159 -23 -212 -101 -212c-6 0 -19 1 -31 3l6 56c8 -4 18 -5 28 -5c31 0 36 55 42 132l23 304h324v-480z" />
<glyph unicode="&#x43a;" horiz-adv-x="429" d="M132 0h-58v480h58v-194l130 133c47 47 81 71 122 71c15 0 33 -5 48 -17l-18 -52c-11 7 -19 15 -40 15s-50 -31 -79 -60l-109 -113l237 -263h-77l-214 237v-237z" />
<glyph unicode="&#x439;" horiz-adv-x="527" d="M355 706h48c-8 -100 -73 -141 -143 -141c-72 0 -130 46 -136 141h51c8 -58 41 -86 90 -86c45 0 82 25 90 86zM453 0h-55v408l-250 -408h-74v480h55v-406l250 406h74v-480z" />
<glyph horiz-adv-x="245" d="M154 562v-562h-63v562h63zM3 765h50c6 -38 31 -63 69 -63c37 0 63 24 69 63h50c-7 -75 -61 -116 -123 -116c-63 0 -110 44 -115 116z" />
<glyph horiz-adv-x="531" d="M442 0h-64v263c-44 -18 -94 -27 -126 -27c-121 0 -190 74 -190 161v165h66v-152c0 -74 52 -118 132 -118c31 0 83 11 118 32v238h64v-562z" />
<glyph d="M34 250c0 143 105 260 251 260c156 0 252 -115 252 -260c0 -155 -106 -260 -252 -260c-149 0 -251 93 -251 260zM94 250c0 -108 67 -206 191 -206c108 0 191 68 191 206c0 118 -82 206 -191 206c-122 0 -191 -92 -191 -206z" />
<glyph horiz-adv-x="593" d="M440 261h-286v-261h-63v562h63v-246h286v246h62v-562h-62v261zM-14 484l-49 3l64 178l70 -11z" />
<glyph horiz-adv-x="323" d="M168 332v68c-71 8 -123 51 -123 127c0 69 50 118 123 131v62h44v-58c21 -1 42 -4 65 -9l-9 -47c-19 7 -45 11 -69 11c-59 0 -96 -36 -96 -84c0 -59 39 -88 102 -88c29 0 58 10 69 15l16 -40c-24 -11 -51 -18 -78 -21v-67h-44z" />
<glyph horiz-adv-x="557" d="M421 65v227h63v-264c-52 -24 -96 -36 -145 -36c-202 0 -278 131 -278 285c0 168 121 292 285 292c49 0 84 -7 122 -24l-12 -57c-36 15 -71 25 -119 25c-115 0 -208 -96 -208 -225c0 -151 77 -240 218 -240c30 0 57 8 74 17zM371 702c0 -26 -18 -43 -42 -43 c-23 0 -43 16 -43 43c0 26 18 44 43 44c27 0 42 -19 42 -44z" />
<glyph horiz-adv-x="466" d="M154 506v-191h250v-56h-250v-205h262v-54h-325v562h321v-56h-258zM208 702c0 -24 -19 -43 -43 -43c-23 0 -43 19 -43 43s20 43 43 43c24 0 43 -19 43 -43zM380 702c0 -24 -18 -43 -42 -43s-42 19 -42 43s18 43 42 43s42 -19 42 -43z" />
<glyph horiz-adv-x="846" d="M152 0h-63v562h63v-256h137c11 157 112 263 251 263c149 0 245 -119 245 -284c0 -150 -89 -293 -253 -293c-169 0 -236 134 -243 263h-137v-255zM540 48c110 0 177 100 177 229c0 115 -63 236 -184 236s-178 -129 -178 -228c0 -124 60 -237 185 -237z" />
<glyph horiz-adv-x="1097" d="M745 -185v-3c-48 -22 -117 -33 -197 -33c-305 0 -459 191 -459 442c0 288 220 471 481 471c249 0 415 -148 415 -375c0 -173 -73 -327 -222 -327c-68 0 -110 35 -118 90c-36 -53 -86 -90 -170 -90c-105 0 -176 90 -176 232c0 163 105 271 243 271c51 0 113 -17 154 -42 v-285c0 -77 17 -121 80 -121c96 0 146 125 146 261c0 194 -132 332 -360 332c-211 0 -410 -142 -410 -406c0 -228 137 -399 407 -399c72 0 121 11 168 32zM638 213v203c-39 17 -74 23 -104 23c-103 0 -172 -81 -172 -206c0 -103 44 -189 119 -189c74 0 157 81 157 169z" />
<glyph horiz-adv-x="676" d="M590 371v-337c-37 -23 -108 -44 -172 -44c-266 0 -346 174 -346 367c0 218 147 373 350 373c60 0 99 -9 149 -30l-16 -60c-48 20 -82 31 -143 31c-156 0 -272 -129 -272 -300c0 -177 63 -322 289 -322c37 0 72 8 97 21v301h64zM518 789l-115 79l-118 -79l-31 40l152 113 l144 -114z" />
<glyph horiz-adv-x="630" d="M346 -10h-62v91c-152 7 -244 98 -244 192c0 104 90 197 244 206v90h62v-90c162 -9 244 -102 244 -194c0 -93 -84 -194 -244 -204v-91zM284 138v286c-126 -12 -176 -85 -176 -139c0 -73 62 -141 176 -147zM346 424v-287c130 10 176 81 176 136c0 64 -43 138 -176 151z" />
<glyph unicode="&#x38e;" horiz-adv-x="584" d="M323 323v-323h-64v322l-233 398h74l195 -331l194 331h69zM-52 642l-49 3l64 178l70 -11z" />
<glyph horiz-adv-x="325" d="M236 0h-64v507l-132 -27l-7 49l184 36h19v-565z" />
<glyph unicode="&#x418;" horiz-adv-x="714" d="M607 0h-63v600l-387 -600h-50v720h62v-595l383 595h55v-720z" />
<glyph unicode="&#x419;" horiz-adv-x="714" d="M446 935h53c-8 -86 -74 -131 -146 -131c-74 0 -131 49 -138 131h52c8 -46 43 -74 91 -74c45 0 82 27 88 74zM607 0h-63v600l-387 -600h-50v720h62v-595l383 595h55v-720z" />
<glyph unicode="7" horiz-adv-x="482" d="M365 668h-334v52h400v-28l-229 -692h-57z" />
<glyph unicode="&#x417;" horiz-adv-x="554" d="M57 20l15 58c36 -18 105 -30 171 -30c100 0 166 64 166 155s-59 142 -219 142h-39v58h54c109 0 178 68 178 151c0 72 -50 117 -154 117c-52 0 -103 -10 -143 -34l-12 57c41 22 108 36 169 36c133 0 208 -66 208 -161s-56 -160 -125 -179c90 -12 151 -86 151 -172 c0 -151 -108 -228 -246 -228c-66 0 -136 12 -174 30z" />
<glyph unicode="&#xdc;" horiz-adv-x="672" d="M335 -10c-154 0 -231 80 -231 250v480h64v-458c0 -149 52 -213 179 -213c95 0 182 57 182 198v473h58v-459c0 -196 -108 -271 -252 -271zM285 862c0 -28 -21 -48 -47 -48c-27 0 -48 20 -48 48c0 25 21 46 48 46c26 0 47 -21 47 -46zM490 862c0 -28 -20 -48 -48 -48 c-25 0 -46 20 -46 48c0 25 21 46 46 46c28 0 48 -21 48 -46z" />
<glyph unicode="&#x401;" horiz-adv-x="564" d="M171 662v-266h323v-58h-323v-280h337v-58h-401v720h396v-58h-332zM251 862c0 -28 -22 -48 -47 -48c-27 0 -48 20 -48 48c0 25 21 46 48 46c25 0 47 -21 47 -46zM456 862c0 -28 -20 -48 -48 -48c-26 0 -46 20 -46 48c0 25 20 46 46 46c28 0 48 -21 48 -46z" />
<glyph unicode="&#x413;" horiz-adv-x="518" d="M171 0h-64v720h376v-58h-312v-662z" />
<glyph unicode="&#x414;" horiz-adv-x="708" d="M672 -142h-64v142h-507v-142h-64v200h32c41 0 86 68 94 164l42 498h413v-662h54v-200zM554 58v604h-290l-36 -411c-11 -124 -28 -166 -68 -193h394z" />
<glyph unicode="^" horiz-adv-x="599" d="M81 386l197 334h43l195 -334h-64l-154 273l-154 -273h-63z" />
<glyph horiz-adv-x="480" d="M271 508v-182h105v-53h-105v-273h-62v273h-105v53h105v182h-181v54h424v-54h-181z" />
<glyph unicode="&#xbe;" horiz-adv-x="794" d="M194 -48l-50 29l468 783l49 -26zM713 0h-55v112h-183l-6 50l181 216h63v-222h65v-44h-65v-112zM520 156h138v161zM123 516h-23v44h31c52 0 98 30 98 68c0 32 -32 51 -81 51c-30 0 -57 -7 -83 -17l-8 45c25 11 62 18 99 18c82 0 132 -33 132 -88c0 -47 -33 -79 -72 -91 c50 -10 87 -41 87 -87c0 -74 -64 -122 -154 -122c-39 0 -74 4 -101 15l12 46c31 -11 62 -15 96 -15c51 0 88 28 88 67c0 45 -46 66 -121 66z" />
<glyph unicode="&#x3be;" horiz-adv-x="424" d="M325 -220h-66c38 39 82 102 82 150c0 107 -292 59 -292 268c0 101 65 164 147 196c-47 20 -114 67 -114 155c0 107 78 181 207 181c38 0 69 -3 103 -12l-15 -53c-37 8 -71 11 -103 11c-73 0 -129 -46 -129 -110c0 -85 74 -153 177 -153h37v-52h-51 c-112 0 -196 -62 -196 -146c0 -188 292 -125 292 -271c0 -59 -47 -128 -79 -164z" />
<glyph unicode="&#x15d;" horiz-adv-x="412" d="M326 413c-27 11 -74 23 -119 23c-55 0 -95 -26 -95 -62c0 -102 257 -91 257 -240c0 -93 -89 -144 -182 -144c-55 0 -103 12 -140 29l15 60c30 -18 86 -35 135 -35c54 0 109 30 109 78c0 111 -257 95 -257 240c0 79 75 128 167 128c52 0 92 -10 123 -24zM341 559l-113 88 l-115 -88l-31 38l149 129l142 -127z" />
<glyph horiz-adv-x="437" d="M153 54h244v-54h-306v562h62v-508zM107 639l-33 30l124 105l50 -43z" />
<glyph unicode="&#x386;" horiz-adv-x="699" d="M598 0l-110 270h-288l-112 -270h-64l308 720h35l300 -720h-69zM346 615l-119 -287h236zM142 642l-49 3l64 178l70 -11z" />
<glyph horiz-adv-x="501" d="M459 0h-66l-47 149c-27 80 -55 106 -143 106h-49v-255h-63v556c51 8 98 13 149 13c108 0 186 -46 186 -138c0 -73 -56 -132 -112 -144c48 -10 66 -38 86 -101zM154 506v-197h65c76 0 140 47 140 113c0 60 -48 91 -128 91c-32 0 -57 -4 -77 -7zM294 -39l-55 -140h-47 l33 140h69z" />
<glyph unicode="&#x45e;" horiz-adv-x="470" d="M146 -230h-61l111 251l-186 459h63l155 -386l171 386h61zM322 706h49c-8 -100 -74 -141 -143 -141c-72 0 -130 46 -136 141h51c8 -58 40 -86 90 -86c44 0 82 25 89 86z" />
<glyph unicode="&#x411;" horiz-adv-x="567" d="M107 3v717h414v-58h-350v-243h79c193 0 273 -85 273 -208c0 -129 -75 -221 -289 -221c-35 0 -83 1 -127 13zM248 360h-77v-305c30 -4 59 -6 87 -6c95 0 197 28 197 153c0 100 -63 158 -207 158z" />
<glyph unicode="&#xcc;" horiz-adv-x="278" d="M171 720v-720h-64v720h64zM191 818l-41 -31l-166 114l58 45z" />
<glyph unicode="&#x38c;" horiz-adv-x="757" d="M684 366c0 -188 -107 -376 -311 -376c-224 0 -301 199 -301 367c0 208 120 373 311 373c182 0 301 -152 301 -364zM616 356c0 179 -94 315 -243 315c-140 0 -233 -135 -233 -305c0 -142 61 -317 243 -317c155 0 233 153 233 307zM61 642l-49 3l64 178l70 -11z" />
<glyph unicode="&#x3c3;" horiz-adv-x="207" d="M538 436h-115c59 -50 76 -117 76 -189c0 -141 -86 -257 -233 -257c-125 0 -217 83 -217 243c0 143 88 257 236 257h253v-54zM285 44c90 0 151 91 151 189c0 103 -42 203 -170 203c-98 0 -154 -89 -154 -190c0 -143 69 -202 173 -202z" />
<glyph unicode="&#xdd;" horiz-adv-x="584" d="M323 323v-323h-64v322l-233 398h74l195 -331l194 331h69zM301 788l-38 30l149 128l57 -44z" />
<glyph unicode="&#xc8;" horiz-adv-x="564" d="M171 662v-266h323v-58h-323v-280h337v-58h-401v720h396v-58h-332zM355 818l-41 -31l-166 114l58 45z" />
<glyph horiz-adv-x="466" d="M154 506v-191h250v-56h-250v-205h262v-54h-325v562h321v-56h-258zM131 680v52h219v-52h-219z" />
<glyph unicode="&#xba;" horiz-adv-x="460" d="M408 540c0 -121 -81 -200 -184 -200c-94 0 -171 64 -171 189c0 113 68 201 184 201c110 0 171 -89 171 -190zM343 529c0 84 -33 147 -119 147c-68 0 -106 -63 -106 -136c0 -99 45 -146 119 -146c70 0 106 65 106 135z" />
<glyph unicode="&#x3af;" horiz-adv-x="307" d="M278 61l8 -45c-23 -17 -58 -26 -88 -26c-87 0 -121 64 -121 162v328h58v-314c0 -79 23 -122 71 -122c22 0 50 8 72 17zM130 550l-49 3l64 178l70 -11z" />
<glyph unicode="&#x2081;" horiz-adv-x="270" d="M198 0h-57v325l-94 -18l-6 46l142 27h15v-380z" />
<glyph unicode="&#x3e;" horiz-adv-x="609" d="M111 45l-31 47l334 193l-337 202l34 54l398 -238v-33z" />
<glyph horiz-adv-x="523" d="M464 88l23 -47c-33 -26 -86 -49 -158 -49c-168 0 -268 112 -268 277c0 169 112 300 284 300c52 0 89 -6 125 -24l-12 -57c-29 13 -73 25 -121 25c-120 0 -196 -95 -208 -198h273v-56h-273c9 -118 73 -211 210 -211c41 0 90 15 125 40z" />
<glyph unicode="&#x3a4;" horiz-adv-x="590" d="M327 662v-662h-64v662h-234v58h533v-58h-235z" />
<glyph horiz-adv-x="597" d="M485 643l-12 -55c-34 14 -82 24 -128 24c-131 0 -187 -103 -204 -212c-3 -19 -6 -48 -13 -68l2 -1c6 10 25 32 41 45c39 31 92 47 158 47c123 0 205 -83 205 -207c0 -134 -104 -225 -241 -225c-141 0 -224 108 -224 256c0 219 64 418 289 418c47 0 98 -10 127 -22z M470 203c0 103 -57 167 -157 167c-101 0 -177 -69 -177 -154c0 -92 57 -171 175 -171c87 0 159 63 159 158z" />
<glyph horiz-adv-x="618" d="M557 285c0 -150 -88 -293 -251 -293c-179 0 -245 151 -245 285c0 174 106 292 253 292c148 0 243 -119 243 -284zM490 277c0 115 -63 236 -184 236c-120 0 -177 -129 -177 -228c0 -124 59 -237 185 -237c109 0 176 100 176 229z" />
<glyph unicode="&#xe9;" horiz-adv-x="493" d="M405 86l19 -49c-33 -25 -105 -47 -162 -47c-134 0 -213 86 -213 247c0 136 74 253 220 253c106 0 173 -77 173 -194c0 -27 -4 -48 -7 -61h-323c2 -116 51 -191 160 -191c48 0 90 14 133 42zM118 287h261c3 88 -45 149 -121 149c-91 0 -136 -82 -140 -149zM265 551l-49 18 l107 161l64 -29z" />
<glyph unicode="&#x123;" horiz-adv-x="525" d="M456 469v-392c0 -218 -80 -307 -241 -307c-44 0 -101 8 -133 25l10 61c34 -21 99 -32 137 -32c131 0 169 95 169 240v35c-34 -59 -97 -90 -167 -90c-112 0 -182 71 -182 201c0 166 97 280 267 280c56 0 92 -7 140 -21zM398 239v176c-13 7 -42 21 -95 21 c-135 0 -191 -98 -191 -211c0 -112 57 -162 131 -162c75 0 155 59 155 176zM265 581l65 163h45l-47 -163h-63z" />
<glyph unicode="&#x3c;" horiz-adv-x="609" d="M478 541l31 -47l-335 -192l337 -202l-33 -55l-398 239v33z" />
<glyph unicode="&#x12c;" horiz-adv-x="278" d="M171 720v-720h-64v720h64zM-5 933h54c8 -48 41 -76 90 -76c45 0 81 26 87 76h55c-8 -89 -76 -134 -147 -134c-74 0 -132 49 -139 134z" />
<glyph unicode="&#x3c7;" horiz-adv-x="446" d="M469 -101l8 -45c-8 -8 -22 -15 -41 -15c-57 0 -84 32 -121 119l-79 181l-164 -291h-62l199 352l-59 134c-38 86 -55 102 -99 102c-12 0 -23 -3 -32 -7l4 55c11 4 23 6 37 6c47 0 87 -10 131 -109l56 -125l127 224h62l-162 -285l83 -189c32 -73 50 -113 86 -113 c7 0 16 2 26 6z" />
<glyph unicode="&#x424;" horiz-adv-x="762" d="M413 -10h-64v117c-200 7 -305 138 -305 248c0 118 111 246 305 258v117h64v-117c207 -13 305 -143 305 -247c0 -109 -95 -249 -305 -261v-115zM349 166v388c-168 -12 -237 -121 -237 -189c0 -98 67 -185 237 -199zM413 554v-389c178 13 237 108 237 188 c0 79 -58 186 -237 201z" />
<glyph unicode="&#x423;" horiz-adv-x="547" d="M543 720l-401 -720h-74l171 296l-233 424h74l197 -359l193 359h73z" />
<glyph unicode="&#x422;" horiz-adv-x="590" d="M327 662v-662h-64v662h-234v58h533v-58h-235z" />
<glyph unicode="&#x421;" horiz-adv-x="640" d="M575 100l24 -48c-46 -38 -119 -62 -200 -62c-209 0 -327 165 -327 354c0 214 134 386 350 386c58 0 117 -12 157 -33l-16 -59c-34 18 -98 33 -150 33c-174 0 -273 -152 -273 -303c0 -172 91 -319 270 -319c57 0 121 20 165 51z" />
<glyph unicode="&#x420;" horiz-adv-x="568" d="M171 295v-295h-64v710c58 11 125 20 185 20c156 0 232 -93 232 -196c0 -170 -135 -239 -314 -239h-39zM171 659v-306h56c132 0 229 52 229 163c0 97 -55 155 -176 155c-45 0 -83 -6 -109 -12z" />
<glyph unicode="&#x41f;" horiz-adv-x="701" d="M593 0h-64v662h-358v-662h-64v720h486v-720z" />
<glyph unicode="&#x41e;" horiz-adv-x="757" d="M684 366c0 -188 -107 -376 -311 -376c-224 0 -301 202 -301 367c0 208 120 373 311 373c182 0 301 -152 301 -364zM616 356c0 177 -95 315 -243 315c-140 0 -233 -137 -233 -305c0 -137 60 -317 243 -317c155 0 233 153 233 307z" />
<glyph horiz-adv-x="512" d="M67 136c0 87 56 127 120 156c-57 31 -104 69 -104 135c0 73 70 142 178 142c85 0 167 -45 167 -131c0 -78 -52 -117 -112 -146c67 -33 129 -72 129 -148c0 -94 -83 -152 -193 -152c-96 0 -185 58 -185 144zM382 133c0 63 -66 96 -135 129c-63 -26 -117 -54 -117 -115 c0 -68 70 -103 131 -103c67 0 121 27 121 89zM148 438c0 -57 50 -89 109 -118c58 24 107 50 107 107c0 51 -39 91 -112 91c-53 0 -104 -30 -104 -80z" />
<glyph unicode="&#x41c;" horiz-adv-x="910" d="M824 0h-63l-58 618l-221 -579h-50l-234 582l-54 -621h-62l65 720h78l233 -582l225 582h75z" />
<glyph unicode="&#x3cb;" horiz-adv-x="539" d="M364 480h58c45 -76 58 -160 58 -233c0 -149 -74 -257 -216 -257c-128 0 -196 76 -196 262v228h58v-220c0 -160 52 -216 151 -216c93 0 145 73 145 189c0 79 -11 162 -58 247zM216 633c0 -26 -17 -44 -43 -44c-24 0 -44 15 -44 44c0 27 18 43 44 43c31 0 43 -21 43 -43z M389 633c0 -26 -16 -44 -42 -44c-24 0 -44 15 -44 44c0 27 18 43 44 43c31 0 42 -21 42 -43z" />
<glyph horiz-adv-x="740" d="M373 126l170 436h73l52 -562h-63l-42 461l-167 -432h-52l-173 433l-40 -462h-62l52 562h78zM412 702c0 -26 -18 -43 -42 -43c-23 0 -43 16 -43 43c0 26 18 44 43 44c27 0 42 -19 42 -44z" />
<glyph horiz-adv-x="264" d="M221 -102l-41 -7c-71 119 -114 226 -114 356c0 108 25 233 116 360l41 -8c-71 -120 -91 -205 -91 -354c0 -159 33 -234 89 -347z" />
<glyph unicode="&#x3bb;" horiz-adv-x="506" d="M501 -5c-6 -2 -19 -4 -30 -4c-61 0 -81 51 -105 117l-112 302l-183 -410h-59l214 481l-35 97c-23 67 -34 96 -82 96c-11 0 -23 -4 -35 -9l7 58c11 5 27 7 39 7c43 0 84 -22 116 -107l179 -480c26 -72 31 -95 66 -95c7 0 12 1 17 3z" />
<glyph unicode="&#x3b0;" horiz-adv-x="539" d="M364 480h58c45 -76 58 -160 58 -233c0 -149 -74 -257 -216 -257c-128 0 -196 76 -196 262v228h58v-220c0 -160 52 -216 151 -216c93 0 145 73 145 189c0 79 -11 162 -58 247zM259 550l-49 3l64 178l70 -11zM144 589c-24 0 -44 15 -44 44c0 27 18 43 44 43 c31 0 43 -21 43 -43c0 -26 -17 -44 -43 -44zM400 589c-24 0 -44 15 -44 44c0 27 18 43 44 43c31 0 42 -21 42 -43c0 -26 -16 -44 -42 -44z" />
<glyph unicode="&#x3b5;" horiz-adv-x="466" d="M434 23c-45 -22 -130 -33 -185 -33c-105 0 -188 40 -188 133c0 66 42 119 100 134c-39 13 -75 50 -75 104c0 94 86 129 188 129c58 0 113 -11 149 -26l-18 -52c-59 18 -102 24 -147 24c-54 0 -109 -18 -109 -64c0 -57 61 -97 124 -97h94v-52h-117 c-75 0 -126 -37 -126 -86c0 -71 71 -92 144 -92c50 0 112 13 152 27z" />
<glyph unicode="&#xd4;" horiz-adv-x="757" d="M684 366c0 -188 -107 -376 -311 -376c-224 0 -301 199 -301 367c0 208 120 373 311 373c182 0 301 -152 301 -364zM616 356c0 179 -94 315 -243 315c-140 0 -233 -135 -233 -305c0 -142 61 -317 243 -317c155 0 233 153 233 307zM492 789l-115 79l-118 -79l-31 40 l152 113l144 -114z" />
<glyph unicode="&#x3b8;" horiz-adv-x="556" d="M270 -10c-120 0 -217 110 -217 368c0 238 81 382 235 382c136 0 215 -142 215 -369c0 -237 -90 -381 -233 -381zM116 393h324c-6 188 -55 293 -170 293c-94 0 -149 -111 -154 -293zM440 341h-323c7 -213 68 -297 171 -297c93 0 148 114 152 297z" />
<glyph horiz-adv-x="700" d="M590 371v-337c-37 -23 -108 -44 -172 -44c-266 0 -346 174 -346 367c0 218 147 373 350 373c60 0 99 -9 149 -30l-16 -60c-48 20 -82 31 -143 31c-156 0 -272 -129 -272 -300c0 -177 63 -322 289 -322c37 0 72 8 97 21v301h64z" />
<glyph unicode="&#x16c;" horiz-adv-x="672" d="M335 -10c-154 0 -231 80 -231 250v480h64v-458c0 -149 52 -213 179 -213c95 0 182 57 182 198v473h58v-459c0 -196 -108 -271 -252 -271zM199 933h54c8 -48 41 -76 90 -76c45 0 81 26 87 76h55c-8 -89 -76 -134 -147 -134c-74 0 -132 49 -139 134z" />
<glyph horiz-adv-x="556" d="M273 -8c-110 0 -186 50 -186 174v396h62v-377c0 -101 56 -137 132 -137c106 0 145 60 145 168v346h56v-376c0 -125 -78 -194 -209 -194zM176 680v52h219v-52h-219z" />
<glyph unicode="&#x1e83;" horiz-adv-x="722" d="M506 111l150 369h56l-200 -480h-28l-125 343l-134 -343h-32l-182 480h62l141 -369l142 369h17zM391 551l-49 18l107 161l64 -29z" />
<glyph unicode="&#xc5;" horiz-adv-x="687" d="M596 0l-110 270h-288l-112 -270h-64l308 720h35l300 -720h-69zM344 615l-119 -287h236zM245 858c0 47 37 88 100 88c66 0 97 -35 97 -79c0 -61 -43 -89 -99 -89s-98 32 -98 80zM297 866c0 -27 21 -48 48 -48c28 0 45 17 45 41c0 26 -20 46 -47 46s-46 -14 -46 -39z" />
<glyph unicode="&#xb0;" horiz-adv-x="385" d="M330 593c0 -83 -65 -133 -138 -133c-76 0 -137 56 -137 133c0 73 65 133 137 133c84 0 138 -58 138 -133zM272 593c0 49 -33 79 -80 79c-39 0 -79 -27 -79 -79c0 -48 30 -79 79 -79c42 0 80 23 80 79z" />
<glyph unicode="&#x117;" horiz-adv-x="493" d="M405 86l19 -49c-33 -25 -105 -47 -162 -47c-134 0 -213 86 -213 247c0 136 74 253 220 253c106 0 173 -77 173 -194c0 -27 -4 -48 -7 -61h-323c2 -116 51 -191 160 -191c48 0 90 14 133 42zM118 287h261c3 88 -45 149 -121 149c-91 0 -136 -82 -140 -149zM293 645 c0 -26 -16 -45 -42 -45c-24 0 -44 16 -44 45c0 26 18 44 44 44c30 0 42 -22 42 -44z" />
<glyph unicode="&#x13e;" horiz-adv-x="207" d="M132 733v-733h-58v733h58zM307 764l-54 -205l-45 11l36 206z" />
<glyph unicode="+" horiz-adv-x="608" d="M276 68v208h-212v57h212v209h57v-209h212v-57h-212v-208h-57z" />
<glyph unicode=";" horiz-adv-x="298" d="M218 440c0 -27 -22 -49 -50 -49c-27 0 -49 22 -49 49c0 28 22 50 49 50c28 0 50 -22 50 -50zM195 89l-81 -235h-44l55 235h70z" />
<glyph unicode="&#x2083;" horiz-adv-x="348" d="M121 174h-23v44h31c52 0 98 30 98 68c0 32 -32 51 -81 51c-30 0 -57 -7 -83 -17l-8 45c25 11 62 18 99 18c82 0 132 -33 132 -88c0 -47 -33 -79 -72 -91c50 -10 87 -41 87 -87c0 -74 -64 -122 -154 -122c-39 0 -74 4 -101 15l12 46c31 -11 62 -15 96 -15 c51 0 88 28 88 67c0 45 -46 66 -121 66z" />
<glyph horiz-adv-x="480" d="M271 258v-258h-63v245l-186 317h74l144 -244l150 244h67zM203 702c0 -24 -19 -43 -43 -43c-23 0 -43 19 -43 43s20 43 43 43c24 0 43 -19 43 -43zM375 702c0 -24 -18 -43 -42 -43s-42 19 -42 43s18 43 42 43s42 -19 42 -43z" />
<glyph unicode="&#xf4;" horiz-adv-x="549" d="M499 246c0 -145 -86 -256 -233 -256c-120 0 -217 83 -217 243c0 146 85 257 236 257c134 0 214 -104 214 -244zM436 233c0 122 -59 203 -170 203c-98 0 -154 -89 -154 -190c0 -134 67 -202 173 -202c93 0 151 88 151 189zM388 559l-113 88l-115 -88l-31 38l149 129 l142 -127z" />
<glyph horiz-adv-x="764" d="M560 0h-50l-129 397l-130 -397h-51l-179 562h66l143 -445l144 445h25l140 -445l147 445h57zM339 702c0 -24 -19 -43 -43 -43c-23 0 -43 19 -43 43s20 43 43 43c24 0 43 -19 43 -43zM511 702c0 -24 -18 -43 -42 -43s-42 19 -42 43s18 43 42 43s42 -19 42 -43z" />
<glyph unicode="&#x17a;" horiz-adv-x="410" d="M264 428h-226v52h319l2 -6l-238 -422h256v-52h-351v9zM203 551l-49 18l107 161l64 -29z" />
<glyph horiz-adv-x="592" d="M442 0l-293 452v-452h-58v562h62l291 -449v449h58v-562h-60z" />
<glyph unicode="&#x170;" horiz-adv-x="672" d="M335 -10c-154 0 -231 80 -231 250v480h64v-458c0 -149 52 -213 179 -213c95 0 182 57 182 198v473h58v-459c0 -196 -108 -271 -252 -271zM257 789l-33 36l127 121l51 -52zM422 789l-35 33l154 124l54 -49z" />
<glyph unicode="8" horiz-adv-x="600" d="M68 168c0 109 73 171 154 207c-71 42 -131 91 -131 178c0 104 93 177 216 177c102 0 202 -56 202 -165c0 -101 -71 -155 -149 -192c87 -43 172 -97 172 -194c0 -124 -108 -189 -236 -189c-122 0 -228 71 -228 178zM469 166c0 85 -94 131 -184 176 c-83 -35 -154 -82 -154 -156c0 -97 89 -142 176 -142s162 35 162 122zM153 566c0 -79 69 -121 147 -161c78 31 146 73 146 143c0 74 -54 128 -150 128c-69 0 -143 -41 -143 -110z" />
<glyph unicode="&#x12e;" horiz-adv-x="278" d="M225 -128c-17 -22 -54 -49 -92 -49c-35 0 -80 24 -80 77c0 39 28 79 54 101v719h64v-720c-34 -24 -51 -63 -51 -94c0 -17 8 -30 26 -30c21 0 40 15 52 27z" />
<glyph horiz-adv-x="480" d="M271 258v-258h-63v245l-186 317h74l144 -244l150 244h67z" />
<glyph unicode="&#x13b;" horiz-adv-x="528" d="M483 0h-376v720h64v-662h312v-58zM310 -67l-65 -163h-45l47 163h63z" />
<glyph unicode="&#x389;" horiz-adv-x="716" d="M544 341h-373v-341h-64v720h64v-321h373v321h64v-720h-64v341zM-10 642l-49 3l64 178l70 -11z" />
<glyph horiz-adv-x="480" d="M271 258v-258h-63v245l-186 317h74l144 -244l150 244h67z" />
<glyph unicode="&#x121;" horiz-adv-x="525" d="M456 469v-392c0 -218 -80 -307 -241 -307c-44 0 -101 8 -133 25l10 61c34 -21 99 -32 137 -32c131 0 169 95 169 240v35c-34 -59 -97 -90 -167 -90c-112 0 -182 71 -182 201c0 166 97 280 267 280c56 0 92 -7 140 -21zM398 239v176c-13 7 -42 21 -95 21 c-135 0 -191 -98 -191 -211c0 -112 57 -162 131 -162c75 0 155 59 155 176zM327 645c0 -26 -16 -45 -42 -45c-24 0 -44 16 -44 45c0 26 18 44 44 44c30 0 42 -22 42 -44z" />
<glyph horiz-adv-x="631" d="M351 -8l12 56c94 -1 163 37 163 110c0 76 -46 118 -163 118h-83v-276h-63v508h-191v54h451v-54h-197v-179h86c172 0 226 -71 226 -165c0 -100 -84 -172 -241 -172z" />
<glyph horiz-adv-x="245" d="M154 562v-562h-63v562h63z" />
<glyph horiz-adv-x="245" d="M154 562v-562h-63v562h63zM112 639l-33 30l124 105l50 -43z" />
<glyph unicode="&#x2082;" horiz-adv-x="342" d="M54 318l-13 44c32 13 70 21 106 21c84 0 133 -36 133 -105c0 -86 -104 -176 -172 -234h190v-44h-253v53c59 47 176 149 176 216c0 34 -22 68 -81 68c-26 0 -58 -7 -86 -19z" />
<glyph unicode="&#x393;" horiz-adv-x="532" d="M171 0h-64v720h380v-58h-316v-662z" />
<glyph horiz-adv-x="593" d="M440 261h-286v-261h-63v562h63v-246h286v246h62v-562h-62v261zM391 640l-95 64l-98 -64l-28 38l128 93l123 -93z" />
<glyph unicode="&#x155;" horiz-adv-x="336" d="M322 419c-16 7 -40 11 -62 11c-88 0 -128 -84 -128 -193v-237h-58v480h58v-73c25 57 85 83 140 83c28 0 44 -3 60 -9zM200 551l-49 18l107 161l64 -29z" />
<glyph horiz-adv-x="466" d="M154 506v-191h250v-56h-250v-205h262v-54h-325v562h321v-56h-258zM335 640l-95 64l-98 -64l-28 38l128 93l123 -93z" />
<glyph unicode="&#xce;" horiz-adv-x="278" d="M171 720v-720h-64v720h64zM255 789l-115 79l-118 -79l-31 40l152 113l144 -114z" />
<glyph unicode="&#x3ad;" horiz-adv-x="466" d="M272 550l-49 3l64 178l70 -11zM434 23c-45 -22 -130 -33 -185 -33c-105 0 -188 40 -188 133c0 66 42 119 100 134c-39 13 -75 50 -75 104c0 94 86 129 188 129c58 0 113 -11 149 -26l-18 -52c-59 18 -102 24 -147 24c-54 0 -109 -18 -109 -64c0 -57 61 -97 124 -97h94 v-52h-117c-75 0 -126 -37 -126 -86c0 -71 71 -92 144 -92c50 0 112 13 152 27z" />
<glyph horiz-adv-x="520" d="M242 -55l34 51c-137 22 -215 127 -215 273c0 169 112 300 284 300c52 0 89 -6 125 -24l-13 -56c-28 13 -72 24 -121 24c-130 0 -208 -112 -208 -227c0 -131 65 -239 211 -239c41 0 90 16 125 41l23 -47c-35 -29 -90 -50 -168 -49l-17 -26c29 -5 47 -26 47 -50 c0 -41 -33 -65 -86 -65c-11 0 -26 2 -43 7l13 36c8 -2 20 -6 30 -6c12 0 27 7 27 23c0 19 -21 29 -48 34z" />
<glyph unicode="&#x113;" horiz-adv-x="493" d="M405 86l19 -49c-33 -25 -105 -47 -162 -47c-134 0 -213 86 -213 247c0 136 74 253 220 253c106 0 173 -77 173 -194c0 -27 -4 -48 -7 -61h-323c2 -116 51 -191 160 -191c48 0 90 14 133 42zM118 287h261c3 88 -45 149 -121 149c-91 0 -136 -82 -140 -149zM123 606v49h256 v-49h-256z" />
<glyph horiz-adv-x="588" d="M68 155c0 106 74 154 152 187c-68 38 -130 87 -130 160c0 98 97 163 210 163c101 0 199 -52 199 -152c0 -91 -72 -140 -146 -175c83 -39 167 -87 167 -172c0 -115 -98 -175 -231 -175c-113 0 -221 67 -221 164zM457 152c0 77 -87 118 -175 158 c-79 -31 -151 -66 -151 -139c0 -86 93 -126 169 -126c85 0 157 31 157 107zM153 515c0 -71 65 -112 140 -147c74 29 143 62 143 131c0 64 -53 112 -147 112c-66 0 -136 -35 -136 -96z" />
<glyph unicode="5" horiz-adv-x="537" d="M130 668v-241c23 7 61 12 98 12c165 0 246 -91 246 -211c0 -145 -107 -238 -258 -238c-67 0 -130 14 -172 36l17 56c49 -24 104 -38 169 -38c106 0 181 70 181 170c0 112 -79 171 -199 171c-38 0 -73 -8 -109 -19l-31 9v345h356v-52h-298z" />
<glyph unicode="{" horiz-adv-x="360" d="M219 156v-151c0 -94 48 -103 82 -109l-2 -41c-102 14 -144 68 -144 176v123c0 94 -14 112 -78 152v28c74 45 78 66 78 152v123c0 98 33 158 144 176l2 -44c-66 -10 -82 -49 -82 -119v-138c0 -76 -12 -118 -77 -164c60 -43 77 -81 77 -164z" />
<glyph horiz-adv-x="515" d="M421 0l-167 249l-164 -249h-69l199 301l-173 261h72l141 -212l140 212h68l-175 -263l201 -299h-73z" />
<glyph unicode="&#x3c0;" horiz-adv-x="541" d="M489 48l-12 -54c-84 0 -113 54 -113 136v298h-203v-428h-58v428h-75v52h469v-52h-75v-268c0 -89 18 -109 67 -112z" />
<glyph unicode="&#x169;" horiz-adv-x="523" d="M70 178v302h58v-286c0 -107 30 -150 106 -150c93 0 156 89 156 211v225h58v-480h-58v87c-27 -57 -90 -97 -166 -97c-102 0 -154 52 -154 188zM170 587l-49 12c17 65 46 94 92 94c54 0 97 -58 128 -58c14 0 22 25 30 57l49 -10c-20 -73 -40 -104 -86 -104 c-57 0 -90 59 -128 59c-9 0 -26 -20 -36 -50z" />
<glyph horiz-adv-x="571" d="M479 0l-82 198h-224l-85 -198h-67l243 562h50l236 -562h-71zM286 469l-91 -215h180zM269 639l-33 30l124 105l50 -43z" />
<glyph horiz-adv-x="445" d="M53 19l13 62c35 -18 82 -33 132 -33c65 0 131 27 131 98c0 56 -55 83 -113 112c-75 38 -160 73 -160 161c0 93 70 150 188 150c48 0 89 -8 122 -21l-11 -60c-38 17 -70 25 -118 25c-69 0 -113 -22 -113 -81c0 -58 51 -84 106 -110c66 -31 167 -63 167 -163 c0 -111 -92 -167 -205 -167c-51 0 -96 11 -139 27zM327 640l-95 64l-98 -64l-28 38l128 93l123 -93z" />
<glyph unicode="&#x165;" horiz-adv-x="331" d="M300 428h-141v-262c0 -71 11 -122 71 -122c22 0 48 6 69 16l11 -44c-24 -17 -58 -26 -88 -26c-94 0 -121 61 -121 162v276h-87v52h87v125l58 15v-140h141v-52zM342 730l-66 -169l-45 4l47 177z" />
<glyph unicode="&#xfd;" horiz-adv-x="470" d="M212 8l-202 472h63l169 -395l167 395h59l-202 -480l-98 -230h-56zM249 551l-49 18l107 161l64 -29z" />
<glyph unicode="&#x207d;" horiz-adv-x="229" d="M192 267l-41 -13c-51 73 -87 153 -87 248c0 90 26 174 90 254l40 -11c-53 -76 -73 -156 -73 -239c0 -89 33 -173 71 -239z" />
<glyph d="M104 12l10 58c32 -15 80 -26 125 -26c129 0 184 119 200 242c2 19 5 44 12 67l-2 1c-6 -11 -19 -29 -36 -45c-36 -34 -94 -52 -152 -52c-128 0 -208 92 -208 227c0 148 102 247 237 247c159 0 222 -142 222 -278c0 -242 -64 -463 -285 -463c-47 0 -94 8 -123 22zM116 498 c0 -104 60 -187 155 -187c99 0 174 77 174 173c0 103 -56 192 -172 192c-86 0 -157 -71 -157 -178z" />
<glyph horiz-adv-x="451" d="M153 54h244v-54h-306v562h62v-508zM369 297c0 -25 -20 -45 -45 -45s-44 20 -44 45s19 45 44 45s45 -20 45 -45z" />
<glyph unicode="&#xfe;" horiz-adv-x="531" d="M132 -1v-229h-58v960h58v-316c34 49 82 76 162 76c116 0 188 -97 188 -230c0 -168 -112 -270 -260 -270c-37 0 -68 5 -90 9zM132 262v-200c27 -12 65 -18 105 -18c112 0 181 84 181 202c0 101 -52 190 -137 190c-98 0 -149 -86 -149 -174z" />
<glyph unicode="&#xc1;" horiz-adv-x="687" d="M596 0l-110 270h-288l-112 -270h-64l308 720h35l300 -720h-69zM344 615l-119 -287h236zM342 788l-38 30l149 128l57 -44z" />
<glyph horiz-adv-x="571" d="M479 0l-82 198h-224l-85 -198h-67l243 562h50l236 -562h-71zM286 469l-91 -215h180zM176 680v52h219v-52h-219z" />
<glyph horiz-adv-x="765" d="M749 0h-89l-246 275v-275h-63v275l-246 -275h-89l277 302l-144 149c-43 47 -70 60 -93 60c-9 0 -18 -1 -27 -5l-13 58c15 3 26 5 38 5c56 0 95 -35 149 -94l148 -155v249h63v-249l147 155c55 59 94 94 150 94c13 0 24 -2 38 -5l-13 -58c-10 4 -18 5 -27 5 c-24 0 -50 -13 -93 -60l-144 -149z" />
<glyph unicode="&#x2089;" horiz-adv-x="378" d="M77 8l10 47c21 -7 46 -14 77 -14c83 0 94 63 112 127l-1 1c-21 -26 -54 -40 -97 -40c-79 0 -127 49 -127 122c0 78 60 132 145 132c97 0 137 -71 137 -160c0 -120 -42 -228 -177 -228c-32 0 -60 5 -79 13zM110 260c0 -47 29 -85 78 -85c47 0 86 36 86 76 c0 47 -31 86 -87 86c-44 0 -77 -33 -77 -77z" />
<glyph unicode="&#x15e;" horiz-adv-x="537" d="M192 -69l37 59c-55 0 -112 11 -169 36l15 65c44 -22 113 -42 163 -42c84 0 174 37 174 134c0 76 -68 115 -143 153c-95 50 -204 96 -204 206c0 115 88 188 227 188c55 0 108 -9 154 -30l-12 -61c-48 21 -87 32 -149 32c-94 0 -149 -34 -149 -114c0 -72 62 -112 134 -149 c97 -50 213 -96 213 -211c0 -120 -84 -187 -197 -203l-24 -38c33 -6 52 -33 52 -63c0 -48 -34 -79 -103 -79c-10 0 -26 0 -47 8l14 42c8 -2 24 -7 37 -7c15 0 34 9 34 31c0 23 -25 36 -57 43z" />
<glyph unicode="&#x16f;" horiz-adv-x="523" d="M70 178v302h58v-286c0 -107 30 -150 106 -150c93 0 156 89 156 211v225h58v-480h-58v87c-27 -57 -90 -97 -166 -97c-102 0 -154 52 -154 188zM161 634c0 49 41 91 101 91c65 0 99 -35 99 -83c0 -62 -43 -91 -100 -91s-100 34 -100 83zM215 642c0 -27 21 -50 47 -50 c28 0 44 17 44 43c0 27 -19 49 -46 49c-26 0 -45 -16 -45 -42z" />
<glyph unicode="&#x25ca;" horiz-adv-x="493" d="M212 714h74l184 -359l-182 -350h-86l-179 343zM247 50l156 306l-156 300l-159 -303z" />
<glyph unicode="&#x444;" horiz-adv-x="646" d="M351 -230h-58v220c-158 3 -244 81 -244 250c0 147 98 242 244 250v240h58v-240c144 0 245 -80 245 -250c0 -147 -94 -250 -245 -250v-220zM293 44v392c-125 0 -181 -88 -181 -194c0 -112 61 -198 181 -198zM351 44c129 0 182 85 182 198c0 107 -65 194 -182 194v-392z " />
<glyph unicode="&#x15f;" horiz-adv-x="412" d="M131 -69l38 60c-48 2 -89 13 -122 28l15 60c30 -18 86 -35 135 -35c54 0 109 30 109 78c0 108 -257 99 -257 240c0 76 75 128 167 128c52 0 92 -10 123 -24l-13 -53c-27 11 -74 23 -119 23c-55 0 -95 -28 -95 -62c0 -99 257 -94 257 -240c0 -81 -67 -130 -145 -141 l-23 -37c36 -9 53 -33 53 -63c0 -48 -35 -79 -103 -79c-15 0 -33 3 -47 8l13 42c10 -4 24 -7 37 -7c23 0 37 12 37 31c0 23 -24 37 -60 43z" />
<glyph horiz-adv-x="276" d="M156 252l17 -431h-74l21 431h36zM93 346c0 25 21 44 45 44c26 0 45 -19 45 -44s-19 -46 -45 -46c-24 0 -45 21 -45 46z" />
<glyph unicode="&#x15b;" horiz-adv-x="412" d="M326 413c-27 11 -74 23 -119 23c-55 0 -95 -26 -95 -62c0 -102 257 -91 257 -240c0 -93 -89 -144 -182 -144c-55 0 -103 12 -140 29l15 60c30 -18 86 -35 135 -35c54 0 109 30 109 78c0 111 -257 95 -257 240c0 79 75 128 167 128c52 0 92 -10 123 -24zM221 551l-49 18 l107 161l64 -29z" />
<glyph unicode="&#xfc;" horiz-adv-x="523" d="M70 178v302h58v-286c0 -107 30 -150 106 -150c93 0 156 89 156 211v225h58v-480h-58v87c-27 -57 -90 -97 -166 -97c-102 0 -154 52 -154 188zM221 633c0 -26 -17 -44 -43 -44c-24 0 -44 15 -44 44c0 27 18 43 44 43c31 0 43 -21 43 -43zM394 633c0 -26 -16 -44 -42 -44 c-24 0 -44 15 -44 44c0 27 18 43 44 43c31 0 42 -21 42 -43z" />
<glyph unicode="&#x391;" horiz-adv-x="699" d="M598 0l-110 270h-288l-112 -270h-64l308 720h35l300 -720h-69zM346 615l-119 -287h236z" />
<glyph unicode="&#xd3;" horiz-adv-x="757" d="M684 366c0 -188 -107 -376 -311 -376c-224 0 -301 199 -301 367c0 208 120 373 311 373c182 0 301 -152 301 -364zM616 356c0 179 -94 315 -243 315c-140 0 -233 -135 -233 -305c0 -142 61 -317 243 -317c155 0 233 153 233 307zM374 788l-38 30l149 128l57 -44z" />
<glyph horiz-adv-x="245" d="M154 562v-562h-63v562h63z" />
<glyph unicode="&#xf9;" horiz-adv-x="523" d="M70 178v302h58v-286c0 -107 30 -150 106 -150c93 0 156 89 156 211v225h58v-480h-58v87c-27 -57 -90 -97 -166 -97c-102 0 -154 52 -154 188zM294 569l-50 -18l-121 150l63 29z" />
<glyph horiz-adv-x="466" d="M154 506v-191h250v-56h-250v-205h262v-54h-325v562h321v-56h-258zM146 771l94 -63l98 63l29 -36l-130 -95l-121 94z" />
<glyph unicode="&#x412;" horiz-adv-x="601" d="M107 8v703c49 13 108 19 174 19c123 0 228 -44 228 -163c0 -83 -53 -154 -125 -178v-2c85 -16 149 -82 149 -171c0 -135 -98 -226 -277 -226c-52 0 -115 8 -149 18zM171 342v-282c25 -7 63 -11 102 -11c112 0 192 53 192 152c0 85 -75 141 -179 141h-115zM171 661v-261 h60c95 0 210 53 210 153c0 89 -79 118 -180 118c-27 0 -72 -5 -90 -10z" />
<glyph unicode="&#x2075;" horiz-adv-x="357" d="M115 676v-102c12 3 30 5 47 5c93 0 142 -47 142 -111c0 -84 -66 -131 -161 -131c-38 0 -71 6 -97 16l13 47c24 -10 60 -17 94 -17c55 0 93 28 93 76c0 45 -36 73 -95 73c-20 0 -39 -3 -57 -9l-31 9v188h215v-44h-163z" />
<glyph horiz-adv-x="465" d="M152 506v-191h251v-56h-251v-205h262v-54h-325v562h321v-56h-258zM208 702c0 -23 -19 -40 -43 -40c-23 0 -41 17 -41 40s18 40 41 40c24 0 43 -17 43 -40zM376 702c0 -23 -18 -40 -42 -40c-22 0 -40 17 -40 40s18 40 40 40c24 0 42 -17 42 -40z" />
<glyph d="M410 -149h-58v217h-319l-6 61l316 381h67v-391h127v-51h-127v-217zM84 119h268v320z" />
<glyph unicode="&#x410;" horiz-adv-x="687" d="M596 0l-110 270h-288l-112 -270h-64l308 720h35l300 -720h-69zM344 615l-119 -287h236z" />
<glyph horiz-adv-x="507" d="M154 320l230 242h79l-251 -260l277 -302h-89l-246 275v-275h-63v562h63v-242z" />
<glyph unicode="(" horiz-adv-x="313" d="M275 -149l-44 -1c-79 132 -144 259 -144 444c0 173 39 318 154 474l39 -1c-99 -166 -128 -314 -128 -463c0 -177 66 -333 123 -453z" />
<glyph unicode="&#xf3;" horiz-adv-x="549" d="M499 246c0 -145 -86 -256 -233 -256c-120 0 -217 83 -217 243c0 146 85 257 236 257c134 0 214 -104 214 -244zM436 233c0 122 -59 203 -170 203c-98 0 -154 -89 -154 -190c0 -134 67 -202 173 -202c93 0 151 88 151 189zM293 551l-49 18l107 161l64 -29z" />
<glyph unicode="&#x1ef2;" horiz-adv-x="584" d="M323 323v-323h-64v322l-233 398h74l195 -331l194 331h69zM335 818l-41 -31l-166 114l58 45z" />
<glyph horiz-adv-x="526" d="M130 459v-214c22 7 58 10 94 10c161 0 240 -82 240 -192c0 -134 -105 -218 -252 -218c-72 0 -135 11 -163 28l12 59c29 -18 86 -34 163 -34c105 0 177 62 177 152c0 99 -77 152 -193 152c-36 0 -70 -7 -105 -16l-31 8v316h347v-51h-289z" />
<glyph unicode="&#x158;" horiz-adv-x="600" d="M551 0h-66l-61 192c-35 112 -72 143 -189 143h-67v-335h-61v713c67 11 120 17 181 17c134 0 223 -59 223 -176c0 -101 -79 -178 -140 -187c56 -13 80 -53 103 -126zM168 661v-270h89c119 0 188 71 188 154c0 82 -63 127 -170 127c-44 0 -79 -6 -107 -11zM175 942l114 -79 l118 79l32 -40l-153 -113l-143 114z" />
<glyph horiz-adv-x="618" d="M305 -8c-178 0 -244 151 -244 285c0 174 105 292 252 292c149 0 244 -119 244 -284c0 -150 -88 -293 -252 -293zM313 48c109 0 176 100 176 229c0 115 -63 236 -184 236c-119 0 -176 -129 -176 -228c0 -124 58 -237 184 -237z" />
<glyph horiz-adv-x="503" d="M487 0h-89l-246 275v-275h-63v562h63v-242l148 155c54 59 93 94 150 94c12 0 23 -2 37 -5l-13 -58c-9 4 -17 5 -27 5c-23 0 -50 -13 -93 -60l-144 -149z" />
<glyph horiz-adv-x="676" d="M590 371v-337c-37 -23 -108 -44 -172 -44c-266 0 -346 174 -346 367c0 218 147 373 350 373c60 0 99 -9 149 -30l-16 -60c-48 20 -82 31 -143 31c-156 0 -272 -129 -272 -300c0 -177 63 -322 289 -322c37 0 72 8 97 21v301h64zM437 859c0 -26 -17 -44 -44 -44 c-24 0 -46 16 -46 44s20 46 46 46c31 0 44 -22 44 -46z" />
<glyph unicode="&#x38f;" horiz-adv-x="786" d="M748 51v-51h-294v62c102 32 196 165 196 300c0 163 -100 309 -263 309c-168 0 -251 -143 -251 -303c0 -117 91 -261 191 -300v-68h-281v51h202c-101 52 -181 203 -181 311c0 237 149 368 330 368c195 0 321 -137 321 -362c0 -104 -62 -241 -173 -317h203zM11 642l-49 3 l64 178l70 -11z" />
<glyph unicode="&#xd9;" horiz-adv-x="672" d="M335 -10c-154 0 -231 80 -231 250v480h64v-458c0 -149 52 -213 179 -213c95 0 182 57 182 198v473h58v-459c0 -196 -108 -271 -252 -271zM378 818l-41 -31l-166 114l58 45z" />
<glyph unicode="&#xed;" horiz-adv-x="207" d="M120 551l-49 18l107 161l64 -29zM132 480v-480h-58v480h58z" />
<glyph unicode="&#x39f;" horiz-adv-x="757" d="M684 366c0 -188 -107 -376 -311 -376c-224 0 -301 199 -301 367c0 208 120 373 311 373c182 0 301 -152 301 -364zM616 356c0 179 -94 315 -243 315c-140 0 -233 -135 -233 -305c0 -142 61 -317 243 -317c155 0 233 153 233 307z" />
<glyph horiz-adv-x="618" d="M557 285c0 -150 -88 -293 -251 -293c-179 0 -245 151 -245 285c0 174 106 292 253 292c148 0 243 -119 243 -284zM490 277c0 115 -63 236 -184 236c-120 0 -177 -129 -177 -228c0 -124 59 -237 185 -237c109 0 176 100 176 229zM267 702c0 -24 -19 -43 -43 -43 c-23 0 -43 19 -43 43s20 43 43 43c24 0 43 -19 43 -43zM439 702c0 -24 -18 -43 -42 -43s-42 19 -42 43s18 43 42 43s42 -19 42 -43z" />
<glyph horiz-adv-x="455" d="M150 266h-32v50h43c39 0 139 20 139 113c0 51 -33 88 -117 88c-43 0 -82 -8 -115 -29l-6 55c55 24 88 26 132 26c108 0 173 -60 173 -128c0 -74 -50 -123 -106 -139c71 -8 127 -64 127 -131c0 -116 -91 -179 -205 -179c-51 0 -108 9 -138 23l12 53 c33 -14 102 -24 137 -24c76 0 126 49 126 115c0 69 -50 107 -170 107z" />
<glyph unicode="&#x10d;" horiz-adv-x="443" d="M399 80l19 -51c-51 -27 -99 -39 -150 -39c-137 0 -219 89 -219 249c0 146 103 251 237 251c36 0 75 -5 105 -16l-12 -55c-32 12 -67 17 -103 17c-99 0 -164 -82 -164 -192c0 -133 67 -200 172 -200c49 0 100 26 115 36zM154 725l113 -89l116 89l31 -39l-149 -128 l-142 127z" />
<glyph unicode="&#x2078;" horiz-adv-x="393" d="M55 437c0 51 40 81 85 101c-40 20 -73 44 -73 87c0 60 59 100 134 100c66 0 125 -31 125 -90c0 -47 -38 -73 -81 -92c48 -20 93 -47 93 -98c0 -66 -65 -108 -144 -108c-75 0 -139 37 -139 100zM281 436c0 39 -47 60 -94 80c-41 -17 -75 -38 -75 -71c0 -41 44 -63 89 -63 c44 0 80 18 80 54zM124 634c0 -34 34 -53 75 -70c38 15 70 34 70 64c0 28 -27 52 -75 52c-36 0 -70 -17 -70 -46z" />
<glyph horiz-adv-x="590" d="M345 0l10 163h-125l-10 -163h-52l10 163h-117v52h121l8 136h-129v52h132l11 165h52l-11 -165h124l11 165h52l-11 -165h107v-52h-110l-8 -136h118v-52h-121l-10 -163h-52zM242 351l-8 -136h124l8 136h-124z" />
<glyph horiz-adv-x="571" d="M479 0l-82 198h-224l-85 -198h-67l243 562h50l236 -562h-71zM286 469l-91 -215h180z" />
<glyph d="M419 0h-58v240h-331l-4 64l326 416h67v-428h119v-52h-119v-240zM83 292h278v356z" />
<glyph horiz-adv-x="571" d="M479 0l-82 198h-224l-85 -198h-67l243 562h50l236 -562h-71zM286 469l-91 -215h180zM243 702c0 -24 -19 -43 -43 -43c-23 0 -43 19 -43 43s20 43 43 43c24 0 43 -19 43 -43zM415 702c0 -24 -18 -43 -42 -43s-42 19 -42 43s18 43 42 43s42 -19 42 -43z" />
<glyph unicode="&#x44f;" horiz-adv-x="413" d="M338 0h-58v218h-62c-63 0 -95 -26 -116 -93l-39 -125h-61l37 116c28 90 54 120 95 129c-52 11 -102 55 -102 114c0 95 78 132 178 132c37 0 84 -3 128 -10v-481zM280 270v161c-16 3 -49 6 -76 6c-68 0 -109 -20 -109 -72c0 -58 70 -95 138 -95h47z" />
<glyph unicode="&#x163;" horiz-adv-x="331" d="M300 428h-141v-262c0 -71 11 -122 71 -122c22 0 48 6 69 16l11 -44c-24 -17 -58 -26 -88 -26c-94 0 -121 61 -121 162v276h-87v52h87v125l58 15v-140h141v-52zM236 -67l-65 -163h-45l47 163h63z" />
<glyph unicode="&#x449;" horiz-adv-x="649" d="M618 -94h-58v94h-486v480h58v-428h167v428h58v-428h166v428h58v-428h37v-146z" />
<glyph unicode="&#x100;" horiz-adv-x="687" d="M596 0l-110 270h-288l-112 -270h-64l308 720h35l300 -720h-69zM344 615l-119 -287h236zM213 841v51h263v-51h-263z" />
<glyph unicode="&#x452;" horiz-adv-x="567" d="M302 -220l5 55c18 -6 40 -11 61 -11c63 0 71 63 71 127v339c0 93 -30 146 -113 146c-92 0 -153 -94 -153 -191v-245h-58v578h-114v52h114v100h58v-100h175v-52h-175v-179c33 59 95 91 163 91c103 0 161 -56 161 -182v-344c0 -124 -25 -194 -137 -194c-19 0 -38 3 -58 10z " />
<glyph unicode="&#x153;" horiz-adv-x="883" d="M795 86l19 -49c-33 -25 -105 -47 -162 -47c-90 0 -155 38 -188 111c-38 -68 -106 -111 -198 -111c-120 0 -217 83 -217 243c0 146 85 257 236 257c87 0 151 -44 185 -113c35 67 98 113 189 113c106 0 173 -77 173 -194c0 -27 -4 -48 -7 -61h-323c2 -116 51 -191 160 -191 c48 0 90 14 133 42zM436 233c0 122 -59 203 -170 203c-98 0 -154 -89 -154 -190c0 -134 67 -202 173 -202c93 0 151 88 151 189zM508 287h261c3 88 -45 149 -121 149c-91 0 -136 -82 -140 -149z" />
<glyph horiz-adv-x="764" d="M560 0h-50l-129 397l-130 -397h-51l-179 562h66l143 -445l144 445h25l140 -445l147 445h57zM380 639l-33 30l124 105l50 -43z" />
<glyph horiz-adv-x="556" d="M273 -8c-110 0 -186 50 -186 174v396h62v-377c0 -101 56 -137 132 -137c106 0 145 60 145 168v346h56v-376c0 -125 -78 -194 -209 -194zM340 669l-37 -30l-139 91l51 44z" />
<glyph unicode="&#xe3;" horiz-adv-x="486" d="M416 0h-58v37c0 18 1 37 4 52l-2 1c-8 -16 -18 -29 -32 -42c-39 -36 -88 -58 -147 -58c-79 0 -137 45 -137 120c0 138 158 179 314 187v33c0 75 -30 106 -109 106c-52 0 -113 -15 -154 -39l-12 57c48 21 103 36 172 36c112 0 161 -47 161 -136v-354zM357 245 c-116 -2 -250 -33 -250 -120c0 -50 35 -81 86 -81c76 0 164 68 164 170v31zM148 587l-49 12c17 65 46 94 92 94c54 0 97 -58 128 -58c14 0 22 25 30 57l49 -10c-20 -73 -40 -104 -86 -104c-57 0 -90 59 -128 59c-9 0 -26 -20 -36 -50z" />
<glyph unicode="&#x207e;" horiz-adv-x="229" d="M37 744l41 12c52 -73 87 -153 87 -247c0 -91 -26 -175 -90 -255l-40 12c53 75 72 156 72 238c0 90 -32 174 -70 240z" />
<glyph unicode="&#x14f;" horiz-adv-x="549" d="M499 246c0 -145 -86 -256 -233 -256c-120 0 -217 83 -217 243c0 146 85 257 236 257c134 0 214 -104 214 -244zM436 233c0 122 -59 203 -170 203c-98 0 -154 -89 -154 -190c0 -134 67 -202 173 -202c93 0 151 88 151 189zM135 706h51c8 -58 40 -86 90 -86 c45 0 82 27 90 86h48c-8 -100 -74 -141 -143 -141c-72 0 -130 46 -136 141z" />
<glyph horiz-adv-x="587" d="M553 -115h-65v115h-389v-115h-65v169h28c39 0 66 36 72 122l32 386h337v-508h50v-169zM441 54v452h-216l-28 -315c-7 -82 -15 -116 -52 -137h296z" />
<glyph unicode="&#x137;" horiz-adv-x="447" d="M442 0h-84l-226 251v-251h-58v733h58v-450l221 197h84l-238 -213zM255 -67l-65 -163h-45l47 163h63z" />
<glyph unicode="&#x108;" horiz-adv-x="640" d="M575 100l24 -48c-46 -38 -119 -62 -200 -62c-209 0 -327 165 -327 354c0 214 134 386 350 386c58 0 117 -12 157 -33l-16 -59c-34 18 -98 33 -150 33c-174 0 -273 -152 -273 -303c0 -172 91 -319 270 -319c57 0 121 20 165 51zM534 789l-115 79l-118 -79l-31 40l152 113 l144 -114z" />
<glyph horiz-adv-x="740" d="M373 126l170 436h73l52 -562h-63l-42 461l-167 -432h-52l-173 433l-40 -462h-62l52 562h78z" />
<glyph horiz-adv-x="280" d="M143 550v-601h91v-53h-146v707h146v-53h-91z" />
<glyph horiz-adv-x="466" d="M154 506v-191h250v-56h-250v-205h262v-54h-325v562h321v-56h-258zM287 669l-37 -30l-139 91l51 44z" />
<glyph horiz-adv-x="366" d="M321 0h-234l-4 31c19 20 36 47 36 91c0 15 -3 31 -5 49h-63v45h56c-1 12 -2 25 -2 37c0 81 40 130 143 130c27 0 57 -5 74 -11l-10 -47c-18 6 -46 12 -73 12c-60 0 -75 -25 -75 -76c0 -14 1 -29 3 -45h104v-45h-97c2 -14 3 -27 3 -39c0 -35 -10 -67 -26 -88h170v-44z" />
<glyph unicode="&#x398;" horiz-adv-x="757" d="M520 332h-283v58h283v-58zM373 -10c-224 0 -301 202 -301 367c0 224 136 373 311 373c182 0 301 -152 301 -364c0 -188 -107 -376 -311 -376zM383 49c141 0 233 132 233 307c0 148 -84 315 -243 315c-155 0 -232 -174 -232 -305c0 -164 75 -317 242 -317z" />
<glyph horiz-adv-x="507" d="M154 320l230 242h79l-251 -260l277 -302h-89l-246 275v-275h-63v562h63v-242z" />
<glyph horiz-adv-x="767" d="M718 0h-316c-27 -5 -57 -8 -88 -8c-179 0 -251 151 -251 285c0 174 112 292 259 292c32 0 61 -3 85 -7h307v-56h-250v-191h243v-56h-243v-205h254v-54zM401 57v446c-26 6 -57 10 -87 10c-121 0 -185 -129 -185 -228c0 -124 67 -237 193 -237c27 0 55 2 79 9z" />
<glyph unicode="&#xf7;" horiz-adv-x="534" d="M318 69c0 -29 -22 -51 -51 -51s-51 22 -51 51s22 52 51 52s51 -23 51 -52zM26 210v57h481v-57h-481zM318 406c0 -29 -22 -51 -51 -51s-51 22 -51 51s22 51 51 51s51 -22 51 -51z" />
<glyph horiz-adv-x="524" d="M469 90l24 -49c-33 -26 -91 -49 -165 -49c-166 0 -267 112 -267 277c0 169 114 300 284 300c52 0 89 -6 125 -24l-12 -57c-27 13 -73 25 -120 25c-131 0 -209 -112 -209 -227c0 -130 64 -238 210 -238c42 0 95 17 130 42zM306 639l-33 30l124 105l50 -43z" />
<glyph unicode="&#x14c;" horiz-adv-x="757" d="M684 366c0 -188 -107 -376 -311 -376c-224 0 -301 199 -301 367c0 208 120 373 311 373c182 0 301 -152 301 -364zM616 356c0 179 -94 315 -243 315c-140 0 -233 -135 -233 -305c0 -142 61 -317 243 -317c155 0 233 153 233 307zM243 841v51h263v-51h-263z" />
<glyph unicode="&#x133;" horiz-adv-x="390" d="M132 480v-480h-58v480h58zM146 625c0 -26 -17 -44 -43 -44c-24 0 -43 16 -43 44c0 26 17 44 43 44c30 0 43 -22 43 -44zM131 -164c18 -7 41 -12 60 -12c57 0 71 54 71 127v529h58v-516c0 -117 -25 -194 -137 -194c-19 0 -44 3 -59 11zM334 625c0 -26 -17 -44 -43 -44 c-24 0 -43 16 -43 44c0 26 17 44 43 44c30 0 43 -22 43 -44z" />
<glyph unicode="&#xe5;" horiz-adv-x="486" d="M416 0h-58v37c0 18 1 37 4 52l-2 1c-8 -16 -18 -29 -32 -42c-39 -36 -88 -58 -147 -58c-79 0 -137 45 -137 120c0 138 158 179 314 187v33c0 75 -30 106 -109 106c-52 0 -113 -15 -154 -39l-12 57c48 21 103 36 172 36c112 0 161 -47 161 -136v-354zM357 245 c-116 -2 -250 -33 -250 -120c0 -50 35 -81 86 -81c76 0 164 68 164 170v31zM142 634c0 49 41 91 101 91c65 0 99 -35 99 -83c0 -62 -43 -91 -100 -91s-100 34 -100 83zM196 642c0 -27 21 -50 47 -50c28 0 44 17 44 43c0 27 -19 49 -46 49c-26 0 -45 -16 -45 -42z" />
<glyph horiz-adv-x="480" d="M271 508v-508h-62v508h-181v54h424v-54h-181zM276 -39l-55 -140h-47l33 140h69z" />
<glyph horiz-adv-x="911" d="M499 0h-59l-293 452v-452h-58v562h63l289 -449v449h58v-562zM718 209c-78 0 -140 48 -140 147c0 89 55 157 148 157s141 -69 141 -148c0 -96 -65 -156 -149 -156zM726 259c53 0 79 46 79 97c0 62 -23 107 -87 107c-51 0 -79 -45 -79 -98c0 -69 32 -106 87 -106zM822 82 h-205v53h205v-53z" />
<glyph unicode="&#x132;" horiz-adv-x="642" d="M171 720v-720h-64v720h64zM384 49c73 0 96 60 96 173v498h64v-481c0 -156 -31 -249 -177 -249c-33 0 -78 13 -103 27l16 57c30 -13 66 -25 104 -25z" />
<glyph horiz-adv-x="480" d="M271 258v-258h-63v245l-186 317h74l144 -244l150 244h67zM286 669l-37 -30l-139 91l51 44z" />
<glyph unicode="&#x433;" horiz-adv-x="367" d="M132 0h-58v480h269v-52h-211v-428z" />
<glyph unicode="&#xde;" horiz-adv-x="571" d="M171 0h-64v720h64v-131c39 4 81 8 121 8c156 0 232 -93 232 -197c0 -169 -146 -238 -314 -238h-39v-162zM171 526v-309h56c122 0 229 57 229 166c0 104 -68 154 -176 154c-45 0 -83 -6 -109 -11z" />
<glyph unicode="&#x399;" horiz-adv-x="278" d="M171 720v-720h-64v720h64z" />
<glyph unicode="&#xa7;" horiz-adv-x="471" d="M48 -63l14 52c27 -16 71 -28 135 -28c89 0 151 50 151 98c0 63 -32 76 -162 126c-117 47 -142 83 -142 147c0 80 67 139 142 145c-33 6 -123 40 -123 130c0 108 122 149 224 149c43 0 81 -9 113 -21l-11 -51c-27 11 -69 18 -115 18c-73 0 -148 -23 -148 -85 c0 -57 70 -83 152 -113c66 -26 161 -65 162 -149c1 -4 8 -116 -126 -149c28 -9 99 -38 99 -130c0 -131 -127 -170 -215 -170c-52 0 -104 12 -150 31zM225 456c-13 -2 -111 -20 -111 -111c0 -79 85 -96 160 -121c71 24 103 62 103 107c0 112 -151 121 -152 125z" />
<glyph unicode="9" horiz-adv-x="595" d="M115 12l9 58c34 -15 82 -26 127 -26c130 0 186 119 202 242c2 19 5 44 12 67l-2 1c-6 -11 -19 -29 -35 -45c-38 -34 -95 -52 -154 -52c-129 0 -210 92 -210 227c0 148 103 246 239 246c160 0 223 -141 223 -277c0 -242 -64 -463 -288 -463c-46 0 -94 8 -123 22zM127 498 c0 -104 61 -187 156 -187c91 0 180 77 180 173c0 103 -61 192 -178 192c-86 0 -158 -71 -158 -178z" />
<glyph horiz-adv-x="592" d="M442 0l-293 452v-452h-58v562h62l291 -449v449h58v-562h-60zM217 664l-45 11c13 49 37 79 78 79c43 0 74 -42 98 -42c14 0 20 17 26 38l48 -9c-16 -56 -40 -84 -80 -84c-43 0 -67 44 -98 44c-10 0 -19 -16 -27 -37z" />
<glyph unicode="&#x208e;" horiz-adv-x="221" d="M37 402l41 12c52 -73 87 -153 87 -247c0 -91 -26 -175 -90 -255l-40 12c53 75 72 156 72 238c0 90 -32 174 -70 240z" />
<glyph unicode="&#x1e57;" horiz-adv-x="531" d="M132 -1v-229h-58v710h58v-70c30 46 82 80 162 80c119 0 188 -95 188 -230c0 -168 -107 -270 -260 -270c-37 0 -68 5 -90 9zM132 262v-200c27 -12 65 -18 105 -18c112 0 182 84 182 202c0 112 -53 190 -138 190s-149 -76 -149 -174zM315 645c0 -26 -16 -45 -42 -45 c-24 0 -44 16 -44 45c0 26 18 44 44 44c30 0 42 -22 42 -44z" />
<glyph horiz-adv-x="480" d="M271 258v-258h-63v245l-186 317h74l144 -244l150 244h67zM335 640l-95 64l-98 -64l-28 38l128 93l123 -93z" />
<glyph horiz-adv-x="618" d="M557 285c0 -150 -88 -293 -251 -293c-179 0 -245 151 -245 285c0 174 106 292 253 292c148 0 243 -119 243 -284zM490 277c0 115 -63 236 -184 236c-120 0 -177 -129 -177 -228c0 -124 59 -237 185 -237c109 0 176 100 176 229z" />
<glyph unicode="&#x177;" horiz-adv-x="470" d="M212 8l-202 472h63l169 -395l167 395h59l-202 -480l-98 -230h-56zM345 559l-113 88l-115 -88l-31 38l149 129l142 -127z" />
<glyph d="M533 0h-495v40l225 522h51l219 -522v-40zM286 469l-175 -411h343z" />
<glyph unicode="&#x122;" horiz-adv-x="700" d="M614 395v-361c-37 -23 -107 -44 -180 -44c-266 0 -362 174 -362 367c0 218 163 373 366 373c60 0 108 -10 158 -31l-16 -60c-48 20 -91 32 -152 32c-156 0 -288 -129 -288 -300c0 -177 79 -322 305 -322c42 0 80 8 105 21v267h-150v58h214zM459 -67l-65 -163h-45l47 163 h63z" />
<glyph horiz-adv-x="334" d="M114 48c55 0 76 50 76 128v386h62v-374c0 -126 -32 -196 -150 -196c-26 0 -56 8 -80 19l10 54c27 -12 58 -17 82 -17zM316 640l-95 64l-98 -64l-28 38l128 93l123 -93z" />
<glyph unicode="&#x45f;" horiz-adv-x="503" d="M428 0h-148v-94h-58v94h-148v480h58v-428h238v428h58v-480z" />
<glyph unicode="&#x139;" horiz-adv-x="528" d="M483 0h-376v720h64v-662h312v-58zM138 788l-38 30l149 128l57 -44z" />
<glyph unicode="&#x207c;" horiz-adv-x="383" d="M329 529h-275v45h275v-45zM329 415h-275v45h275v-45z" />
<glyph unicode="&#x39b;" horiz-adv-x="699" d="M677 0h-71l-255 621l-261 -621h-68l308 720h47z" />
<glyph unicode="~" horiz-adv-x="627" d="M139 221h-60c0 78 51 138 119 138c75 0 178 -101 234 -101c26 0 54 27 54 83v4h59c-7 -104 -60 -140 -114 -140c-83 0 -186 101 -237 101c-26 0 -55 -23 -55 -85z" />
<glyph unicode="&#x3b3;" horiz-adv-x="469" d="M459 480c-33 -155 -120 -333 -215 -474c12 -74 19 -150 19 -226h-58c0 219 -72 497 -195 700h63c72 -120 126 -259 157 -405c64 97 150 271 170 405h59z" />
<glyph horiz-adv-x="466" d="M412 -73l24 -28c-14 -20 -45 -41 -77 -41s-68 20 -68 64c0 32 19 63 36 78h-236v562h320v-55h-258v-192h251v-56h-251v-205h262v-54h-14c-32 0 -50 -48 -50 -72c0 -13 6 -22 22 -22c15 0 30 10 39 21z" />
<glyph horiz-adv-x="556" d="M273 -8c-110 0 -186 50 -186 174v396h62v-377c0 -101 56 -137 132 -137c106 0 145 60 145 168v346h56v-376c0 -125 -78 -194 -209 -194zM166 765h50c6 -38 31 -63 69 -63c37 0 63 24 69 63h50c-7 -75 -61 -116 -123 -116c-63 0 -110 44 -115 116z" />
<glyph unicode="&#x156;" horiz-adv-x="600" d="M551 0h-66l-61 192c-35 112 -72 143 -189 143h-67v-335h-61v713c67 11 120 17 181 17c134 0 223 -59 223 -176c0 -101 -79 -178 -140 -187c56 -13 80 -53 103 -126zM168 661v-270h89c119 0 188 71 188 154c0 82 -63 127 -170 127c-44 0 -79 -6 -107 -11zM324 -67 l-65 -163h-45l47 163h63z" />
<glyph horiz-adv-x="459" d="M135 56h280v-56h-370v18l269 487h-258v57h346v-21zM272 702c0 -26 -18 -43 -42 -43c-23 0 -43 16 -43 43c0 26 18 44 43 44c27 0 42 -19 42 -44z" />
<glyph unicode="&#xb5;" horiz-adv-x="517" d="M64 -220v700h58v-303c0 -86 25 -133 110 -133c99 0 153 108 153 227v209h58v-480h-58v89c-22 -53 -79 -99 -165 -99c-49 0 -86 15 -101 34c-2 13 1 -91 1 -164v-80h-56z" />
<glyph unicode="&#x3bc;" horiz-adv-x="517" d="M64 -220v700h58v-303c0 -86 25 -133 110 -133c99 0 153 108 153 227v209h58v-480h-58v89c-22 -53 -79 -99 -165 -99c-49 0 -86 15 -101 34c-2 13 1 -91 1 -164v-80h-56z" />
<glyph unicode="&#x43c;" horiz-adv-x="661" d="M604 0h-60l-35 408l-150 -383h-61l-150 383l-34 -408h-57l45 480h79l151 -378l150 378h77z" />
<glyph unicode="&#x157;" horiz-adv-x="336" d="M322 419c-16 7 -40 11 -62 11c-88 0 -128 -84 -128 -193v-237h-58v480h58v-73c25 57 85 83 140 83c28 0 44 -3 60 -9zM136 -67l-65 -163h-45l47 163h63z" />
<glyph unicode="&#x208d;" horiz-adv-x="221" d="M192 -75l-41 -13c-51 73 -87 153 -87 248c0 90 26 174 90 254l40 -11c-53 -76 -73 -156 -73 -239c0 -89 33 -173 71 -239z" />
<glyph d="M409 668h-336v52h402v-28l-225 -692h-58z" />
<glyph horiz-adv-x="571" d="M479 0l-82 198h-224l-85 -198h-67l243 562h50l236 -562h-71zM286 469l-91 -215h180zM166 761h50c6 -38 31 -63 69 -63c37 0 63 24 69 63h50c-7 -75 -61 -116 -123 -116c-63 0 -110 44 -115 116z" />
<glyph unicode="&#x167;" horiz-adv-x="331" d="M159 480h141v-52h-141v-115h128v-53h-128c0 -95 -15 -216 71 -216c22 0 48 6 70 16l11 -44c-24 -17 -59 -26 -89 -26c-87 0 -121 64 -121 162v108h-78v53h78v115h-87v52h87v125l58 15v-140z" />
<glyph unicode="&#x438;" horiz-adv-x="527" d="M453 0h-55v408l-250 -408h-74v480h55v-406l250 406h74v-480z" />
<glyph horiz-adv-x="618" d="M557 285c0 -150 -88 -293 -251 -293c-179 0 -245 151 -245 285c0 174 106 292 253 292c148 0 243 -119 243 -284zM490 277c0 115 -63 236 -184 236c-120 0 -177 -129 -177 -228c0 -124 59 -237 185 -237c109 0 176 100 176 229zM190 765h50c6 -38 31 -63 69 -63 c37 0 63 24 69 63h50c-7 -75 -61 -116 -123 -116c-63 0 -110 44 -115 116z" />
<glyph horiz-adv-x="478" d="M270 0h-63v508h-181v54h425v-54h-181v-508z" />
<glyph unicode="&#x41a;" horiz-adv-x="606" d="M590 0h-90l-329 359v-359h-64v720h64v-312l188 195c74 79 120 127 196 127c10 0 22 -1 37 -4l-16 -61c-12 5 -22 6 -33 6c-39 0 -64 -29 -125 -91l-188 -192z" />
<glyph horiz-adv-x="577" d="M488 0h-63v506h-273v-506h-63v562h399v-562z" />
<glyph unicode="&#x416;" horiz-adv-x="934" d="M914 0h-92l-323 355v-355h-64v355l-323 -355h-87l357 385l-194 197c-63 67 -89 89 -127 89c-10 0 -20 -2 -31 -6l-13 60c16 3 35 5 54 5c59 0 107 -43 177 -117l187 -192v309h64v-309l188 192c74 79 120 117 196 117c10 0 20 0 35 -3l-13 -62c-12 4 -25 6 -36 6 c-30 0 -63 -21 -124 -86l-192 -195z" />
<glyph unicode="&#x415;" horiz-adv-x="564" d="M171 662v-266h323v-58h-323v-280h337v-58h-401v720h396v-58h-332z" />
<glyph horiz-adv-x="589" d="M499 0h-58v452l-293 -452h-59v562h58v-449l290 449h62v-562z" />
<glyph unicode="&#x2026;" horiz-adv-x="889" d="M204 39c0 -27 -22 -49 -50 -49c-27 0 -49 22 -49 49c0 28 22 50 49 50c28 0 50 -22 50 -50zM494 39c0 -27 -22 -49 -50 -49c-27 0 -49 22 -49 49c0 28 22 50 49 50c28 0 50 -22 50 -50zM784 39c0 -27 -22 -49 -50 -49c-27 0 -49 22 -49 49c0 28 22 50 49 50 c28 0 50 -22 50 -50z" />
<glyph unicode="&#xe2;" horiz-adv-x="486" d="M416 0h-58v37c0 18 1 37 4 52l-2 1c-8 -16 -18 -29 -32 -42c-39 -36 -88 -58 -147 -58c-79 0 -137 45 -137 120c0 138 158 179 314 187v33c0 75 -30 106 -109 106c-52 0 -113 -15 -154 -39l-12 57c48 21 103 36 172 36c112 0 161 -47 161 -136v-354zM357 245 c-116 -2 -250 -33 -250 -120c0 -50 35 -81 86 -81c76 0 164 68 164 170v31zM358 559l-113 88l-115 -88l-31 38l149 129l142 -127z" />
<glyph unicode="&#x40f;" horiz-adv-x="701" d="M594 0h-211v-142h-64v142h-212v720h64v-662h359v662h64v-720z" />
<glyph horiz-adv-x="466" d="M154 506v-191h250v-56h-250v-205h262v-54h-325v562h321v-56h-258z" />
<glyph unicode="&#x3b4;" horiz-adv-x="551" d="M247 483c-45 33 -95 84 -95 124c0 80 72 123 179 123c36 0 68 -4 113 -17l-17 -55c-38 14 -83 18 -122 18c-47 0 -90 -15 -90 -55c0 -89 284 -166 284 -375c0 -144 -89 -256 -233 -256c-120 0 -217 83 -217 243c0 139 78 241 198 250zM306 433c-11 2 -25 3 -40 3 c-99 0 -154 -87 -154 -190c0 -143 69 -202 173 -202c94 0 151 87 151 189c0 107 -82 173 -130 200z" />
<glyph unicode="&#x397;" horiz-adv-x="716" d="M544 341h-373v-341h-64v720h64v-321h373v321h64v-720h-64v341z" />
<glyph unicode="&#x3a8;" horiz-adv-x="818" d="M441 0h-64v107c-194 14 -297 119 -297 232v381h64v-353c0 -87 63 -187 233 -201v554h64v-555c175 11 233 112 233 203v352h64v-355c0 -113 -95 -249 -297 -260v-105z" />
<glyph unicode="1" horiz-adv-x="407" d="M289 0h-63v661l-169 -36l-9 56l218 44h23v-725z" />
<glyph horiz-adv-x="480" d="M271 258v-258h-63v245l-186 317h74l144 -244l150 244h67zM235 639l-33 30l124 105l50 -43z" />
<glyph unicode="&#xe7;" horiz-adv-x="443" d="M201 -69l39 61c-120 11 -191 98 -191 247c0 146 103 251 237 251c36 0 75 -5 105 -16l-12 -55c-32 12 -67 17 -103 17c-99 0 -164 -82 -164 -192c0 -133 67 -200 172 -200c49 0 100 26 115 36l19 -51c-43 -23 -83 -34 -125 -38l-22 -35c36 -9 53 -33 53 -63 c0 -48 -35 -79 -103 -79c-15 0 -33 3 -47 8l13 42c10 -4 24 -7 37 -7c23 0 37 12 37 31c0 23 -24 37 -60 43z" />
<glyph unicode="&#xfb02;" horiz-adv-x="503" d="M176 0h-58v428h-93v52h93v68c0 115 44 182 156 182c29 0 55 -7 72 -14l-12 -50c-18 5 -48 10 -74 10c-68 0 -84 -44 -84 -116v-80h130v-52h-130v-428zM428 733v-733h-58v733h58z" />
<glyph unicode="&#xfb01;" horiz-adv-x="498" d="M312 722l-11 -50c-14 2 -30 4 -48 4c-58 0 -77 -41 -77 -116v-80h248v-480h-58v428h-190v-428h-58v428h-94v52h94v68c0 112 43 182 146 182c18 0 32 -2 48 -8zM438 625c0 -26 -17 -44 -43 -44c-24 0 -43 16 -43 44c0 27 17 44 43 44c30 0 43 -22 43 -44z" />
<glyph unicode="&#xfb00;" horiz-adv-x="583" d="M384 480v68c0 107 41 182 167 182c18 0 43 -5 61 -12l-12 -52c-19 5 -49 10 -74 10c-69 0 -84 -44 -84 -116v-80h129v-52h-129v-428h-58v428h-208v-428h-58v428h-94v52h94v60c0 106 34 179 151 179c16 0 40 -3 57 -11l-7 -52c-17 5 -45 10 -66 10c-63 0 -77 -43 -77 -116 v-70h208z" />
<glyph horiz-adv-x="245" d="M154 562v-562h-63v562h63zM12 680v52h219v-52h-219z" />
<glyph horiz-adv-x="458" d="M49 15l14 53c31 -14 101 -24 135 -24c76 0 126 49 126 115c0 69 -50 107 -170 107h-31v50h43c38 0 138 20 138 113c0 51 -33 88 -117 88c-43 0 -82 -8 -115 -29l-6 55c55 24 88 26 132 26c108 0 174 -60 174 -128c0 -74 -51 -123 -107 -139c71 -8 127 -64 127 -131 c0 -116 -91 -179 -204 -179c-52 0 -108 9 -139 23z" />
<glyph unicode="&#x3ce;" horiz-adv-x="754" d="M406 418v-177c0 -130 52 -197 122 -197c85 0 115 94 115 189c0 100 -26 186 -80 247h70c49 -58 73 -154 73 -233c0 -144 -58 -257 -193 -257c-60 0 -121 35 -139 108c-26 -69 -82 -108 -156 -108c-118 0 -170 93 -170 243c0 82 31 192 78 247h65 c-54 -61 -80 -147 -80 -233c0 -105 20 -203 125 -203c64 0 112 83 112 170v204h58zM390 550l-49 3l64 178l70 -11z" />
<glyph unicode="&#x11d;" horiz-adv-x="525" d="M456 469v-392c0 -218 -80 -307 -241 -307c-44 0 -101 8 -133 25l10 61c34 -21 99 -32 137 -32c131 0 169 95 169 240v35c-34 -59 -97 -90 -167 -90c-112 0 -182 71 -182 201c0 166 97 280 267 280c56 0 92 -7 140 -21zM398 239v176c-13 7 -42 21 -95 21 c-135 0 -191 -98 -191 -211c0 -112 57 -162 131 -162c75 0 155 59 155 176zM396 559l-113 88l-115 -88l-31 38l149 129l142 -127z" />
<glyph unicode="@" horiz-adv-x="1097" d="M754 -185c-58 -25 -115 -36 -189 -36c-322 0 -476 197 -476 442c0 288 220 471 481 471c233 0 415 -145 415 -375c0 -171 -97 -327 -262 -327c-47 0 -75 28 -75 69v20c-7 -12 -17 -23 -27 -32c-39 -35 -90 -57 -140 -57c-86 0 -146 43 -146 130c0 128 164 175 313 175v35 c0 75 -30 103 -109 103c-56 0 -114 -19 -156 -40l-9 59c49 21 109 35 171 35c112 0 161 -44 161 -133v-269c0 -33 12 -41 32 -41c111 0 184 126 184 262c0 194 -139 332 -360 332c-211 0 -410 -142 -410 -406c0 -228 137 -399 421 -399c59 0 109 11 163 35zM647 243 c-130 0 -249 -28 -249 -114c0 -59 38 -85 90 -85c80 0 159 76 159 170v29z" />
<glyph unicode="&#x425;" horiz-adv-x="625" d="M529 0l-220 335l-215 -335h-72l252 387l-219 333h74l186 -284l184 284h71l-220 -336l253 -384h-74z" />
<glyph unicode="&#x1e1e;" horiz-adv-x="527" d="M171 662v-271h301v-58h-301v-333h-64v720h379v-58h-315zM356 859c0 -26 -17 -44 -44 -44c-24 0 -46 16 -46 44s20 46 46 46c31 0 44 -22 44 -46z" />
<glyph unicode="&#x1e1f;" horiz-adv-x="315" d="M176 0h-58v428h-93v52h93v68c0 115 44 182 156 182c29 0 55 -7 72 -14l-12 -50c-18 5 -48 10 -74 10c-68 0 -84 -44 -84 -116v-80h130v-52h-130v-428zM270 859c0 -26 -17 -44 -44 -44c-24 0 -46 16 -46 44s20 46 46 46c31 0 44 -22 44 -46z" />
<glyph horiz-adv-x="480" d="M271 508v-508h-62v508h-181v54h424v-54h-181z" />
<glyph unicode="&#x41d;" horiz-adv-x="716" d="M544 341h-373v-341h-64v720h64v-321h373v321h64v-720h-64v341z" />
<glyph unicode="&#xb9;" horiz-adv-x="279" d="M198 342h-57v325l-94 -18l-6 46l142 27h15v-380z" />
<glyph horiz-adv-x="472" d="M152 0h-63v554c45 9 100 15 152 15c122 0 192 -66 192 -155c0 -131 -119 -187 -250 -187h-31v-227zM152 280h42c92 0 171 42 171 120c0 77 -51 113 -134 113c-32 0 -60 -4 -79 -8v-225z" />
<glyph horiz-adv-x="592" d="M442 0l-293 452v-452h-58v562h62l291 -449v449h58v-562h-60zM324 -39l-55 -140h-47l33 140h69z" />
<glyph d="M197 161h-39v51h53c42 0 177 23 177 139c0 60 -42 108 -152 108c-55 0 -101 -12 -143 -36l-6 57c46 23 109 32 162 32c130 0 210 -73 210 -148c0 -91 -63 -147 -134 -166c86 -9 159 -75 159 -155c0 -129 -103 -208 -246 -208c-65 0 -137 9 -172 27l14 54 c40 -18 129 -28 169 -28c99 0 164 62 164 141c0 84 -58 132 -216 132z" />
<glyph unicode="&#x3a9;" horiz-adv-x="786" d="M748 52v-52h-294v63c102 31 196 164 196 299c0 163 -100 309 -263 309c-168 0 -251 -143 -251 -303c0 -117 91 -260 191 -300v-68h-281v52h202c-101 52 -181 202 -181 310c0 237 149 368 330 368c195 0 321 -137 321 -362c0 -104 -62 -240 -173 -316h203z" />
<glyph unicode="&#x2126;" horiz-adv-x="786" d="M748 52v-52h-294v63c102 31 196 164 196 299c0 163 -100 309 -263 309c-168 0 -251 -143 -251 -303c0 -117 91 -260 191 -300v-68h-281v52h202c-101 52 -181 202 -181 310c0 237 149 368 330 368c195 0 321 -137 321 -362c0 -104 -62 -240 -173 -316h203z" />
<glyph horiz-adv-x="740" d="M373 126l170 436h73l52 -562h-63l-42 461l-167 -432h-52l-173 433l-40 -462h-62l52 562h78z" />
<glyph horiz-adv-x="747" d="M657 0h-568v562h63v-508h191v508h62v-508h189v508h63v-562z" />
<glyph unicode="&#x10a;" horiz-adv-x="640" d="M575 100l24 -48c-46 -38 -119 -62 -200 -62c-209 0 -327 165 -327 354c0 214 134 386 350 386c58 0 117 -12 157 -33l-16 -59c-34 18 -98 33 -150 33c-174 0 -273 -152 -273 -303c0 -172 91 -319 270 -319c57 0 121 20 165 51zM452 859c0 -26 -17 -44 -44 -44 c-24 0 -46 16 -46 44s20 46 46 46c31 0 44 -22 44 -46z" />
<glyph horiz-adv-x="514" d="M492 0h-71l-167 249l-164 -249h-69l199 301l-174 261h73l141 -212l140 212h68l-175 -263z" />
<glyph unicode="&#x3c2;" horiz-adv-x="397" d="M298 -219h-68c42 40 88 99 88 157c0 104 -269 24 -269 297c0 159 92 254 227 254c37 0 77 -5 110 -19l-19 -55c-31 13 -64 20 -100 20c-99 0 -155 -78 -155 -180c0 -268 269 -149 269 -307c0 -68 -49 -129 -83 -167z" />
<glyph unicode="&#x45c;" horiz-adv-x="429" d="M365 701l-126 -150l-51 18l110 161zM132 0h-58v480h58v-194l130 133c47 47 81 71 122 71c15 0 33 -5 48 -17l-18 -52c-11 7 -19 15 -40 15s-50 -31 -79 -60l-109 -113l237 -263h-77l-214 237v-237z" />
<glyph unicode="&#x45b;" horiz-adv-x="567" d="M497 0h-58v290c0 93 -30 146 -113 146c-92 0 -153 -94 -153 -191v-245h-58v578h-114v52h114v100h58v-100h175v-52h-175v-179c33 59 95 91 163 91c103 0 161 -56 161 -182v-308z" />
<glyph unicode="&#x458;" horiz-adv-x="202" d="M-57 -164c18 -7 41 -12 60 -12c57 0 71 54 71 127v529h58v-516c0 -117 -25 -194 -137 -194c-19 0 -44 3 -59 11zM146 625c0 -26 -17 -44 -43 -44c-24 0 -43 16 -43 44c0 26 17 44 43 44c30 0 43 -22 43 -44z" />
<glyph unicode="&#x457;" horiz-adv-x="207" d="M132 480v-480h-58v480h58zM61 633c0 -26 -17 -44 -43 -44c-24 0 -44 15 -44 44c0 27 18 43 44 43c31 0 43 -21 43 -43zM234 633c0 -26 -16 -44 -42 -44c-24 0 -44 15 -44 44c0 27 18 43 44 43c31 0 42 -21 42 -43z" />
<glyph unicode="&#xdf;" horiz-adv-x="529" d="M137 567v-567h-58v555c0 108 57 175 171 175c82 0 143 -64 143 -134c0 -107 -108 -132 -108 -207c0 -99 207 -96 207 -240c0 -99 -69 -159 -173 -159c-34 0 -69 5 -100 15l14 56c36 -12 58 -17 96 -17c61 0 100 33 100 91c0 119 -207 105 -207 240c0 111 108 129 108 207 c0 54 -37 94 -93 94c-65 0 -100 -42 -100 -109z" />
<glyph unicode="&#x1e6b;" horiz-adv-x="331" d="M300 428h-141v-262c0 -71 11 -122 71 -122c22 0 48 6 69 16l11 -44c-24 -17 -58 -26 -88 -26c-94 0 -121 61 -121 162v276h-87v52h87v125l58 15v-140h141v-52zM174 761c0 -26 -16 -45 -42 -45c-24 0 -44 16 -44 45c0 26 18 44 44 44c30 0 42 -22 42 -44z" />
<glyph unicode="&#x17c;" horiz-adv-x="410" d="M264 428h-226v52h319l2 -6l-238 -422h256v-52h-351v9zM246 645c0 -26 -16 -45 -42 -45c-24 0 -44 16 -44 45c0 26 18 44 44 44c30 0 42 -22 42 -44z" />
<glyph unicode="&#x453;" horiz-adv-x="367" d="M132 0h-58v480h269v-52h-211v-428zM341 701l-126 -150l-51 18l109 161z" />
<glyph unicode="&#x1e6a;" horiz-adv-x="590" d="M327 662v-662h-64v662h-234v58h533v-58h-235zM337 859c0 -26 -17 -44 -44 -44c-24 0 -46 16 -46 44s20 46 46 46c31 0 44 -22 44 -46z" />
<glyph unicode="&#x455;" horiz-adv-x="412" d="M326 413c-27 11 -74 23 -119 23c-55 0 -95 -32 -95 -66c0 -99 257 -86 257 -232c0 -93 -89 -148 -182 -148c-55 0 -103 12 -140 29l15 60c30 -18 86 -35 135 -35c54 0 109 34 109 82c0 108 -257 91 -257 232c0 76 75 132 167 132c52 0 92 -10 123 -24z" />
<glyph horiz-adv-x="445" d="M53 19l13 62c35 -18 82 -33 132 -33c65 0 131 27 131 98c0 56 -55 83 -113 112c-75 38 -160 73 -160 161c0 93 70 150 188 150c48 0 89 -8 122 -21l-11 -60c-38 17 -70 25 -118 25c-69 0 -113 -22 -113 -81c0 -58 51 -84 106 -110c66 -31 167 -63 167 -163 c0 -111 -92 -167 -205 -167c-51 0 -96 11 -139 27zM128 771l94 -63l98 63l29 -36l-130 -95l-121 94z" />
<glyph unicode="=" horiz-adv-x="590" d="M526 362h-462v57h462v-57zM526 160h-462v56h462v-56z" />
<glyph horiz-adv-x="480" d="M271 258v-258h-63v245l-186 317h74l144 -244l150 244h67zM185 704c0 -28 -21 -48 -47 -48c-27 0 -48 20 -48 48c0 25 21 46 48 46c26 0 47 -21 47 -46zM390 704c0 -28 -20 -48 -48 -48c-25 0 -46 20 -46 48c0 25 21 46 46 46c28 0 48 -21 48 -46z" />
<glyph unicode="Z" horiz-adv-x="556" d="M146 58h360v-58h-457v14l348 648h-333v58h425v-18z" />
<glyph horiz-adv-x="444" d="M153 54h244v-54h-306v562h62v-508zM382 585l-74 -204h-45l49 204h70z" />
<glyph unicode="X" horiz-adv-x="625" d="M529 0l-220 335l-215 -335h-72l252 387l-219 333h74l186 -284l184 284h71l-220 -336l253 -384h-74z" />
<glyph unicode="Y" horiz-adv-x="584" d="M323 323v-323h-64v322l-233 398h74l195 -331l194 331h69z" />
<glyph unicode="R" horiz-adv-x="598" d="M551 0h-66l-61 192c-35 112 -72 143 -189 143h-67v-335h-61v713c67 11 120 17 181 17c134 0 223 -59 223 -176c0 -101 -79 -178 -140 -187c56 -13 80 -53 103 -126zM168 661v-270h89c119 0 188 71 188 154c0 82 -63 127 -170 127c-44 0 -79 -6 -107 -11z" />
<glyph unicode="S" horiz-adv-x="536" d="M57 29l18 60c44 -22 106 -42 162 -42c93 0 176 37 176 135c0 158 -345 172 -345 366c0 116 94 182 223 182c69 0 120 -13 157 -30l-15 -60c-48 21 -105 32 -149 32c-88 0 -150 -35 -150 -111c0 -156 345 -175 345 -365c0 -143 -110 -206 -248 -206c-66 0 -133 18 -174 39 z" />
<glyph unicode="P" horiz-adv-x="568" d="M171 295v-295h-64v710c58 11 125 20 185 20c156 0 232 -93 232 -196c0 -170 -135 -239 -314 -239h-39zM171 659v-306h56c132 0 229 52 229 163c0 97 -55 155 -176 155c-45 0 -83 -6 -109 -12z" />
<glyph unicode="Q" horiz-adv-x="757" d="M684 366c0 -196 -115 -356 -264 -372c54 -20 134 -101 173 -146l-74 -22l-162 164c-195 10 -285 193 -285 367c0 224 136 373 311 373c186 0 301 -149 301 -364zM616 356c0 176 -87 315 -243 315c-131 0 -233 -133 -233 -305c0 -154 83 -317 243 -317 c141 0 233 144 233 307z" />
<glyph unicode="&#x1e56;" horiz-adv-x="568" d="M171 295v-295h-64v710c58 11 125 20 185 20c156 0 232 -93 232 -196c0 -170 -135 -239 -314 -239h-39zM171 659v-306h56c132 0 229 52 229 163c0 97 -55 155 -176 155c-45 0 -83 -6 -109 -12zM335 859c0 -26 -17 -44 -44 -44c-24 0 -46 16 -46 44s20 46 46 46 c31 0 44 -22 44 -46z" />
<glyph unicode="W" horiz-adv-x="932" d="M660 119l195 601h59l-235 -720h-44l-169 539l-173 -539h-47l-228 720h65l192 -601l189 601h11z" />
<glyph unicode="T" horiz-adv-x="590" d="M327 662v-662h-64v662h-234v58h533v-58h-235z" />
<glyph unicode="U" horiz-adv-x="672" d="M335 -10c-154 0 -231 80 -231 250v480h64v-458c0 -149 52 -213 179 -213c95 0 182 57 182 198v473h58v-459c0 -196 -108 -271 -252 -271z" />
<glyph horiz-adv-x="245" d="M154 562v-562h-63v562h63zM79 702c0 -24 -19 -43 -43 -43c-23 0 -43 19 -43 43s20 43 43 43c24 0 43 -19 43 -43zM251 702c0 -24 -18 -43 -42 -43s-42 19 -42 43s18 43 42 43s42 -19 42 -43z" />
<glyph unicode="K" horiz-adv-x="606" d="M171 408l301 312h83l-326 -332l361 -388h-90l-329 359v-359h-64v720h64v-312z" />
<glyph unicode="H" horiz-adv-x="716" d="M544 341h-373v-341h-64v720h64v-321h373v321h64v-720h-64v341z" />
<glyph unicode="I" horiz-adv-x="278" d="M171 720v-720h-64v720h64z" />
<glyph unicode="N" horiz-adv-x="712" d="M551 0l-387 611v-611h-57v720h56l385 -605v605h57v-720h-54z" />
<glyph unicode="O" horiz-adv-x="757" d="M684 366c0 -188 -107 -376 -311 -376c-224 0 -301 199 -301 367c0 208 120 373 311 373c182 0 301 -152 301 -364zM616 356c0 179 -94 315 -243 315c-140 0 -233 -135 -233 -305c0 -142 61 -317 243 -317c155 0 233 153 233 307z" />
<glyph unicode="L" horiz-adv-x="518" d="M483 0h-376v720h64v-662h312v-58z" />
<glyph unicode="M" horiz-adv-x="908" d="M822 0l-61 -1l-58 623l-223 -583h-46l-239 587l-55 -626h-58l65 720h75l235 -586l228 586h71z" />
<glyph unicode="B" horiz-adv-x="600" d="M107 8v703c48 13 107 19 173 19c123 0 228 -44 228 -163c0 -83 -53 -154 -125 -178v-2c85 -16 149 -82 149 -171c0 -135 -98 -226 -277 -226c-52 0 -115 8 -148 18zM169 342v-283c26 -7 64 -11 103 -11c113 0 193 53 193 153c0 85 -75 141 -180 141h-116zM169 662v-263 h61c95 0 211 54 211 154c0 89 -79 119 -181 119c-27 0 -73 -5 -91 -10z" />
<glyph unicode="C" horiz-adv-x="640" d="M575 100l24 -48c-46 -38 -119 -62 -200 -62c-209 0 -327 165 -327 354c0 214 134 386 350 386c58 0 117 -12 157 -33l-16 -59c-34 18 -98 33 -150 33c-174 0 -273 -152 -273 -303c0 -172 91 -319 270 -319c57 0 121 20 165 51z" />
<glyph unicode="A" horiz-adv-x="687" d="M596 0l-110 270h-288l-112 -270h-64l308 720h35l300 -720h-69zM344 615l-119 -287h236z" />
<glyph unicode="F" horiz-adv-x="527" d="M171 662v-271h301v-58h-301v-333h-64v720h379v-58h-315z" />
<glyph unicode="G" horiz-adv-x="700" d="M614 395v-361c-37 -23 -107 -44 -180 -44c-266 0 -362 174 -362 367c0 218 163 373 366 373c60 0 108 -10 158 -31l-16 -60c-48 20 -91 32 -152 32c-156 0 -288 -129 -288 -300c0 -177 79 -322 305 -322c42 0 80 8 105 21v267h-150v58h214z" />
<glyph unicode="D" horiz-adv-x="695" d="M276 -10c-49 0 -133 8 -169 21v700c68 14 132 19 183 19c210 0 339 -152 339 -354c0 -219 -129 -386 -353 -386zM171 659v-598c27 -8 74 -12 119 -12c160 0 271 126 271 305c0 167 -90 317 -284 317c-35 0 -78 -6 -106 -12z" />
<glyph unicode="E" horiz-adv-x="564" d="M171 662v-266h323v-58h-323v-280h337v-58h-401v720h396v-58h-332z" />
<glyph unicode="z" horiz-adv-x="410" d="M264 428h-226v52h319l2 -6l-238 -422h256v-52h-351v9z" />
<glyph unicode="x" horiz-adv-x="454" d="M373 0l-150 212l-152 -212h-69l187 256l-161 224h73l128 -182l129 182h69l-163 -226l182 -254h-73z" />
<glyph unicode="y" horiz-adv-x="478" d="M212 8l-202 472h63l169 -395l167 395h59l-202 -480l-98 -230h-56z" />
<glyph horiz-adv-x="571" d="M479 0l-82 198h-224l-85 -198h-67l243 562h50l236 -562h-71zM286 469l-91 -215h180zM200 695c0 41 32 73 87 73c54 0 83 -27 83 -67c0 -51 -36 -73 -88 -73c-47 0 -82 25 -82 67zM248 701c0 -21 16 -37 38 -37s34 13 34 32s-15 36 -37 36c-21 0 -35 -12 -35 -31z" />
<glyph unicode="&#x1e40;" horiz-adv-x="910" d="M822 0l-61 -1l-58 623l-223 -583h-46l-239 587l-55 -626h-58l65 720h75l235 -586l228 586h71zM494 859c0 -26 -17 -44 -44 -44c-24 0 -46 16 -46 44s20 46 46 46c31 0 44 -22 44 -46z" />
<glyph unicode="&#x1e41;" horiz-adv-x="802" d="M732 0h-58v282c0 91 -15 154 -101 154c-84 0 -141 -53 -141 -155v-281h-58v296c0 80 -25 140 -102 140c-80 0 -140 -76 -140 -153v-283h-58v480h61v-68c32 52 93 78 145 78c66 0 117 -19 137 -87c26 47 79 87 162 87c153 0 153 -130 153 -189v-301zM446 645 c0 -26 -16 -45 -42 -45c-24 0 -44 16 -44 45c0 26 18 44 44 44c30 0 42 -22 42 -44z" />
<glyph unicode="r" horiz-adv-x="336" d="M322 419c-16 7 -40 11 -62 11c-88 0 -128 -84 -128 -193v-237h-58v480h58v-73c25 57 85 83 140 83c28 0 44 -3 60 -9z" />
<glyph unicode="s" horiz-adv-x="412" d="M326 413c-27 11 -74 23 -119 23c-55 0 -95 -26 -95 -62c0 -102 257 -91 257 -240c0 -93 -89 -144 -182 -144c-55 0 -103 12 -140 29l15 60c30 -18 86 -35 135 -35c54 0 109 30 109 78c0 111 -257 95 -257 240c0 79 75 128 167 128c52 0 92 -10 123 -24z" />
<glyph unicode="p" horiz-adv-x="531" d="M132 -1v-229h-58v710h58v-70c30 46 82 80 162 80c119 0 188 -95 188 -230c0 -168 -107 -270 -260 -270c-37 0 -68 5 -90 9zM132 262v-200c27 -12 65 -18 105 -18c112 0 182 84 182 202c0 112 -53 190 -138 190s-149 -76 -149 -174z" />
<glyph unicode="q" horiz-adv-x="539" d="M465 471v-701h-58v305c-31 -51 -87 -85 -159 -85c-141 0 -199 113 -199 231c0 168 103 269 279 269c43 0 86 -6 137 -19zM407 217v202c-26 12 -52 17 -94 17c-145 0 -201 -85 -201 -201c0 -101 41 -191 151 -191c91 0 144 92 144 173z" />
<glyph unicode="v" horiz-adv-x="478" d="M244 81l165 399h59l-202 -480h-50l-206 480h63z" />
<glyph unicode="w" horiz-adv-x="723" d="M506 111l150 369h56l-200 -480h-28l-125 343l-134 -343h-32l-182 480h62l141 -369l142 369h17z" />
<glyph unicode="t" horiz-adv-x="332" d="M301 428h-141v-262c0 -71 11 -122 71 -122c22 0 48 6 69 16l11 -44c-24 -17 -58 -26 -88 -26c-94 0 -121 61 -121 162v276h-87v52h87v125l58 15v-140h141v-52z" />
<glyph unicode="u" horiz-adv-x="523" d="M70 178v302h58v-286c0 -107 30 -150 106 -150c93 0 156 89 156 211v225h58v-480h-58v87c-27 -57 -90 -97 -166 -97c-102 0 -154 52 -154 188z" />
<glyph unicode="j" horiz-adv-x="202" d="M-57 -164c18 -7 41 -12 60 -12c57 0 71 54 71 127v529h58v-516c0 -117 -25 -194 -137 -194c-19 0 -44 3 -59 11zM146 625c0 -26 -17 -44 -43 -44c-24 0 -43 16 -43 44c0 26 17 44 43 44c30 0 43 -22 43 -44z" />
<glyph unicode="k" horiz-adv-x="447" d="M442 0h-84l-226 251v-251h-58v733h58v-450l221 197h84l-238 -213z" />
<glyph unicode="h" horiz-adv-x="526" d="M456 308v-308h-58v290c0 93 -30 146 -113 146c-92 0 -153 -94 -153 -191v-245h-58v730h58v-334c33 59 95 94 163 94c103 0 161 -56 161 -182z" />
<glyph unicode="i" horiz-adv-x="207" d="M132 480v-480h-58v480h58zM146 625c0 -26 -17 -44 -43 -44c-24 0 -43 16 -43 44c0 26 17 44 43 44c30 0 43 -22 43 -44z" />
<glyph unicode="n" horiz-adv-x="524" d="M454 315v-315h-58v291c0 88 -24 145 -112 145c-95 0 -152 -83 -152 -169v-267h-58v480h59v-71c28 47 85 81 161 81c106 0 160 -55 160 -175z" />
<glyph unicode="o" horiz-adv-x="549" d="M499 246c0 -145 -86 -256 -233 -256c-120 0 -217 83 -217 243c0 146 85 257 236 257c134 0 214 -104 214 -244zM436 233c0 122 -59 203 -170 203c-98 0 -154 -89 -154 -190c0 -134 67 -202 173 -202c93 0 151 88 151 189z" />
<glyph unicode="l" horiz-adv-x="207" d="M132 733v-733h-58v733h58z" />
<glyph unicode="m" horiz-adv-x="804" d="M732 0h-58v282c0 91 -15 154 -101 154c-84 0 -141 -53 -141 -155v-281h-58v296c0 80 -25 140 -102 140c-80 0 -140 -76 -140 -153v-283h-58v480h61v-68c32 52 93 78 145 78c66 0 117 -19 137 -87c26 47 79 87 162 87c153 0 153 -130 153 -189v-301z" />
<glyph unicode="b" horiz-adv-x="534" d="M221 -10c-45 0 -107 8 -147 23v720h58v-319c29 42 82 76 151 76c143 0 201 -111 201 -232c0 -168 -118 -268 -263 -268zM132 288v-224c23 -14 66 -19 104 -19c97 0 185 74 185 200c0 101 -43 191 -144 191c-68 0 -145 -59 -145 -148z" />
<glyph unicode="c" horiz-adv-x="443" d="M399 80l19 -51c-51 -27 -99 -39 -150 -39c-137 0 -219 89 -219 249c0 146 103 251 237 251c36 0 75 -5 105 -16l-12 -55c-32 12 -67 17 -103 17c-99 0 -164 -82 -164 -192c0 -133 67 -200 172 -200c49 0 100 26 115 36z" />
<glyph unicode="&#x1e81;" horiz-adv-x="722" d="M506 111l150 369h56l-200 -480h-28l-125 343l-134 -343h-32l-182 480h62l141 -369l142 369h17zM397 569l-50 -18l-121 150l63 29z" />
<glyph unicode="a" horiz-adv-x="486" d="M416 0h-58v37c0 18 1 37 4 52l-2 1c-8 -16 -18 -29 -32 -42c-39 -36 -88 -58 -147 -58c-79 0 -137 45 -137 120c0 138 158 179 314 187v33c0 75 -30 106 -109 106c-52 0 -113 -15 -154 -39l-12 57c48 21 103 36 172 36c112 0 161 -47 161 -136v-354zM357 245 c-116 -2 -250 -33 -250 -120c0 -50 35 -81 86 -81c76 0 164 68 164 170v31z" />
<glyph unicode="f" horiz-adv-x="327" d="M175 0h-58v428h-93v52h93v68c0 115 44 182 156 182c29 0 55 -7 72 -14l-12 -50c-18 5 -48 10 -74 10c-68 0 -84 -44 -84 -116v-80h130v-52h-130v-428z" />
<glyph unicode="g" horiz-adv-x="525" d="M456 469v-392c0 -218 -80 -307 -241 -307c-44 0 -101 8 -133 25l10 61c34 -21 99 -32 137 -32c131 0 169 95 169 240v35c-34 -59 -97 -90 -167 -90c-112 0 -182 71 -182 201c0 166 97 280 267 280c56 0 92 -7 140 -21zM398 239v176c-13 7 -42 21 -95 21 c-135 0 -191 -98 -191 -211c0 -112 57 -162 131 -162c75 0 155 59 155 176z" />
<glyph unicode="d" horiz-adv-x="538" d="M464 0h-58v86c-35 -50 -92 -96 -176 -96c-118 0 -181 93 -181 226c0 158 93 274 254 274c33 0 74 -5 103 -14v257h58v-733zM406 211v197c-33 18 -80 28 -120 28c-109 0 -174 -86 -174 -206c0 -105 44 -186 125 -186c96 0 169 95 169 167z" />
<glyph unicode="e" horiz-adv-x="493" d="M405 86l19 -49c-33 -25 -105 -47 -162 -47c-134 0 -213 86 -213 247c0 136 74 253 220 253c106 0 173 -77 173 -194c0 -27 -4 -48 -7 -61h-323c2 -116 51 -191 160 -191c48 0 90 14 133 42zM118 287h261c3 88 -45 149 -121 149c-91 0 -136 -82 -140 -149z" />
<glyph horiz-adv-x="741" d="M668 0h-64l-40 461l-168 -432h-52l-173 433l-40 -462h-62l52 562h77l176 -436l170 436h71z" />
<glyph unicode="&#xa6;" horiz-adv-x="282" d="M109 -230v380h64v-380h-64zM109 350v380h64v-380h-64z" />
<glyph unicode="&#x119;" horiz-adv-x="493" d="M361 -97l27 -36c-17 -22 -54 -44 -92 -44c-44 0 -79 24 -79 77c0 33 15 66 35 90c-128 4 -203 90 -203 247c0 136 74 253 220 253c106 0 173 -77 173 -194c0 -27 -4 -48 -7 -61h-323c2 -116 51 -191 160 -191c48 0 90 14 133 42l19 -49c-20 -15 -52 -28 -87 -37 c-34 -14 -57 -64 -57 -94c0 -20 9 -30 29 -30c21 0 40 15 52 27zM118 287h261c3 88 -45 149 -121 149c-91 0 -136 -82 -140 -149z" />
<glyph horiz-adv-x="461" d="M177 54h244v-54h-306v233l-61 -36l-27 44l88 53v268h62v-232l88 53c-2 0 25 -44 25 -44l-113 -67v-218z" />
<glyph horiz-adv-x="407" d="M289 0h-58v452l-175 -37l-8 50l218 45h23v-510z" />
<glyph horiz-adv-x="326" d="M198 122v-108c0 -73 39 -80 66 -85l-6 -42c-82 11 -120 53 -120 137v95c0 72 -11 91 -62 117v27c59 30 62 50 62 117v95c0 76 31 123 120 137l6 -42c-53 -8 -66 -38 -66 -93v-99c0 -60 -9 -93 -61 -128c48 -34 61 -64 61 -128z" />
<glyph horiz-adv-x="524" d="M469 90l24 -49c-33 -26 -91 -49 -165 -49c-166 0 -267 112 -267 277c0 169 114 300 284 300c52 0 89 -6 125 -24l-12 -57c-27 13 -73 25 -120 25c-131 0 -209 -112 -209 -227c0 -130 64 -238 210 -238c42 0 95 17 130 42zM216 771l94 -63l98 63l29 -36l-130 -95l-121 94z " />
<glyph unicode="&#x11e;" horiz-adv-x="700" d="M614 395v-361c-37 -23 -107 -44 -180 -44c-266 0 -362 174 -362 367c0 218 163 373 366 373c60 0 108 -10 158 -31l-16 -60c-48 20 -91 32 -152 32c-156 0 -288 -129 -288 -300c0 -177 79 -322 305 -322c42 0 80 8 105 21v267h-150v58h214zM265 933h54 c8 -48 41 -76 90 -76c45 0 81 26 87 76h55c-8 -89 -76 -134 -147 -134c-74 0 -132 49 -139 134z" />
<glyph unicode="&#x1e60;" horiz-adv-x="537" d="M57 29l18 60c44 -22 106 -42 162 -42c93 0 176 37 176 135c0 158 -345 172 -345 366c0 116 94 182 223 182c69 0 120 -13 157 -30l-15 -60c-48 21 -105 32 -149 32c-88 0 -150 -35 -150 -111c0 -156 345 -175 345 -365c0 -143 -110 -206 -248 -206c-66 0 -133 18 -174 39 zM315 859c0 -26 -17 -44 -44 -44c-24 0 -46 16 -46 44s20 46 46 46c31 0 44 -22 44 -46z" />
<glyph unicode="&#x1e61;" horiz-adv-x="412" d="M326 413c-27 11 -74 23 -119 23c-55 0 -95 -26 -95 -62c0 -102 257 -91 257 -240c0 -93 -89 -144 -182 -144c-55 0 -103 12 -140 29l15 60c30 -18 86 -35 135 -35c54 0 109 30 109 78c0 111 -257 95 -257 240c0 79 75 128 167 128c52 0 92 -10 123 -24zM260 645 c0 -26 -16 -45 -42 -45c-24 0 -44 16 -44 45c0 26 18 44 44 44c30 0 42 -22 42 -44z" />
<glyph unicode="&#xe0;" horiz-adv-x="486" d="M416 0h-58v37c0 18 1 37 4 52l-2 1c-8 -16 -18 -29 -32 -42c-39 -36 -88 -58 -147 -58c-79 0 -137 45 -137 120c0 138 158 179 314 187v33c0 75 -30 106 -109 106c-52 0 -113 -15 -154 -39l-12 57c48 21 103 36 172 36c112 0 161 -47 161 -136v-354zM357 245 c-116 -2 -250 -33 -250 -120c0 -50 35 -81 86 -81c76 0 164 68 164 170v31zM288 569l-50 -18l-121 150l63 29z" />
<glyph unicode="&#x3ac;" horiz-adv-x="661" d="M630 60l10 -47c-16 -14 -48 -23 -78 -23c-58 0 -90 45 -102 107c-38 -69 -98 -107 -187 -107c-135 0 -224 83 -224 243c0 143 88 257 236 257c83 0 149 -42 183 -108l21 98h58l-47 -230l7 -66c10 -83 27 -140 68 -140c17 0 37 6 55 16zM436 233c0 115 -50 203 -170 203 c-98 0 -154 -89 -154 -190c0 -143 69 -202 173 -202c88 0 151 78 151 189zM298 550l-49 3l64 178l70 -11z" />
<glyph horiz-adv-x="280" d="M135 -51v601h-89v53h146v-707h-146v53h89z" />
<glyph horiz-adv-x="459" d="M135 56h280v-56h-370v18l269 487h-258v57h346v-21z" />
<glyph unicode="&#x148;" horiz-adv-x="524" d="M454 315v-315h-58v291c0 88 -24 145 -112 145c-95 0 -152 -83 -152 -169v-267h-58v480h59v-71c28 47 85 81 161 81c106 0 160 -55 160 -175zM145 725l113 -89l116 89l31 -39l-149 -128l-142 127z" />
<glyph unicode="&#x13f;" horiz-adv-x="549" d="M483 0h-376v720h64v-662h312v-58zM484 394c0 -28 -22 -50 -50 -50c-27 0 -49 22 -49 50c0 27 22 49 49 49c28 0 50 -22 50 -49z" />
<glyph unicode="&#x2265;" horiz-adv-x="609" d="M109 120l-20 54l324 166l-327 166l20 53l404 -201v-37zM64 1v57h462v-57h-462z" />
<glyph unicode=":" horiz-adv-x="309" d="M204 39c0 -27 -22 -49 -50 -49c-27 0 -49 22 -49 49c0 28 22 50 49 50c28 0 50 -22 50 -50zM204 440c0 -27 -22 -49 -50 -49c-27 0 -49 22 -49 49c0 28 22 50 49 50c28 0 50 -22 50 -50z" />
<glyph d="M61 155c0 106 74 154 152 187c-68 38 -130 87 -130 160c0 98 95 163 208 163c101 0 197 -52 197 -152c0 -91 -68 -140 -142 -175c83 -39 163 -87 163 -172c0 -115 -96 -175 -229 -175c-113 0 -219 67 -219 164zM446 152c0 77 -85 118 -173 158 c-79 -31 -149 -66 -149 -139c0 -86 91 -126 167 -126c85 0 155 31 155 107zM146 515c0 -71 63 -112 138 -147c74 29 141 62 141 131c0 64 -51 112 -145 112c-66 0 -134 -35 -134 -96z" />
<glyph unicode="&#xb3;" horiz-adv-x="359" d="M121 516h-23v44h31c52 0 98 30 98 68c0 32 -32 51 -81 51c-30 0 -57 -7 -83 -17l-8 45c25 11 62 18 99 18c82 0 132 -33 132 -88c0 -47 -33 -79 -72 -91c50 -10 87 -41 87 -87c0 -74 -64 -122 -154 -122c-39 0 -74 4 -101 15l12 46c31 -11 62 -15 96 -15 c51 0 88 28 88 67c0 45 -46 66 -121 66z" />
<glyph unicode="&#xca;" horiz-adv-x="564" d="M171 662v-266h323v-58h-323v-280h337v-58h-401v720h396v-58h-332zM427 789l-115 79l-118 -79l-31 40l152 113l144 -114z" />
<glyph horiz-adv-x="630" d="M346 -8h-62v89c-158 8 -244 106 -244 194c0 101 89 195 244 204v90h62v-90c163 -10 244 -104 244 -194c0 -92 -81 -194 -244 -204v-89zM284 138v286c-126 -10 -176 -86 -176 -139c0 -73 49 -137 176 -147zM346 424v-287c131 11 176 76 176 136c0 64 -43 139 -176 151z " />
<glyph unicode="&#xd2;" horiz-adv-x="757" d="M684 366c0 -188 -107 -376 -311 -376c-224 0 -301 199 -301 367c0 208 120 373 311 373c182 0 301 -152 301 -364zM616 356c0 179 -94 315 -243 315c-140 0 -233 -135 -233 -305c0 -142 61 -317 243 -317c155 0 233 153 233 307zM425 818l-41 -31l-166 114l58 45z" />
<glyph horiz-adv-x="444" d="M57 488l-15 50c35 16 94 31 149 31c122 0 169 -61 169 -150c0 -128 -158 -281 -251 -370h278v-49h-340v67c116 108 246 232 246 341c0 64 -40 109 -117 109c-39 0 -84 -12 -119 -29z" />
<glyph unicode="&#x3cc;" horiz-adv-x="549" d="M499 246c0 -145 -86 -256 -233 -256c-120 0 -217 83 -217 243c0 146 85 257 236 257c134 0 214 -104 214 -244zM436 233c0 122 -59 203 -170 203c-98 0 -154 -89 -154 -190c0 -134 67 -202 173 -202c93 0 151 88 151 189zM298 550l-49 3l64 178l70 -11z" />
<glyph horiz-adv-x="471" d="M139 0h-72l128 230l-174 332h65l145 -270l151 270h68zM303 761h49c-7 -70 -58 -107 -120 -107c-63 0 -107 41 -112 107h48c6 -34 31 -57 69 -57c34 0 62 21 66 57z" />
<glyph unicode="&#x161;" horiz-adv-x="412" d="M326 413c-27 11 -74 23 -119 23c-55 0 -95 -26 -95 -62c0 -102 257 -91 257 -240c0 -93 -89 -144 -182 -144c-55 0 -103 12 -140 29l15 60c30 -18 86 -35 135 -35c54 0 109 30 109 78c0 111 -257 95 -257 240c0 79 75 128 167 128c52 0 92 -10 123 -24zM110 725l113 -89 l116 89l31 -39l-149 -128l-142 127z" />
<glyph unicode="&#x1e85;" horiz-adv-x="722" d="M506 111l150 369h56l-200 -480h-28l-125 343l-134 -343h-32l-182 480h62l141 -369l142 369h17zM323 633c0 -26 -17 -44 -43 -44c-24 0 -44 15 -44 44c0 27 18 43 44 43c31 0 43 -21 43 -43zM496 633c0 -26 -16 -44 -42 -44c-24 0 -44 15 -44 44c0 27 18 43 44 43 c31 0 42 -21 42 -43z" />
<glyph horiz-adv-x="524" d="M469 90l24 -49c-33 -26 -91 -49 -165 -49c-166 0 -267 112 -267 277c0 169 114 300 284 300c52 0 89 -6 125 -24l-12 -57c-27 13 -73 25 -120 25c-131 0 -209 -112 -209 -227c0 -130 64 -238 210 -238c42 0 95 17 130 42zM350 702c0 -26 -18 -43 -42 -43 c-23 0 -43 16 -43 43c0 26 18 44 43 44c27 0 42 -19 42 -44z" />
<glyph d="M88 434l-19 49c43 14 116 29 189 29c128 0 206 -47 206 -137c0 -137 -186 -248 -309 -325h344v-50h-422v63c132 81 324 197 324 301c0 70 -74 94 -164 94c-50 0 -106 -9 -149 -24z" />
<glyph horiz-adv-x="471" d="M89 2v560h335v-54h-272v-179h63c153 0 218 -77 218 -170c0 -91 -63 -167 -233 -167c-30 0 -66 3 -111 10zM212 276h-60v-224c22 -3 44 -4 65 -4c101 0 150 52 150 113c0 65 -51 115 -155 115z" />
<glyph unicode="&#x1e02;" horiz-adv-x="601" d="M107 8v703c48 13 107 19 173 19c123 0 228 -44 228 -163c0 -83 -53 -154 -125 -178v-2c85 -16 149 -82 149 -171c0 -135 -98 -226 -277 -226c-52 0 -115 8 -148 18zM169 342v-283c26 -7 64 -11 103 -11c113 0 193 53 193 153c0 85 -75 141 -180 141h-116zM169 662v-263 h61c95 0 211 54 211 154c0 89 -79 119 -181 119c-27 0 -73 -5 -91 -10zM321 859c0 -26 -17 -44 -44 -44c-24 0 -46 16 -46 44s20 46 46 46c31 0 44 -22 44 -46z" />
<glyph unicode="&#x1e03;" horiz-adv-x="534" d="M221 -10c-45 0 -107 8 -147 23v720h58v-319c29 42 82 76 151 76c143 0 201 -111 201 -232c0 -168 -118 -268 -263 -268zM132 288v-224c23 -14 66 -19 104 -19c97 0 185 74 185 200c0 101 -43 191 -144 191c-68 0 -145 -59 -145 -148zM328 645c0 -26 -16 -45 -42 -45 c-24 0 -44 16 -44 45c0 26 18 44 44 44c30 0 42 -22 42 -44z" />
<glyph horiz-adv-x="331" d="M136 268v69c-36 0 -68 6 -96 16l11 55c25 -12 63 -22 97 -22c45 0 88 17 88 58c0 33 -34 50 -80 67c-55 20 -114 47 -114 110c0 55 39 92 106 101v67h48v-64c30 -1 54 -5 77 -13l-9 -53c-27 11 -52 17 -84 17c-47 0 -76 -13 -76 -46c0 -39 50 -57 87 -71 c57 -21 106 -45 106 -106c0 -63 -48 -102 -114 -113v-72h-47z" />
<glyph horiz-adv-x="437" d="M151 506v-200h234v-54h-234v-252h-63v562h309v-56h-246zM268 702c0 -26 -18 -43 -42 -43c-23 0 -43 16 -43 43c0 26 18 44 43 44c27 0 42 -19 42 -44z" />
<glyph unicode="&#x1e0a;" horiz-adv-x="695" d="M276 -10c-49 0 -133 8 -169 21v700c68 14 132 19 183 19c210 0 339 -152 339 -354c0 -219 -129 -386 -353 -386zM171 659v-598c27 -8 74 -12 119 -12c160 0 271 126 271 305c0 167 -90 317 -284 317c-35 0 -78 -6 -106 -12zM350 859c0 -26 -17 -44 -44 -44 c-24 0 -46 16 -46 44s20 46 46 46c31 0 44 -22 44 -46z" />
<glyph unicode="&#x1e0b;" horiz-adv-x="538" d="M464 0h-58v86c-35 -50 -92 -96 -176 -96c-118 0 -181 93 -181 226c0 158 93 274 254 274c33 0 74 -5 103 -14v257h58v-733zM406 211v197c-33 18 -80 28 -120 28c-109 0 -174 -86 -174 -206c0 -105 44 -186 125 -186c96 0 169 95 169 167zM311 645c0 -26 -16 -45 -42 -45 c-24 0 -44 16 -44 45c0 26 18 44 44 44c30 0 42 -22 42 -44z" />
<glyph unicode="&#xc2;" horiz-adv-x="687" d="M596 0l-110 270h-288l-112 -270h-64l308 720h35l300 -720h-69zM344 615l-119 -287h236zM463 789l-115 79l-118 -79l-31 40l152 113l144 -114z" />
<glyph unicode=")" horiz-adv-x="313" d="M38 768h43c80 -132 144 -259 144 -443c0 -173 -39 -319 -154 -475l-38 1c99 166 127 314 127 463c0 178 -65 333 -122 454z" />
<glyph unicode="&#xd7;" horiz-adv-x="460" d="M39 90l151 151l-151 150l41 41l150 -150l151 150l40 -40l-150 -151l150 -150l-41 -40l-150 150l-151 -151z" />
<glyph unicode="&#x22;" horiz-adv-x="300" d="M101 473h-44l-18 243h79zM244 473h-44l-18 243h79z" />
<glyph horiz-adv-x="588" d="M499 0h-63v506h-216l-28 -315c-12 -133 -32 -199 -151 -199c-6 0 -13 1 -19 2l9 57c9 -2 14 -3 23 -3c55 0 70 50 76 128l30 386h339v-562z" />
<glyph horiz-adv-x="376" d="M35 173v41h94l-100 164h67l58 -90l38 -60l100 150h60l-103 -164h96v-41h-125v-52h125v-41h-125v-80h-58v80h-127v41h127v52h-127z" />
<glyph horiz-adv-x="571" d="M479 0l-82 198h-224l-85 -198h-67l243 562h50l236 -562h-71zM286 469l-91 -215h180zM319 669l-37 -30l-139 91l51 44z" />
<glyph unicode="&#x14a;" horiz-adv-x="735" d="M572 0l-405 600v-600h-60v720h60l402 -595v595h58v-701c0 -156 -25 -249 -171 -249c-33 0 -69 11 -100 24l11 58c36 -17 76 -22 106 -22c69 0 97 66 97 170h2z" />
<glyph d="M467 646l-10 -58c-33 14 -80 24 -126 24c-130 0 -185 -103 -201 -212c-1 -18 -5 -41 -11 -61l1 -1c6 10 19 26 36 39c37 31 95 46 153 46c129 0 209 -83 209 -207c0 -134 -103 -225 -238 -225c-160 0 -223 128 -223 256c0 219 64 418 286 418c48 0 95 -7 124 -19z M455 203c0 93 -60 167 -155 167c-101 0 -176 -69 -176 -154c0 -92 57 -171 173 -171c87 0 158 63 158 158z" />
<glyph horiz-adv-x="241" d="M152 0h-63v562h63v-562zM78 702c0 -23 -18 -40 -42 -40c-23 0 -41 17 -41 40s18 40 41 40c24 0 42 -17 42 -40zM247 702c0 -23 -18 -40 -42 -40c-22 0 -40 17 -40 40s18 40 40 40c24 0 42 -17 42 -40z" />
<glyph unicode="&#x395;" horiz-adv-x="564" d="M171 662v-266h323v-58h-323v-280h337v-58h-401v720h396v-58h-332z" />
<glyph unicode="&#xbc;" horiz-adv-x="743" d="M144 -48l-50 29l468 783l49 -26zM191 342h-57v325l-94 -18l-6 46l142 27h15v-380zM662 0h-55v112h-183l-6 50l181 216h63v-222h65v-44h-65v-112zM469 156h138v161z" />
<glyph unicode="&#x3ae;" horiz-adv-x="524" d="M454 -220h-58v511c0 110 -34 145 -112 145c-99 0 -152 -83 -152 -169v-267h-58v480h58v-72c28 47 84 82 160 82c105 0 162 -49 162 -175v-535zM273 550l-49 3l64 178l70 -11z" />
<glyph unicode="&#x13a;" horiz-adv-x="207" d="M132 733v-733h-58v733h58zM125 786l-49 18l107 161l64 -29z" />
<glyph unicode="&#x2248;" horiz-adv-x="591" d="M114 271l-50 5c0 79 42 124 104 124c73 0 191 -101 255 -101c31 0 57 26 57 79v4l50 -5c-6 -107 -55 -125 -101 -125c-87 0 -200 101 -257 101c-28 0 -58 -17 -58 -82zM114 91l-50 5c0 78 42 124 104 124c73 0 191 -101 255 -101c31 0 57 25 57 79v4l50 -5 c-6 -107 -55 -125 -101 -125c-87 0 -200 101 -257 101c-28 0 -58 -17 -58 -82z" />
<glyph unicode="&#x146;" horiz-adv-x="524" d="M454 315v-315h-58v291c0 88 -24 145 -112 145c-95 0 -152 -83 -152 -169v-267h-58v480h59v-71c28 47 85 81 161 81c106 0 160 -55 160 -175zM288 -67l-65 -163h-45l47 163h63z" />
<glyph unicode="|" horiz-adv-x="282" d="M173 774v-947h-64v947h64z" />
<glyph unicode="\" horiz-adv-x="477" d="M72 838l370 -971l-54 -21l-371 969z" />
<glyph unicode="&#x3bf;" horiz-adv-x="549" d="M499 246c0 -145 -86 -256 -233 -256c-120 0 -217 83 -217 243c0 146 85 257 236 257c134 0 214 -104 214 -244zM436 233c0 122 -59 203 -170 203c-98 0 -154 -89 -154 -190c0 -134 67 -202 173 -202c93 0 151 88 151 189z" />
<glyph unicode="&#x126;" horiz-adv-x="716" d="M22 534v58h85v128h64v-128h373v128h64v-128h85v-58h-85v-534h-64v341h-373v-341h-64v534h-85zM171 399h373v135h-373v-135z" />
<glyph unicode="&#xd5;" horiz-adv-x="757" d="M684 366c0 -188 -107 -376 -311 -376c-224 0 -301 199 -301 367c0 208 120 373 311 373c182 0 301 -152 301 -364zM616 356c0 179 -94 315 -243 315c-140 0 -233 -135 -233 -305c0 -142 61 -317 243 -317c155 0 233 153 233 307zM279 821l-50 11c15 58 46 89 90 89 c49 0 91 -52 119 -52c14 0 22 19 30 45l53 -9c-20 -65 -47 -93 -90 -93c-52 0 -83 52 -119 52c-11 0 -23 -18 -33 -43z" />
<glyph horiz-adv-x="593" d="M440 261h-286v-261h-63v562h63v-246h286v246h62v-562h-62v261z" />
<glyph horiz-adv-x="589" d="M499 0h-58v452l-293 -452h-59v562h58v-449l290 449h62v-562zM361 761h50c-7 -70 -59 -107 -121 -107s-107 41 -112 107h48c6 -34 31 -57 69 -57c35 0 62 21 66 57z" />
<glyph horiz-adv-x="466" d="M154 506v-191h250v-56h-250v-205h262v-54h-325v562h321v-56h-258zM-13 484l-49 3l64 178l70 -11z" />
<glyph unicode="&#x130;" horiz-adv-x="278" d="M171 720v-720h-64v720h64zM183 859c0 -26 -17 -44 -44 -44c-24 0 -46 16 -46 44s20 46 46 46c31 0 44 -22 44 -46z" />
<glyph horiz-adv-x="474" d="M154 227v-227h-63v554c41 8 95 15 151 15c124 0 192 -66 192 -155c0 -131 -117 -187 -250 -187h-30zM154 504v-224h43c90 0 169 42 169 120c0 77 -51 113 -132 113c-31 0 -61 -4 -80 -9zM274 702c0 -26 -18 -43 -42 -43c-23 0 -43 16 -43 43c0 26 18 44 43 44 c27 0 42 -19 42 -44z" />
<glyph unicode="6" horiz-adv-x="595" d="M480 708l-11 -53c-30 13 -80 21 -125 21c-130 0 -185 -118 -203 -242l-11 -67h2c6 11 20 30 35 44c38 35 95 52 154 52c129 0 210 -99 210 -227c0 -147 -103 -246 -239 -246c-160 0 -223 142 -223 277c0 243 64 463 288 463c47 0 94 -8 123 -22zM468 223 c0 109 -56 186 -156 186c-101 0 -179 -77 -179 -173c0 -102 60 -191 169 -191c94 0 166 71 166 178z" />
<glyph unicode=" "  horiz-adv-x="308" />
<glyph unicode="&#x09;" horiz-adv-x="308" />
<glyph unicode="&#xa0;" horiz-adv-x="308" />
<glyph unicode="&#x221e;" horiz-adv-x="845" d="M225 38c-104 0 -166 112 -166 196c0 121 79 205 177 205c89 0 136 -71 179 -148c45 77 99 148 198 148c103 0 166 -88 166 -194c0 -132 -94 -207 -181 -207c-88 0 -141 59 -185 128c-44 -69 -100 -128 -188 -128zM613 101c68 0 109 66 109 133c0 94 -56 142 -124 142 c-64 0 -103 -72 -148 -149c40 -68 84 -126 163 -126zM222 376c-67 0 -106 -58 -106 -131c0 -75 41 -143 124 -144c63 0 101 57 138 124c-44 78 -85 151 -156 151z" />
<glyph d="M191 348h-39v52h54c44 0 189 21 189 154c0 83 -60 122 -164 122c-56 0 -102 -10 -146 -30l-7 50c40 20 112 34 167 34c131 0 213 -63 213 -161c0 -89 -41 -148 -117 -182c84 -16 144 -76 144 -169c0 -151 -112 -228 -252 -228c-67 0 -138 12 -176 30l14 55 c37 -18 133 -31 174 -31c102 0 177 60 177 159c0 91 -67 145 -231 145z" />
<glyph unicode="&#xf6;" horiz-adv-x="549" d="M499 246c0 -145 -86 -256 -233 -256c-120 0 -217 83 -217 243c0 146 85 257 236 257c134 0 214 -104 214 -244zM436 233c0 122 -59 203 -170 203c-98 0 -154 -89 -154 -190c0 -134 67 -202 173 -202c93 0 151 88 151 189zM232 633c0 -26 -17 -44 -43 -44 c-24 0 -44 15 -44 44c0 27 18 43 44 43c31 0 43 -21 43 -43zM405 633c0 -26 -16 -44 -42 -44c-24 0 -44 15 -44 44c0 27 18 43 44 43c31 0 42 -21 42 -43z" />
<glyph unicode="&#x392;" horiz-adv-x="601" d="M107 8v703c48 13 107 19 173 19c123 0 228 -44 228 -163c0 -83 -53 -154 -125 -178v-2c85 -16 149 -82 149 -171c0 -135 -98 -226 -277 -226c-52 0 -115 8 -148 18zM169 342v-283c26 -7 64 -11 103 -11c113 0 193 53 193 153c0 85 -75 141 -180 141h-116zM169 662v-263 h61c95 0 211 54 211 154c0 89 -79 119 -181 119c-27 0 -73 -5 -91 -10z" />
<glyph unicode="&#x3a3;" horiz-adv-x="566" d="M29 50l276 305l-276 311v54h485v-58h-395l271 -307l-272 -297h428v-58h-517v50z" />
<glyph unicode="&#x144;" horiz-adv-x="524" d="M454 315v-315h-58v291c0 88 -24 145 -112 145c-95 0 -152 -83 -152 -169v-267h-58v480h59v-71c28 47 85 81 161 81c106 0 160 -55 160 -175zM270 551l-49 18l107 161l64 -29z" />
<glyph horiz-adv-x="501" d="M91 6v548c43 10 103 15 146 15c106 0 181 -41 181 -130c0 -61 -36 -111 -91 -133l1 -3c75 -13 116 -74 116 -134c0 -72 -42 -177 -227 -177c-60 0 -96 7 -126 14zM154 261v-205c20 -5 44 -6 69 -6c95 0 153 38 153 108c0 71 -62 103 -155 103c-22 0 -37 1 -67 0zM154 506 v-190h35c84 0 167 41 167 112c0 65 -57 85 -134 85c-19 0 -52 -3 -68 -7z" />
<glyph horiz-adv-x="245" d="M154 562v-562h-63v562h63zM163 669l-37 -30l-139 91l51 44z" />
<glyph horiz-adv-x="524" d="M469 90l24 -49c-33 -26 -91 -49 -165 -49c-166 0 -267 112 -267 277c0 169 114 300 284 300c52 0 89 -6 125 -24l-12 -57c-27 13 -73 25 -120 25c-131 0 -209 -112 -209 -227c0 -130 64 -238 210 -238c42 0 95 17 130 42zM408 640l-95 64l-98 -64l-28 38l128 93l123 -93z " />
<glyph unicode="&#xa1;" horiz-adv-x="309" d="M173 332l20 -562h-81l26 562h35zM106 449c0 28 23 51 51 51c27 0 51 -23 51 -51s-24 -51 -51 -51c-28 0 -51 23 -51 51z" />
<glyph horiz-adv-x="445" d="M53 19l13 62c35 -18 82 -33 132 -33c65 0 131 27 131 98c0 56 -55 83 -113 112c-75 38 -160 73 -160 161c0 93 70 150 188 150c48 0 89 -8 122 -21l-11 -60c-38 17 -70 25 -118 25c-69 0 -113 -22 -113 -81c0 -58 51 -84 106 -110c66 -31 167 -63 167 -163 c0 -111 -92 -167 -205 -167c-51 0 -96 11 -139 27zM250 -39l-55 -140h-47l33 140h69z" />
<glyph horiz-adv-x="640" d="M7 484l-49 3l64 178l70 -11zM605 49v-49h-238v58c78 26 148 126 148 227c0 122 -75 228 -199 228c-129 0 -191 -107 -191 -221c0 -91 69 -199 145 -230v-62h-229v49h156c-76 39 -138 150 -138 236c0 178 114 284 264 284c159 0 259 -107 259 -277 c0 -85 -51 -188 -136 -243h159z" />
<glyph unicode="&#x3c9;" horiz-adv-x="754" d="M406 418v-177c0 -130 52 -197 122 -197c85 0 115 94 115 189c0 100 -26 186 -80 247h70c49 -58 73 -154 73 -233c0 -144 -58 -257 -193 -257c-60 0 -121 35 -139 108c-26 -69 -82 -108 -156 -108c-118 0 -170 93 -170 243c0 82 31 192 78 247h65 c-54 -61 -80 -147 -80 -233c0 -105 20 -203 125 -203c64 0 112 83 112 170v204h58z" />
<glyph unicode="&#x142;" horiz-adv-x="221" d="M139 733v-301l62 37l27 -44l-89 -55v-370h-58v336l-57 -35l-27 44l84 51v337h58z" />
<glyph unicode="&#xc3;" horiz-adv-x="687" d="M596 0l-110 270h-288l-112 -270h-64l308 720h35l300 -720h-69zM344 615l-119 -287h236zM248 821l-50 11c15 58 46 89 90 89c49 0 91 -52 119 -52c14 0 22 19 30 45l53 -9c-20 -65 -47 -93 -90 -93c-52 0 -83 52 -119 52c-11 0 -23 -18 -33 -43z" />
<glyph unicode="&#xda;" horiz-adv-x="672" d="M335 -10c-154 0 -231 80 -231 250v480h64v-458c0 -149 52 -213 179 -213c95 0 182 57 182 198v473h58v-459c0 -196 -108 -271 -252 -271zM353 788l-38 30l149 128l57 -44z" />
<glyph horiz-adv-x="467" d="M30 47l214 229l-214 234v52h388v-56h-296l206 -227l-212 -225h328v-54h-414v47z" />
<glyph horiz-adv-x="384" d="M35 515v41h94l-100 164h67l58 -90l38 -60l100 150h60l-103 -164h96v-41h-125v-52h125v-41h-125v-80h-58v80h-127v41h127v52h-127z" />
<glyph unicode="&#x124;" horiz-adv-x="716" d="M544 341h-373v-341h-64v720h64v-321h373v321h64v-720h-64v341zM471 789l-115 79l-118 -79l-31 40l152 113l144 -114z" />
<glyph unicode="&#x14b;" horiz-adv-x="524" d="M259 -220l5 63c17 -6 36 -11 60 -11c64 0 72 55 72 119v340c0 80 -17 145 -112 145c-99 0 -152 -94 -152 -169v-267h-58v480h59v-67c28 47 83 77 159 77c95 0 162 -46 162 -175v-351c0 -124 -26 -194 -137 -194c-19 0 -39 4 -58 10z" />
<glyph unicode="%" horiz-adv-x="945" d="M64 524c0 91 38 201 177 201c116 0 166 -99 166 -192c0 -105 -61 -196 -174 -196c-101 0 -169 84 -169 187zM130 533c0 -67 29 -146 112 -146c67 0 99 76 99 137c0 80 -33 152 -111 152c-71 0 -100 -72 -100 -143zM538 182c0 91 38 201 177 201c116 0 166 -99 166 -192 c0 -105 -61 -196 -174 -196c-100 0 -169 84 -169 187zM604 191c0 -67 29 -146 112 -146c68 0 99 76 99 137c0 80 -32 152 -111 152c-70 0 -100 -72 -100 -143zM249 1l393 749l50 -28l-392 -748z" />
<glyph horiz-adv-x="444" d="M52 19l13 62c36 -18 89 -33 132 -33c64 0 131 27 131 98c0 56 -53 83 -112 112c-74 37 -159 74 -159 161c0 92 71 150 186 150c46 0 87 -7 122 -21l-11 -60c-37 17 -70 25 -118 25c-69 0 -113 -24 -113 -81c0 -54 50 -82 106 -110c77 -36 167 -72 167 -163 c0 -111 -92 -167 -206 -167c-47 0 -93 9 -138 27z" />
<glyph unicode="&#x2044;" horiz-adv-x="567" d="M75 -48l-50 29l468 783l49 -26z" />
<glyph unicode="&#x201d;" horiz-adv-x="364" d="M174 724l-82 -240h-50l55 240h77zM330 724l-82 -240h-50l54 240h78z" />
<glyph unicode="#" horiz-adv-x="567" d="M339 0l11 188h-138l-11 -188h-57l11 188h-130v57h133l8 156h-141v57h145l11 188h57l-11 -188h138l11 188h57l-11 -188h120v-57h-123l-9 -156h132v-57h-135l-11 -188h-57zM223 401l-8 -156h138l9 156h-139z" />
<glyph unicode="$" horiz-adv-x="479" d="M207 -120v110c-72 0 -139 18 -180 39l18 59c43 -23 104 -43 162 -43v306c-91 47 -182 98 -182 192c0 95 71 160 172 181v105h55v-99c77 0 128 -13 165 -31l-14 -57c-49 21 -107 32 -151 32v-275c97 -50 202 -101 202 -203c0 -118 -83 -183 -193 -201v-115h-54zM261 49 c71 14 129 54 129 133c0 63 -58 103 -129 141v-274zM197 428v240c-64 -13 -108 -49 -108 -110c0 -57 47 -95 108 -130z" />
<glyph unicode="&#x26;" horiz-adv-x="643" d="M494 349v-325c-53 -18 -144 -34 -227 -34c-123 0 -242 46 -242 187c0 97 56 187 165 207c-73 26 -133 75 -133 158c0 106 99 188 238 188c53 0 91 -9 117 -17l-15 -66c-36 16 -77 21 -118 21c-68 0 -158 -32 -158 -113c0 -101 115 -143 227 -143h86v86l60 13v-99h124v-63 h-124zM279 48c60 0 115 8 155 24v277h-90c-154 0 -248 -52 -248 -163c0 -90 71 -138 183 -138z" />
<glyph unicode="&#x20ac;" horiz-adv-x="683" d="M41 407l6 58h98c46 151 170 265 339 265c53 0 108 -8 160 -28l-14 -61c-27 13 -92 30 -155 30c-135 0 -229 -91 -262 -206h375l-6 -58h-383c-1 -9 -2 -17 -2 -45c0 -3 0 -32 3 -52h374l-6 -58h-356c23 -113 116 -203 245 -203c65 0 128 21 174 57l27 -54 c-55 -41 -125 -62 -209 -62c-192 0 -278 129 -310 262h-114l6 58h98c-1 8 0 25 0 34c0 22 1 42 3 63h-91z" />
<glyph unicode="&#x201a;" horiz-adv-x="181" d="M156 94l-81 -240h-50l54 240h77z" />
<glyph unicode="&#x201e;" horiz-adv-x="337" d="M312 94l-82 -240h-50l55 240h77zM156 94l-81 -240h-50l54 240h77z" />
<glyph unicode="&#x2020;" horiz-adv-x="445" d="M185 0l9 465l-169 -10v60l169 -10l-9 215h76l-10 -215l169 10v-60l-169 10l10 -465h-76z" />
<glyph unicode="&#x2021;" horiz-adv-x="445" d="M184 0l7 306l-166 -9v60l169 -10v118l-169 -10v60l169 -10l-10 215h77l-10 -215l169 10v-60l-169 10v-118l169 10v-60l-167 10l8 -307h-77z" />
<glyph unicode="&#xa2;" horiz-adv-x="458" d="M411 200l22 -52c-49 -24 -96 -36 -144 -39v-109h-58v111c-115 14 -206 97 -206 247c0 123 86 222 206 245v117h58v-111c38 0 69 -3 115 -16l-10 -61c-31 12 -69 19 -105 21v-388c53 1 107 24 122 35zM92 362c0 -107 52 -174 139 -192v378c-85 -19 -139 -94 -139 -186z " />
<glyph unicode="&#xa3;" horiz-adv-x="499" d="M388 352h-185c5 -38 9 -75 9 -105c0 -78 -19 -148 -47 -195h300v-52h-381l3 34c31 37 62 97 62 198c0 39 -5 79 -10 120h-114v52h107c-4 28 -6 56 -6 83c0 158 54 243 227 243c49 0 97 -10 121 -21l-14 -55c-28 10 -72 22 -123 22c-119 0 -148 -58 -148 -176 c0 -28 3 -62 7 -96h192v-52z" />
<glyph unicode="&#xa5;" horiz-adv-x="584" d="M31 364v66h162l-168 290h73l192 -331l199 331h70l-176 -290h169v-66h-217l-13 -109h230v-66h-230v-189h-63v189h-228v66h228l-26 109h-202z" />
<glyph unicode="&#x2022;" horiz-adv-x="360" d="M335 368c0 -86 -69 -155 -155 -155c-85 0 -155 69 -155 155s70 155 155 155c86 0 155 -69 155 -155z" />
<glyph unicode="&#x2d9;" horiz-adv-x="136" d="M111 625c0 -26 -17 -44 -43 -44c-24 0 -43 16 -43 44c0 26 17 44 43 44c30 0 43 -22 43 -44z" />
<glyph unicode="&#xb7;" horiz-adv-x="136" d="M111 368c0 -26 -17 -44 -43 -44c-24 0 -43 16 -43 44c0 26 17 44 43 44c30 0 43 -22 43 -44z" />
<glyph unicode="&#xf0;" horiz-adv-x="547" d="M264 583v53h141v97h59v-97h66v-53h-66v-583h-59v71c-31 -42 -85 -81 -175 -81c-108 0 -181 87 -181 226c0 153 89 274 254 274c33 0 73 -5 102 -14v107h-141zM405 211v197c-33 18 -79 28 -119 28c-114 0 -174 -87 -174 -206c0 -105 44 -186 125 -186c82 0 168 81 168 167 z" />
<glyph unicode="&#xd0;" horiz-adv-x="734" d="M41 341v58h106v312c67 14 131 19 182 19c210 0 339 -152 339 -354c0 -219 -129 -386 -353 -386c-49 0 -133 8 -168 21v330h-106zM210 659v-260h197v-58h-197v-280c27 -8 74 -12 119 -12c160 0 271 126 271 305c0 167 -90 317 -284 317c-35 0 -78 -7 -106 -12z" />
<glyph unicode="`" horiz-adv-x="221" d="M196 569l-50 -18l-121 150l63 29z" />
<glyph unicode="&#xb4;" horiz-adv-x="221" d="M74 551l-49 18l107 161l64 -29z" />
<glyph unicode="&#x2c6;" horiz-adv-x="341" d="M284 559l-113 88l-115 -88l-31 38l149 129l142 -127z" />
<glyph unicode="&#x2dc;" horiz-adv-x="349" d="M74 587l-49 12c17 65 46 94 92 94c54 0 97 -58 128 -58c14 0 22 25 30 57l49 -10c-20 -73 -40 -104 -86 -104c-57 0 -90 59 -128 59c-9 0 -26 -20 -36 -50z" />
<glyph unicode="&#xa8;" horiz-adv-x="310" d="M112 633c0 -26 -17 -44 -43 -44c-24 0 -44 15 -44 44c0 27 18 43 44 43c31 0 43 -21 43 -43zM285 633c0 -26 -16 -44 -42 -44c-24 0 -44 15 -44 44c0 27 18 43 44 43c31 0 42 -21 42 -43z" />
<glyph unicode="&#x2da;" horiz-adv-x="250" d="M25 634c0 49 41 91 101 91c65 0 99 -35 99 -83c0 -62 -43 -91 -100 -91s-100 34 -100 83zM79 642c0 -27 21 -50 47 -50c28 0 44 17 44 43c0 27 -19 49 -46 49c-26 0 -45 -16 -45 -42z" />
<glyph unicode="&#xb8;" horiz-adv-x="200" d="M52 -69l45 71l52 -2l-27 -44c36 -9 53 -33 53 -63c0 -48 -35 -79 -103 -79c-15 0 -33 3 -47 8l13 42c10 -4 24 -7 37 -7c23 0 37 12 37 31c0 23 -24 37 -60 43z" />
<glyph unicode="&#x2d8;" horiz-adv-x="329" d="M25 706h51c8 -58 40 -86 90 -86c45 0 82 27 90 86h48c-8 -100 -74 -141 -143 -141c-72 0 -130 46 -136 141z" />
<glyph unicode="&#x2c7;" horiz-adv-x="341" d="M56 725l113 -89l116 89l31 -39l-149 -128l-142 127z" />
<glyph unicode="&#x2dd;" horiz-adv-x="408" d="M77 551l-52 19l117 159l67 -34zM235 551l-51 19l132 159l67 -34z" />
<glyph unicode="&#x2db;" horiz-adv-x="221" d="M169 -97l27 -36c-17 -22 -54 -44 -92 -44c-44 0 -79 24 -79 77c0 46 31 94 63 117l58 -17c-34 0 -58 -73 -58 -94c0 -20 9 -30 29 -30c21 0 40 15 52 27z" />
<glyph unicode="&#xaf;" horiz-adv-x="306" d="M25 606v49h256v-49h-256z" />
<glyph unicode="&#xa4;" horiz-adv-x="549" d="M26 98l78 93c-25 30 -39 73 -39 131c0 46 15 90 44 125l-84 99l65 50l71 -107c30 16 68 26 112 26c47 0 86 -8 117 -24l69 106l65 -49s-53 -61 -83 -97c25 -31 38 -74 38 -125c0 -53 -15 -95 -41 -126c29 -36 86 -102 86 -102l-65 -47l-71 108c-33 -18 -73 -27 -118 -27 c-43 0 -82 6 -113 20l-66 -102zM131 326c0 -97 59 -138 142 -138c84 0 140 40 140 134c0 72 -43 138 -143 138c-103 0 -139 -58 -139 -134z" />
<glyph unicode="&#x192;" horiz-adv-x="349" d="M205 428v-474c0 -129 -70 -177 -134 -177c-16 0 -35 5 -57 9l6 65c18 -6 44 -11 67 -11c41 0 60 46 60 100v488h-93v52h93v56c0 136 50 186 132 186c19 0 35 -3 56 -9l-2 -64c-18 6 -38 11 -64 11c-60 0 -64 -51 -64 -115v-65h130v-52h-130z" />
<glyph unicode="&#x201c;" horiz-adv-x="364" d="M198 484l82 240h50l-55 -240h-77zM42 484l82 240h50l-54 -240h-78z" />
<glyph unicode="&#x2018;" horiz-adv-x="237" d="M72 484l82 240h50l-55 -240h-77z" />
</font>
</defs>
</svg>
